<svg width="28" height="28" viewBox="0 0 28 28" fill="none" xmlns="http://www.w3.org/2000/svg">
<path d="M28 14C28 10.2606 26.5433 6.74474 23.8996 4.10043C21.2559 1.45575 17.7394 0 14 0C10.7024 0 7.58031 1.13365 5.07495 3.21341C4.99755 3.2389 4.92351 3.27688 4.86149 3.33841L3.3389 4.861C3.27689 4.92302 3.23939 4.99658 3.21391 5.07446C1.13366 7.58018 0 10.7024 0 14C0 17.7394 1.45575 21.2558 4.10043 23.8996C6.74462 26.5433 10.2606 28 14 28C17.2976 28 20.4202 26.8663 22.9246 24.7861C23.0024 24.7606 23.0765 24.7226 23.138 24.6611L24.6606 23.1385C24.7221 23.077 24.7606 23.0029 24.7856 22.925C26.8663 20.4202 28 17.2976 28 14ZM23.1385 4.86154C25.5788 7.3024 26.9231 10.5481 26.9231 14C26.9231 16.9072 25.9668 19.6658 24.2073 21.9231L6.07803 3.79385C8.33477 2.03422 11.0934 1.07754 14.0006 1.07754C17.4526 1.07754 20.6982 2.42228 23.1391 4.86215L23.1385 4.86154ZM23.1385 23.1385C23.0115 23.2654 22.8808 23.3889 22.7481 23.5096L4.49084 5.25115C4.61248 5.11942 4.7346 4.98913 4.86247 4.86124C4.98988 4.73383 5.12017 4.61125 5.25238 4.48961L23.5096 22.7481C23.3889 22.8798 23.2659 23.0106 23.1389 23.1385H23.1385ZM4.86154 23.1385C2.42166 20.6976 1.07692 17.4519 1.07692 14C1.07692 11.0928 2.03365 8.33415 3.79225 6.07692L21.9215 24.2062C19.6652 25.9663 16.9066 26.9225 13.9994 26.9225C10.5474 26.9225 7.30178 25.5782 4.86092 23.1378L4.86154 23.1385Z" fill="#9D252F"/>
</svg>
