<svg width="23" height="30" viewBox="0 0 23 30" fill="none" xmlns="http://www.w3.org/2000/svg">
<mask id="path-1-outside-1_1_132" maskUnits="userSpaceOnUse" x="0" y="0" width="23" height="30" fill="black">
<rect fill="white" width="23" height="30"/>
<path d="M22.7939 25.0527C22.511 23.2953 21.4584 21.7431 19.906 20.794C18.3936 19.8683 16.6366 19.1751 15.7275 18.8456C15.4891 18.7563 15.2869 18.6849 15.128 18.6302C15.1321 18.5699 15.1352 18.5161 15.1352 18.4655V17.8325C16.2555 16.9046 16.9867 15.5043 17.0621 13.9213C17.7916 13.8466 18.365 13.2342 18.365 12.483C18.365 12.1032 18.2156 11.7597 17.9764 11.5006C18.5257 9.91231 18.5237 8.56523 17.9569 7.49948C17.4311 6.51065 16.5603 6.02754 16.053 5.81896C16.5322 4.78309 16.2236 3.81333 16.2091 3.76809C16.1711 3.65314 16.0733 3.56852 15.9544 3.54764C15.8335 3.52676 15.7141 3.57291 15.6394 3.66764C15.3688 4.0103 15.071 4.20262 14.8123 4.30965C15.6961 2.76805 15.4704 1.34202 15.4589 1.27366C15.4363 1.13827 15.3312 1.03101 15.1961 1.00573C15.0594 0.980017 14.9242 1.04244 14.8534 1.16047C14.0081 2.57771 13.558 3.03927 13.179 3.27334C13.2542 2.51948 12.9071 1.80185 12.8871 1.76095C12.8252 1.63566 12.699 1.56445 12.5517 1.58006C12.4128 1.59764 12.3001 1.70094 12.2715 1.83765C12.1267 2.52231 11.9216 2.87927 8.24427 4.85541C4.71662 6.75222 5.50874 10.3507 5.85951 11.4707C5.59532 11.7375 5.43729 12.0971 5.43729 12.4833C5.43729 13.2317 6.00587 13.8422 6.73143 13.9207C6.7655 15.3006 7.3462 16.6281 8.34561 17.5796C8.44781 17.6767 8.55463 17.7668 8.66277 17.8545V18.4655C8.66277 18.5157 8.66585 18.5728 8.66958 18.6297C8.51617 18.6827 8.31352 18.755 8.07372 18.846C8.0735 18.846 8.07328 18.8462 8.07306 18.8465C7.15827 19.1803 5.40303 19.8766 3.89153 20.794C2.33846 21.7466 1.28632 23.2988 1.00415 25.0527C0.984145 25.1776 1.03755 25.3031 1.14174 25.375C4.64282 27.7918 8.20266 29 11.797 29C15.3895 29 19.016 27.7927 22.6514 25.3785C22.7587 25.3073 22.8143 25.1798 22.7938 25.053L22.7939 25.0527ZM17.0749 13.2592V11.7031C17.436 11.7772 17.7088 12.0987 17.7088 12.4831C17.7088 12.866 17.4297 13.1843 17.0749 13.2592ZM8.55554 5.43307C11.0381 4.09871 12.0566 3.44877 12.5224 2.86016C12.5531 3.15425 12.5232 3.476 12.3373 3.72813C12.2459 3.8521 12.2531 4.0231 12.354 4.13893C12.4553 4.2552 12.6237 4.28377 12.7586 4.21124C13.3422 3.89276 13.7787 3.94024 14.7724 2.50743C14.6719 3.09294 14.4244 3.83695 13.8492 4.56403C13.7745 4.65855 13.7574 4.7858 13.8048 4.89658C13.8519 5.00736 13.9556 5.0834 14.0754 5.09439C14.1143 5.09791 14.8972 5.16363 15.6652 4.56447C15.6674 4.91284 15.5955 5.37218 15.3019 5.82299C15.2438 5.91223 15.2326 6.02432 15.272 6.12345C15.3113 6.22213 15.3964 6.2962 15.4997 6.32082C15.5124 6.32434 16.754 6.63622 17.3771 7.80818C17.8365 8.67153 17.8438 9.78742 17.411 11.1235C17.2558 11.0666 17.0905 11.0306 16.916 11.0306C16.9118 11.0306 16.9081 11.0319 16.9039 11.0319C16.3305 9.58188 15.0166 8.17589 14.9552 8.11062C14.8856 8.03633 14.7842 7.99699 14.6842 8.00929C14.5833 8.01918 14.4923 8.07501 14.4385 8.16095C13.962 8.9179 11.9285 9.01705 10.1345 9.10409C9.79781 9.12036 9.46063 9.13662 9.12899 9.15662C7.93135 9.23047 7.10778 9.90064 6.78317 11.04C6.66668 11.0495 6.55107 11.0752 6.4381 11.1119C6.11413 9.97206 5.61874 7.01214 8.55559 5.4329L8.55554 5.43307ZM6.09387 12.4833C6.09387 12.2204 6.21476 11.985 6.43191 11.8336C6.51719 11.7714 6.61983 11.729 6.72511 11.7061V13.2631C6.36509 13.1884 6.09385 12.8671 6.09385 12.4833L6.09387 12.4833ZM7.38143 13.7939V11.316C7.61177 10.377 8.2131 9.87106 9.16919 9.81238C9.49778 9.79237 9.83252 9.77611 10.1666 9.75985C12.0668 9.66753 13.8737 9.57984 14.7185 8.83257C15.166 9.35524 16.1091 10.5454 16.4182 11.6292V13.6533C16.4182 15.1894 15.7137 16.5517 14.6187 17.4078C14.5996 17.4216 14.5809 17.4344 14.5651 17.4518C13.8747 17.9746 13.0349 18.2991 12.1184 18.3408C10.8799 18.405 9.69916 17.9621 8.79822 17.1045C7.88456 16.2343 7.38142 15.0587 7.38142 13.794L7.38143 13.7939ZM12.1491 18.9964C12.9975 18.9577 13.7886 18.708 14.4787 18.2994V18.4656C14.4787 18.5096 14.4697 18.6926 14.4492 18.7759C14.4077 18.9421 14.5299 19.1226 14.6928 19.1764C14.8682 19.2347 15.0297 19.2898 15.2273 19.361C14.7763 21.0226 13.2615 21.7699 11.9008 21.7699C10.5401 21.7699 9.02479 21.022 8.5742 19.3601C8.75729 19.2937 8.94566 19.2276 9.13006 19.1676C9.29512 19.1151 9.39029 18.9432 9.34853 18.7757C9.33578 18.7249 9.33007 18.6739 9.32677 18.6177C9.32282 18.5647 9.31908 18.5113 9.31908 18.4656V18.3056C10.1756 18.8049 11.1465 19.046 12.1491 18.9963L12.1491 18.9964ZM1.68857 24.9539C1.98596 23.4728 2.90534 22.1687 4.23352 21.3542C5.52653 20.5693 7.0117 19.9492 7.9581 19.5895C8.51879 21.5348 10.3501 22.4263 11.9007 22.4263C13.5041 22.4263 15.2881 21.5445 15.8445 19.5888C16.7865 19.9444 18.2701 20.562 19.5631 21.3535C20.8905 22.165 21.809 23.4672 22.1081 24.9497C15.2025 29.459 8.33397 29.4598 1.68829 24.9539L1.68857 24.9539Z"/>
</mask>
<path d="M22.7939 25.0527C22.511 23.2953 21.4584 21.7431 19.906 20.794C18.3936 19.8683 16.6366 19.1751 15.7275 18.8456C15.4891 18.7563 15.2869 18.6849 15.128 18.6302C15.1321 18.5699 15.1352 18.5161 15.1352 18.4655V17.8325C16.2555 16.9046 16.9867 15.5043 17.0621 13.9213C17.7916 13.8466 18.365 13.2342 18.365 12.483C18.365 12.1032 18.2156 11.7597 17.9764 11.5006C18.5257 9.91231 18.5237 8.56523 17.9569 7.49948C17.4311 6.51065 16.5603 6.02754 16.053 5.81896C16.5322 4.78309 16.2236 3.81333 16.2091 3.76809C16.1711 3.65314 16.0733 3.56852 15.9544 3.54764C15.8335 3.52676 15.7141 3.57291 15.6394 3.66764C15.3688 4.0103 15.071 4.20262 14.8123 4.30965C15.6961 2.76805 15.4704 1.34202 15.4589 1.27366C15.4363 1.13827 15.3312 1.03101 15.1961 1.00573C15.0594 0.980017 14.9242 1.04244 14.8534 1.16047C14.0081 2.57771 13.558 3.03927 13.179 3.27334C13.2542 2.51948 12.9071 1.80185 12.8871 1.76095C12.8252 1.63566 12.699 1.56445 12.5517 1.58006C12.4128 1.59764 12.3001 1.70094 12.2715 1.83765C12.1267 2.52231 11.9216 2.87927 8.24427 4.85541C4.71662 6.75222 5.50874 10.3507 5.85951 11.4707C5.59532 11.7375 5.43729 12.0971 5.43729 12.4833C5.43729 13.2317 6.00587 13.8422 6.73143 13.9207C6.7655 15.3006 7.3462 16.6281 8.34561 17.5796C8.44781 17.6767 8.55463 17.7668 8.66277 17.8545V18.4655C8.66277 18.5157 8.66585 18.5728 8.66958 18.6297C8.51617 18.6827 8.31352 18.755 8.07372 18.846C8.0735 18.846 8.07328 18.8462 8.07306 18.8465C7.15827 19.1803 5.40303 19.8766 3.89153 20.794C2.33846 21.7466 1.28632 23.2988 1.00415 25.0527C0.984145 25.1776 1.03755 25.3031 1.14174 25.375C4.64282 27.7918 8.20266 29 11.797 29C15.3895 29 19.016 27.7927 22.6514 25.3785C22.7587 25.3073 22.8143 25.1798 22.7938 25.053L22.7939 25.0527ZM17.0749 13.2592V11.7031C17.436 11.7772 17.7088 12.0987 17.7088 12.4831C17.7088 12.866 17.4297 13.1843 17.0749 13.2592ZM8.55554 5.43307C11.0381 4.09871 12.0566 3.44877 12.5224 2.86016C12.5531 3.15425 12.5232 3.476 12.3373 3.72813C12.2459 3.8521 12.2531 4.0231 12.354 4.13893C12.4553 4.2552 12.6237 4.28377 12.7586 4.21124C13.3422 3.89276 13.7787 3.94024 14.7724 2.50743C14.6719 3.09294 14.4244 3.83695 13.8492 4.56403C13.7745 4.65855 13.7574 4.7858 13.8048 4.89658C13.8519 5.00736 13.9556 5.0834 14.0754 5.09439C14.1143 5.09791 14.8972 5.16363 15.6652 4.56447C15.6674 4.91284 15.5955 5.37218 15.3019 5.82299C15.2438 5.91223 15.2326 6.02432 15.272 6.12345C15.3113 6.22213 15.3964 6.2962 15.4997 6.32082C15.5124 6.32434 16.754 6.63622 17.3771 7.80818C17.8365 8.67153 17.8438 9.78742 17.411 11.1235C17.2558 11.0666 17.0905 11.0306 16.916 11.0306C16.9118 11.0306 16.9081 11.0319 16.9039 11.0319C16.3305 9.58188 15.0166 8.17589 14.9552 8.11062C14.8856 8.03633 14.7842 7.99699 14.6842 8.00929C14.5833 8.01918 14.4923 8.07501 14.4385 8.16095C13.962 8.9179 11.9285 9.01705 10.1345 9.10409C9.79781 9.12036 9.46063 9.13662 9.12899 9.15662C7.93135 9.23047 7.10778 9.90064 6.78317 11.04C6.66668 11.0495 6.55107 11.0752 6.4381 11.1119C6.11413 9.97206 5.61874 7.01214 8.55559 5.4329L8.55554 5.43307ZM6.09387 12.4833C6.09387 12.2204 6.21476 11.985 6.43191 11.8336C6.51719 11.7714 6.61983 11.729 6.72511 11.7061V13.2631C6.36509 13.1884 6.09385 12.8671 6.09385 12.4833L6.09387 12.4833ZM7.38143 13.7939V11.316C7.61177 10.377 8.2131 9.87106 9.16919 9.81238C9.49778 9.79237 9.83252 9.77611 10.1666 9.75985C12.0668 9.66753 13.8737 9.57984 14.7185 8.83257C15.166 9.35524 16.1091 10.5454 16.4182 11.6292V13.6533C16.4182 15.1894 15.7137 16.5517 14.6187 17.4078C14.5996 17.4216 14.5809 17.4344 14.5651 17.4518C13.8747 17.9746 13.0349 18.2991 12.1184 18.3408C10.8799 18.405 9.69916 17.9621 8.79822 17.1045C7.88456 16.2343 7.38142 15.0587 7.38142 13.794L7.38143 13.7939ZM12.1491 18.9964C12.9975 18.9577 13.7886 18.708 14.4787 18.2994V18.4656C14.4787 18.5096 14.4697 18.6926 14.4492 18.7759C14.4077 18.9421 14.5299 19.1226 14.6928 19.1764C14.8682 19.2347 15.0297 19.2898 15.2273 19.361C14.7763 21.0226 13.2615 21.7699 11.9008 21.7699C10.5401 21.7699 9.02479 21.022 8.5742 19.3601C8.75729 19.2937 8.94566 19.2276 9.13006 19.1676C9.29512 19.1151 9.39029 18.9432 9.34853 18.7757C9.33578 18.7249 9.33007 18.6739 9.32677 18.6177C9.32282 18.5647 9.31908 18.5113 9.31908 18.4656V18.3056C10.1756 18.8049 11.1465 19.046 12.1491 18.9963L12.1491 18.9964ZM1.68857 24.9539C1.98596 23.4728 2.90534 22.1687 4.23352 21.3542C5.52653 20.5693 7.0117 19.9492 7.9581 19.5895C8.51879 21.5348 10.3501 22.4263 11.9007 22.4263C13.5041 22.4263 15.2881 21.5445 15.8445 19.5888C16.7865 19.9444 18.2701 20.562 19.5631 21.3535C20.8905 22.165 21.809 23.4672 22.1081 24.9497C15.2025 29.459 8.33397 29.4598 1.68829 24.9539L1.68857 24.9539Z" fill="#9D252F"/>
<path d="M22.7939 25.0527C22.511 23.2953 21.4584 21.7431 19.906 20.794C18.3936 19.8683 16.6366 19.1751 15.7275 18.8456C15.4891 18.7563 15.2869 18.6849 15.128 18.6302C15.1321 18.5699 15.1352 18.5161 15.1352 18.4655V17.8325C16.2555 16.9046 16.9867 15.5043 17.0621 13.9213C17.7916 13.8466 18.365 13.2342 18.365 12.483C18.365 12.1032 18.2156 11.7597 17.9764 11.5006C18.5257 9.91231 18.5237 8.56523 17.9569 7.49948C17.4311 6.51065 16.5603 6.02754 16.053 5.81896C16.5322 4.78309 16.2236 3.81333 16.2091 3.76809C16.1711 3.65314 16.0733 3.56852 15.9544 3.54764C15.8335 3.52676 15.7141 3.57291 15.6394 3.66764C15.3688 4.0103 15.071 4.20262 14.8123 4.30965C15.6961 2.76805 15.4704 1.34202 15.4589 1.27366C15.4363 1.13827 15.3312 1.03101 15.1961 1.00573C15.0594 0.980017 14.9242 1.04244 14.8534 1.16047C14.0081 2.57771 13.558 3.03927 13.179 3.27334C13.2542 2.51948 12.9071 1.80185 12.8871 1.76095C12.8252 1.63566 12.699 1.56445 12.5517 1.58006C12.4128 1.59764 12.3001 1.70094 12.2715 1.83765C12.1267 2.52231 11.9216 2.87927 8.24427 4.85541C4.71662 6.75222 5.50874 10.3507 5.85951 11.4707C5.59532 11.7375 5.43729 12.0971 5.43729 12.4833C5.43729 13.2317 6.00587 13.8422 6.73143 13.9207C6.7655 15.3006 7.3462 16.6281 8.34561 17.5796C8.44781 17.6767 8.55463 17.7668 8.66277 17.8545V18.4655C8.66277 18.5157 8.66585 18.5728 8.66958 18.6297C8.51617 18.6827 8.31352 18.755 8.07372 18.846C8.0735 18.846 8.07328 18.8462 8.07306 18.8465C7.15827 19.1803 5.40303 19.8766 3.89153 20.794C2.33846 21.7466 1.28632 23.2988 1.00415 25.0527C0.984145 25.1776 1.03755 25.3031 1.14174 25.375C4.64282 27.7918 8.20266 29 11.797 29C15.3895 29 19.016 27.7927 22.6514 25.3785C22.7587 25.3073 22.8143 25.1798 22.7938 25.053L22.7939 25.0527ZM17.0749 13.2592V11.7031C17.436 11.7772 17.7088 12.0987 17.7088 12.4831C17.7088 12.866 17.4297 13.1843 17.0749 13.2592ZM8.55554 5.43307C11.0381 4.09871 12.0566 3.44877 12.5224 2.86016C12.5531 3.15425 12.5232 3.476 12.3373 3.72813C12.2459 3.8521 12.2531 4.0231 12.354 4.13893C12.4553 4.2552 12.6237 4.28377 12.7586 4.21124C13.3422 3.89276 13.7787 3.94024 14.7724 2.50743C14.6719 3.09294 14.4244 3.83695 13.8492 4.56403C13.7745 4.65855 13.7574 4.7858 13.8048 4.89658C13.8519 5.00736 13.9556 5.0834 14.0754 5.09439C14.1143 5.09791 14.8972 5.16363 15.6652 4.56447C15.6674 4.91284 15.5955 5.37218 15.3019 5.82299C15.2438 5.91223 15.2326 6.02432 15.272 6.12345C15.3113 6.22213 15.3964 6.2962 15.4997 6.32082C15.5124 6.32434 16.754 6.63622 17.3771 7.80818C17.8365 8.67153 17.8438 9.78742 17.411 11.1235C17.2558 11.0666 17.0905 11.0306 16.916 11.0306C16.9118 11.0306 16.9081 11.0319 16.9039 11.0319C16.3305 9.58188 15.0166 8.17589 14.9552 8.11062C14.8856 8.03633 14.7842 7.99699 14.6842 8.00929C14.5833 8.01918 14.4923 8.07501 14.4385 8.16095C13.962 8.9179 11.9285 9.01705 10.1345 9.10409C9.79781 9.12036 9.46063 9.13662 9.12899 9.15662C7.93135 9.23047 7.10778 9.90064 6.78317 11.04C6.66668 11.0495 6.55107 11.0752 6.4381 11.1119C6.11413 9.97206 5.61874 7.01214 8.55559 5.4329L8.55554 5.43307ZM6.09387 12.4833C6.09387 12.2204 6.21476 11.985 6.43191 11.8336C6.51719 11.7714 6.61983 11.729 6.72511 11.7061V13.2631C6.36509 13.1884 6.09385 12.8671 6.09385 12.4833L6.09387 12.4833ZM7.38143 13.7939V11.316C7.61177 10.377 8.2131 9.87106 9.16919 9.81238C9.49778 9.79237 9.83252 9.77611 10.1666 9.75985C12.0668 9.66753 13.8737 9.57984 14.7185 8.83257C15.166 9.35524 16.1091 10.5454 16.4182 11.6292V13.6533C16.4182 15.1894 15.7137 16.5517 14.6187 17.4078C14.5996 17.4216 14.5809 17.4344 14.5651 17.4518C13.8747 17.9746 13.0349 18.2991 12.1184 18.3408C10.8799 18.405 9.69916 17.9621 8.79822 17.1045C7.88456 16.2343 7.38142 15.0587 7.38142 13.794L7.38143 13.7939ZM12.1491 18.9964C12.9975 18.9577 13.7886 18.708 14.4787 18.2994V18.4656C14.4787 18.5096 14.4697 18.6926 14.4492 18.7759C14.4077 18.9421 14.5299 19.1226 14.6928 19.1764C14.8682 19.2347 15.0297 19.2898 15.2273 19.361C14.7763 21.0226 13.2615 21.7699 11.9008 21.7699C10.5401 21.7699 9.02479 21.022 8.5742 19.3601C8.75729 19.2937 8.94566 19.2276 9.13006 19.1676C9.29512 19.1151 9.39029 18.9432 9.34853 18.7757C9.33578 18.7249 9.33007 18.6739 9.32677 18.6177C9.32282 18.5647 9.31908 18.5113 9.31908 18.4656V18.3056C10.1756 18.8049 11.1465 19.046 12.1491 18.9963L12.1491 18.9964ZM1.68857 24.9539C1.98596 23.4728 2.90534 22.1687 4.23352 21.3542C5.52653 20.5693 7.0117 19.9492 7.9581 19.5895C8.51879 21.5348 10.3501 22.4263 11.9007 22.4263C13.5041 22.4263 15.2881 21.5445 15.8445 19.5888C16.7865 19.9444 18.2701 20.562 19.5631 21.3535C20.8905 22.165 21.809 23.4672 22.1081 24.9497C15.2025 29.459 8.33397 29.4598 1.68829 24.9539L1.68857 24.9539Z" stroke="#9D252F" stroke-width="0.2" mask="url(#path-1-outside-1_1_132)"/>
<path d="M12.5802 13.9637L12.5802 13.9637C12.7278 14.1116 12.7279 14.3509 12.5802 14.4986C12.3926 14.6862 12.1461 14.7799 11.9 14.7799L12.5802 13.9637ZM12.5802 13.9637C12.4325 13.816 12.1932 13.8161 12.0454 13.9636C11.9648 14.0439 11.8344 14.0441 11.754 13.9637C11.6063 13.816 11.367 13.8161 11.2191 13.9637L11.2191 13.9637M12.5802 13.9637L11.2191 13.9637M11.2191 13.9637C11.0714 14.1114 11.0715 14.3507 11.2191 14.4986L11.2191 14.4987M11.2191 13.9637L11.2191 14.4987M11.2191 14.4987C11.4069 14.686 11.6534 14.7799 11.9 14.7799L11.2191 14.4987Z" fill="#9D252F" stroke="#9D252F" stroke-width="0.1"/>
<path d="M10.5302 12.4417C10.479 12.4711 10.4234 12.4848 10.3682 12.4848C10.2541 12.4848 10.1429 12.4254 10.0827 12.319L10.0392 12.3438C10.0392 12.3437 10.0392 12.3437 10.0392 12.3437C9.97233 12.2263 9.84315 12.165 9.70978 12.165C9.57638 12.1649 9.44721 12.2261 9.38039 12.3437L9.36437 12.3719L9.36277 12.3718L8.76698 11.9942C8.96217 11.6504 9.31471 11.4458 9.70967 11.4458C10.1049 11.4458 10.4574 11.6506 10.6528 11.9942C10.7425 12.152 10.6878 12.352 10.5302 12.4417ZM10.5302 12.4417L10.5549 12.4851C10.5549 12.4851 10.555 12.4851 10.555 12.4851C10.555 12.4851 10.5551 12.485 10.5551 12.485L10.5302 12.4417ZM8.7235 11.9695C8.62022 12.151 8.68329 12.3815 8.86484 12.4851L8.7235 11.9695Z" fill="#9D252F" stroke="#9D252F" stroke-width="0.1"/>
<path d="M15.0762 11.9695L15.0762 11.9695C15.1795 12.1512 15.1165 12.3817 14.9349 12.4851C14.8758 12.5191 14.8116 12.5348 14.7481 12.5348C14.617 12.5348 14.4886 12.4665 14.4191 12.3437M15.0762 11.9695L14.4626 12.319M15.0762 11.9695C14.8719 11.6103 14.5028 11.3958 14.0896 11.3958C13.6767 11.3958 13.3075 11.6101 13.1034 11.9695L13.1469 11.9942L13.1035 11.9694C12.9997 12.1512 13.0627 12.3818 13.2446 12.4852L13.2549 12.491L13.2553 12.491M15.0762 11.9695L13.2553 12.491M14.4191 12.3437L14.4626 12.319M14.4191 12.3437C14.4191 12.3437 14.4191 12.3437 14.4192 12.3438L14.4626 12.319M14.4191 12.3437C14.3523 12.2263 14.2231 12.165 14.0897 12.165C13.9563 12.1649 13.8271 12.2261 13.7603 12.3437M14.4626 12.319C14.3079 12.0472 13.8716 12.0467 13.7169 12.319M13.7603 12.3437C13.7603 12.3437 13.7603 12.3437 13.7603 12.3437L13.7169 12.319M13.7603 12.3437C13.6592 12.5219 13.4345 12.5859 13.2553 12.491M13.7603 12.3437L13.7169 12.319M13.7169 12.319L13.2553 12.491M13.2553 12.491L13.2666 12.4916L13.2667 12.4916L13.2694 12.4417L13.2693 12.4417L13.2665 12.4466L13.2665 12.4466L13.2445 12.4851C13.2446 12.4851 13.2446 12.4851 13.2446 12.4851C13.2482 12.4872 13.2517 12.4891 13.2553 12.491Z" fill="#9D252F" stroke="#9D252F" stroke-width="0.1"/>
<path d="M10.0936 14.7874L10.0933 14.7873C9.97251 14.726 9.83269 14.7438 9.7233 14.8105C9.60978 14.8797 9.54195 15.0125 9.54195 15.1429C9.54195 16.4429 10.5994 17.5003 11.8998 17.5003C13.2 17.5003 14.2572 16.4426 14.2572 15.1235C14.2572 14.9915 14.1882 14.8695 14.076 14.8005L14.076 14.8005L14.0755 14.8002C13.963 14.7328 13.8233 14.7268 13.7058 14.7874L13.699 14.7909C12.4853 15.4148 11.3082 15.4143 10.0936 14.7874ZM11.9 16.744C11.2325 16.744 10.6589 16.3332 10.419 15.7514C11.4042 16.0983 12.3964 16.0983 13.3808 15.7514C13.1411 16.3334 12.5675 16.744 11.9 16.744Z" fill="#9D252F" stroke="#9D252F" stroke-width="0.1"/>
</svg>
