<svg width="28" height="28" viewBox="0 0 28 28" fill="none" xmlns="http://www.w3.org/2000/svg">
<path d="M27.931 15.2314C27.9661 14.8221 27.9904 14.4107 27.9904 14.0007C27.9904 13.5693 27.9648 13.1392 27.9251 12.7097C27.9186 12.6367 27.9136 12.5621 27.9052 12.489C27.8614 12.0854 27.7998 11.6841 27.7216 11.2861C27.7059 11.2109 27.6899 11.1365 27.6743 11.0615C27.6485 10.9421 27.6275 10.8215 27.5984 10.7019L27.5126 10.345H27.4892C25.8964 4.47289 20.5803 0.125806 14.2365 0.0170314V0.00012207L13.7628 0.00792602C13.5542 0.0116114 13.3492 0.036108 13.1419 0.0488984C12.9173 0.0619053 12.6905 0.0681924 12.4683 0.0926888C12.214 0.120437 11.9636 0.167266 11.7115 0.208234C11.5103 0.241402 11.3063 0.266766 11.1073 0.308389C10.8313 0.366273 10.5604 0.445178 10.2881 0.519322C10.1196 0.565714 9.94901 0.603001 9.78469 0.654813C9.49962 0.744562 9.22151 0.85534 8.94247 0.963731C8.79744 1.02031 8.64851 1.06822 8.50521 1.13001C8.46988 1.14496 8.43281 1.15515 8.39791 1.17033L8.11782 1.29238V1.31601C4.41167 3.0403 1.58859 6.33416 0.500297 10.3448H0.477968L0.391903 10.7016C0.363071 10.8211 0.341826 10.9416 0.316027 11.0619C0.299769 11.1365 0.283727 11.2109 0.269202 11.2861C0.19094 11.6839 0.128506 12.0851 0.0849353 12.4891C0.0771313 12.5621 0.0719282 12.6367 0.0649911 12.7097C0.025753 13.1392 -4.57764e-05 13.5693 -4.57764e-05 14.0007C-4.57764e-05 14.4109 0.0238009 14.8221 0.0595693 15.2314C0.0704084 15.3574 0.0853665 15.4831 0.0994578 15.6078C0.113549 15.7333 0.121786 15.8594 0.139346 15.9839L0.196575 16.3845H0.214568C0.698213 19.2155 2.02732 21.8245 4.09847 23.8966C5.28106 25.0792 6.64506 26.0098 8.11856 26.6931V26.7096L8.39865 26.8316C8.42098 26.8418 8.44548 26.8483 8.46802 26.8587C8.76524 26.9858 9.06872 27.0953 9.37462 27.2019C9.50556 27.2479 9.63498 27.3003 9.76744 27.3417C10.0434 27.4287 10.3246 27.4985 10.6059 27.5676C10.7753 27.6101 10.9422 27.6589 11.1132 27.6947C11.3669 27.7476 11.6242 27.7833 11.8809 27.8217C12.0814 27.8512 12.2802 27.8885 12.4831 27.9104C12.7289 27.936 12.9789 27.9448 13.2278 27.9591C13.4062 27.9678 13.5835 27.9912 13.7632 27.9936L14.2369 28.0001V27.9845C17.8846 27.9229 21.3061 26.4824 23.8923 23.8968C25.9639 21.8246 27.2932 19.2155 27.7768 16.3847H27.7948L27.8521 15.9841C27.8694 15.8599 27.8772 15.7337 27.892 15.608C27.9052 15.4829 27.9195 15.3574 27.931 15.2314L27.931 15.2314ZM27.0021 15.1748C26.9962 15.2377 26.993 15.3008 26.9858 15.3626C26.9834 15.3933 26.9763 15.4228 26.973 15.4523H13.3047V27.0307C13.1885 27.0242 13.071 27.0215 12.9554 27.0127C12.7982 27.0012 12.6409 26.9869 12.4843 26.9689C12.2361 26.9407 11.9898 26.9021 11.7447 26.8594C11.5905 26.8327 11.4366 26.8093 11.2838 26.7774C11.0423 26.7259 10.8043 26.6619 10.5658 26.5975C10.4151 26.5565 10.2616 26.5221 10.112 26.4757C9.8404 26.392 9.57527 26.2905 9.31076 26.1891C9.22405 26.1559 9.13604 26.1303 9.05105 26.0952L9.05084 15.4526H1.01764C1.01526 15.4231 1.0081 15.3936 1.00485 15.3628C0.99835 15.3012 0.994665 15.2382 0.989245 15.1751C0.954776 14.7872 0.931361 14.3953 0.931361 14.0005C0.931361 13.5477 0.955859 13.0946 1.00246 12.6452C1.01395 12.5325 1.0391 12.4239 1.05319 12.312C1.09612 11.9814 1.1412 11.6517 1.20928 11.3252C1.21231 11.3085 1.21838 11.2929 1.22142 11.2764L9.05094 11.2766V1.91596C9.7648 1.6233 10.5088 1.38938 11.2789 1.22591C11.3933 1.20206 11.5095 1.18559 11.6236 1.16347C11.9032 1.11209 12.1846 1.06765 12.4705 1.03449C12.6212 1.01714 12.773 1.00435 12.9249 0.991563C13.0502 0.981374 13.1779 0.979206 13.3043 0.972269V11.277H26.7684C26.7726 11.2936 26.7775 11.3093 26.7812 11.3257C26.8491 11.6518 26.8944 11.9817 26.9367 12.3125C26.9516 12.4242 26.9765 12.5326 26.9883 12.6457C27.0342 13.0951 27.0587 13.5482 27.0587 14.0011C27.0589 14.3954 27.0359 14.7874 27.0021 15.1752L27.0021 15.1748ZM26.5286 10.3446H14.2366V0.949559C20.0626 1.05687 24.9636 4.99129 26.5286 10.3446ZM8.11858 2.34975V10.3446H1.46227C2.48291 6.85117 4.92478 3.96749 8.11858 2.34975ZM4.75712 23.2383C2.86284 21.3432 1.62915 18.9652 1.15548 16.3844H8.11869V25.6624C6.89387 25.0433 5.7564 24.2368 4.75724 23.2383H4.75712ZM23.2326 23.2383C20.8224 25.6481 17.6352 26.991 14.236 27.0526V16.3844H26.8349C26.3611 18.965 25.1273 21.3429 23.2324 23.2383H23.2326Z" fill="#9D252F"/>
</svg>
