<svg width="28" height="26" viewBox="0 0 28 26" fill="none" xmlns="http://www.w3.org/2000/svg">
<path d="M25.3682 23.6132C25.2166 23.6132 25.0708 23.5549 24.9541 23.444L20.0021 18.4921C19.7747 18.2646 19.7747 17.8971 20.0021 17.6696C20.2296 17.4421 20.5971 17.4422 20.8246 17.6696L25.7765 22.6216C26.004 22.8491 26.004 23.2165 25.7765 23.444C25.6657 23.5549 25.5141 23.6132 25.3683 23.6132H25.3682Z" fill="#9D252F"/>
<path d="M20.4162 18.6607C20.1071 18.6607 19.8505 18.4157 19.8329 18.1065C19.8213 17.7857 20.0662 17.5116 20.387 17.4999L27.3805 17.185C27.7013 17.1733 27.9754 17.4183 27.9871 17.7391C27.9988 18.0599 27.7538 18.334 27.4329 18.3457L20.4454 18.6607H20.4162H20.4162Z" fill="#9D252F"/>
<path d="M20.7314 25.6545C20.4223 25.6545 20.1657 25.4096 20.1481 25.1004L19.8332 18.107C19.8215 17.7862 20.0665 17.5121 20.3873 17.5004C20.7081 17.4829 20.9822 17.7337 20.9939 18.0545L21.3089 25.0479C21.3205 25.3687 21.0756 25.6429 20.7547 25.6545H20.7314H20.7314Z" fill="#9D252F"/>
<path d="M21.2383 17.8385C21.1917 17.8385 21.1392 17.8326 21.0867 17.821C20.7775 17.7393 20.5909 17.4185 20.6725 17.1094C20.8884 16.2869 20.9992 15.4353 20.9992 14.5779C20.9992 9.11288 16.5488 4.66214 11.0834 4.66214C10.7218 4.66214 10.3485 4.68547 9.98686 4.72047C9.66606 4.75546 9.38026 4.52215 9.34527 4.20719C9.31028 3.88639 9.54359 3.60058 9.85856 3.5656C10.2668 3.51894 10.681 3.49561 11.0834 3.49561C17.1959 3.49561 22.1655 8.46513 22.1655 14.5777C22.1655 15.5343 22.043 16.485 21.8039 17.4066C21.7339 17.669 21.4948 17.8382 21.2381 17.8382L21.2383 17.8385Z" fill="#9D252F"/>
<path d="M11.084 25.6602C4.97158 25.6602 0.00195312 20.6907 0.00195312 14.5781C0.00195312 11.6268 1.15101 8.85019 3.22744 6.7624C3.45491 6.53493 3.82236 6.53493 4.04986 6.7624C4.27736 6.98988 4.27734 7.35733 4.04986 7.58483C2.19506 9.4513 1.1685 11.9361 1.1685 14.5782C1.1685 20.0433 5.61887 24.494 11.0843 24.494C12.7991 24.494 14.4906 24.0508 15.9721 23.205C16.2521 23.0475 16.6079 23.1467 16.7654 23.4266C16.9228 23.7066 16.8237 24.0624 16.5437 24.2199C14.8931 25.1648 13.0032 25.6606 11.084 25.6606L11.084 25.6602Z" fill="#9D252F"/>
<path d="M4.42906 7.83557C3.76411 7.83557 3.09916 7.68975 2.48675 7.39228C1.06353 6.69816 0.112801 5.29249 0.00198611 3.7118C-0.0155118 3.50182 0.0836418 3.30351 0.258627 3.18685C1.57097 2.30027 3.26835 2.18365 4.69151 2.87189C5.39144 3.21602 5.99223 3.73516 6.42968 4.38256C6.61049 4.65086 6.5405 5.01247 6.2722 5.1933C6.00389 5.37414 5.64229 5.30412 5.46145 5.03582C5.14065 4.56337 4.69737 4.17841 4.17828 3.92175C3.23336 3.46096 2.12515 3.49012 1.2094 3.97424C1.39605 4.99499 2.05513 5.88738 3.00005 6.34232C4.04997 6.84977 5.29816 6.76228 6.2722 6.10901C6.5405 5.9282 6.9021 5.99819 7.08294 6.26649C7.26377 6.5348 7.19376 6.8964 6.92546 7.07724C6.17887 7.57885 5.30397 7.83551 4.42907 7.83551L4.42906 7.83557Z" fill="#9D252F"/>
<path d="M6.59851 7.17627C6.40603 7.17627 6.22522 7.08295 6.1144 6.91963C5.22782 5.60728 5.11119 3.90991 5.79943 2.48675C6.48767 1.06358 7.89922 0.112802 9.47991 0.00198612C9.68989 -0.0155118 9.8882 0.0836416 10.0049 0.258626C10.8914 1.57097 11.0081 3.26835 10.3198 4.69151C9.62571 6.11472 8.22004 7.06545 6.63935 7.17627H6.59852H6.59851ZM9.21739 1.20354C8.19664 1.39019 7.30426 2.04927 6.84932 2.99419C6.38853 3.93911 6.41769 5.04731 6.90181 5.96306C7.92256 5.77641 8.81495 5.11733 9.26989 4.17242C9.73067 3.23336 9.70734 2.1251 9.21739 1.20354Z" fill="#9D252F"/>
<path d="M20.4162 25.6542C18.4739 25.6542 16.5316 24.9134 15.0556 23.4377C14.8282 23.2103 14.8282 22.8428 15.0556 22.6153L24.9538 12.7171C25.0647 12.6063 25.2105 12.548 25.368 12.548C25.5254 12.548 25.6713 12.6121 25.7821 12.7171C28.7393 15.6743 28.7393 20.4865 25.7821 23.4376C24.3006 24.9191 22.3583 25.654 20.4162 25.654L20.4162 25.6542ZM16.3099 23.0061C18.8297 25.1059 22.5919 24.9776 24.9538 22.6095C27.3161 20.2472 27.4502 16.4853 25.3505 13.9656L16.3099 23.0061Z" fill="#9D252F"/>
<path d="M11.6673 22.7434C6.84358 22.7434 2.91828 18.818 2.91828 13.9944C2.91828 13.6736 3.18075 13.4111 3.50158 13.4111C3.8224 13.4111 4.08488 13.6736 4.08488 13.9944C4.08488 18.1765 7.48538 21.5771 11.6676 21.5771C11.9884 21.5771 12.2509 21.8396 12.2509 22.1604C12.2509 22.4813 11.9884 22.7437 11.6676 22.7437L11.6673 22.7434Z" fill="#9D252F"/>
</svg>
