<svg width="48" height="48" viewBox="0 0 48 48" fill="none" xmlns="http://www.w3.org/2000/svg">
<circle cx="24" cy="24" r="23.5" stroke="#9D252F" stroke-opacity="0.5"/>
<mask id="path-2-outside-1_1_130" maskUnits="userSpaceOnUse" x="12" y="9" width="23" height="30" fill="black">
<rect fill="white" x="12" y="9" width="23" height="30"/>
<path d="M34.7939 34.0527C34.511 32.2953 33.4584 30.7431 31.906 29.794C30.3936 28.8683 28.6366 28.1751 27.7275 27.8456C27.4891 27.7563 27.2869 27.6849 27.128 27.6302C27.1321 27.5699 27.1352 27.5161 27.1352 27.4655V26.8325C28.2555 25.9046 28.9867 24.5043 29.0621 22.9213C29.7916 22.8466 30.365 22.2342 30.365 21.483C30.365 21.1032 30.2156 20.7597 29.9764 20.5006C30.5257 18.9123 30.5237 17.5652 29.9569 16.4995C29.4311 15.5106 28.5603 15.0275 28.053 14.819C28.5322 13.7831 28.2236 12.8133 28.2091 12.7681C28.1711 12.6531 28.0733 12.5685 27.9544 12.5476C27.8335 12.5268 27.7141 12.5729 27.6394 12.6676C27.3688 13.0103 27.071 13.2026 26.8123 13.3096C27.6961 11.768 27.4704 10.342 27.4589 10.2737C27.4363 10.1383 27.3312 10.031 27.1961 10.0057C27.0594 9.98002 26.9242 10.0424 26.8534 10.1605C26.0081 11.5777 25.558 12.0393 25.179 12.2733C25.2542 11.5195 24.9071 10.8019 24.8871 10.7609C24.8252 10.6357 24.699 10.5645 24.5517 10.5801C24.4128 10.5976 24.3001 10.7009 24.2715 10.8377C24.1267 11.5223 23.9216 11.8793 20.2443 13.8554C16.7166 15.7522 17.5087 19.3507 17.8595 20.4707C17.5953 20.7375 17.4373 21.0971 17.4373 21.4833C17.4373 22.2317 18.0059 22.8422 18.7314 22.9207C18.7655 24.3006 19.3462 25.6281 20.3456 26.5796C20.4478 26.6767 20.5546 26.7668 20.6628 26.8545V27.4655C20.6628 27.5157 20.6658 27.5728 20.6696 27.6297C20.5162 27.6827 20.3135 27.755 20.0737 27.846C20.0735 27.846 20.0733 27.8462 20.0731 27.8465C19.1583 28.1803 17.403 28.8766 15.8915 29.794C14.3385 30.7466 13.2863 32.2988 13.0041 34.0527C12.9841 34.1776 13.0376 34.3031 13.1417 34.375C16.6428 36.7918 20.2027 38 23.797 38C27.3895 38 31.016 36.7927 34.6514 34.3785C34.7587 34.3073 34.8143 34.1798 34.7938 34.053L34.7939 34.0527ZM29.0749 22.2592V20.7031C29.436 20.7772 29.7088 21.0987 29.7088 21.4831C29.7088 21.866 29.4297 22.1843 29.0749 22.2592ZM20.5555 14.4331C23.0381 13.0987 24.0566 12.4488 24.5224 11.8602C24.5531 12.1542 24.5232 12.476 24.3373 12.7281C24.2459 12.8521 24.2531 13.0231 24.354 13.1389C24.4553 13.2552 24.6237 13.2838 24.7586 13.2112C25.3422 12.8928 25.7787 12.9402 26.7724 11.5074C26.6719 12.0929 26.4244 12.837 25.8492 13.564C25.7745 13.6585 25.7574 13.7858 25.8048 13.8966C25.8519 14.0074 25.9556 14.0834 26.0754 14.0944C26.1143 14.0979 26.8972 14.1636 27.6652 13.5645C27.6674 13.9128 27.5955 14.3722 27.3019 14.823C27.2438 14.9122 27.2326 15.0243 27.272 15.1234C27.3113 15.2221 27.3964 15.2962 27.4997 15.3208C27.5124 15.3243 28.754 15.6362 29.3771 16.8082C29.8365 17.6715 29.8438 18.7874 29.411 20.1235C29.2558 20.0666 29.0905 20.0306 28.916 20.0306C28.9118 20.0306 28.9081 20.0319 28.9039 20.0319C28.3305 18.5819 27.0166 17.1759 26.9552 17.1106C26.8856 17.0363 26.7842 16.997 26.6842 17.0093C26.5833 17.0192 26.4923 17.075 26.4385 17.1609C25.962 17.9179 23.9285 18.017 22.1345 18.1041C21.7978 18.1204 21.4606 18.1366 21.129 18.1566C19.9314 18.2305 19.1078 18.9006 18.7832 20.04C18.6667 20.0495 18.5511 20.0752 18.4381 20.1119C18.1141 18.9721 17.6187 16.0121 20.5556 14.4329L20.5555 14.4331ZM18.0939 21.4833C18.0939 21.2204 18.2148 20.985 18.4319 20.8336C18.5172 20.7714 18.6198 20.729 18.7251 20.7061V22.2631C18.3651 22.1884 18.0939 21.8671 18.0939 21.4833L18.0939 21.4833ZM19.3814 22.7939V20.316C19.6118 19.377 20.2131 18.8711 21.1692 18.8124C21.4978 18.7924 21.8325 18.7761 22.1666 18.7598C24.0668 18.6675 25.8737 18.5798 26.7185 17.8326C27.166 18.3552 28.1091 19.5454 28.4182 20.6292V22.6533C28.4182 24.1894 27.7137 25.5517 26.6187 26.4078C26.5996 26.4216 26.5809 26.4344 26.5651 26.4518C25.8747 26.9746 25.0349 27.2991 24.1184 27.3408C22.8799 27.405 21.6992 26.9621 20.7982 26.1045C19.8846 25.2343 19.3814 24.0587 19.3814 22.794L19.3814 22.7939ZM24.1491 27.9964C24.9975 27.9577 25.7886 27.708 26.4787 27.2994V27.4656C26.4787 27.5096 26.4697 27.6926 26.4492 27.7759C26.4077 27.9421 26.5299 28.1226 26.6928 28.1764C26.8682 28.2347 27.0297 28.2898 27.2273 28.361C26.7763 30.0226 25.2615 30.7699 23.9008 30.7699C22.5401 30.7699 21.0248 30.022 20.5742 28.3601C20.7573 28.2937 20.9457 28.2276 21.1301 28.1676C21.2951 28.1151 21.3903 27.9432 21.3485 27.7757C21.3358 27.7249 21.3301 27.6739 21.3268 27.6177C21.3228 27.5647 21.3191 27.5113 21.3191 27.4656V27.3056C22.1756 27.8049 23.1465 28.046 24.1491 27.9963L24.1491 27.9964ZM13.6886 33.9539C13.986 32.4728 14.9053 31.1687 16.2335 30.3542C17.5265 29.5693 19.0117 28.9492 19.9581 28.5895C20.5188 30.5348 22.3501 31.4263 23.9007 31.4263C25.5041 31.4263 27.2881 30.5445 27.8445 28.5888C28.7865 28.9444 30.2701 29.562 31.5631 30.3535C32.8905 31.165 33.809 32.4672 34.1081 33.9497C27.2025 38.459 20.334 38.4598 13.6883 33.9539L13.6886 33.9539Z"/>
</mask>
<path d="M34.7939 34.0527C34.511 32.2953 33.4584 30.7431 31.906 29.794C30.3936 28.8683 28.6366 28.1751 27.7275 27.8456C27.4891 27.7563 27.2869 27.6849 27.128 27.6302C27.1321 27.5699 27.1352 27.5161 27.1352 27.4655V26.8325C28.2555 25.9046 28.9867 24.5043 29.0621 22.9213C29.7916 22.8466 30.365 22.2342 30.365 21.483C30.365 21.1032 30.2156 20.7597 29.9764 20.5006C30.5257 18.9123 30.5237 17.5652 29.9569 16.4995C29.4311 15.5106 28.5603 15.0275 28.053 14.819C28.5322 13.7831 28.2236 12.8133 28.2091 12.7681C28.1711 12.6531 28.0733 12.5685 27.9544 12.5476C27.8335 12.5268 27.7141 12.5729 27.6394 12.6676C27.3688 13.0103 27.071 13.2026 26.8123 13.3096C27.6961 11.768 27.4704 10.342 27.4589 10.2737C27.4363 10.1383 27.3312 10.031 27.1961 10.0057C27.0594 9.98002 26.9242 10.0424 26.8534 10.1605C26.0081 11.5777 25.558 12.0393 25.179 12.2733C25.2542 11.5195 24.9071 10.8019 24.8871 10.7609C24.8252 10.6357 24.699 10.5645 24.5517 10.5801C24.4128 10.5976 24.3001 10.7009 24.2715 10.8377C24.1267 11.5223 23.9216 11.8793 20.2443 13.8554C16.7166 15.7522 17.5087 19.3507 17.8595 20.4707C17.5953 20.7375 17.4373 21.0971 17.4373 21.4833C17.4373 22.2317 18.0059 22.8422 18.7314 22.9207C18.7655 24.3006 19.3462 25.6281 20.3456 26.5796C20.4478 26.6767 20.5546 26.7668 20.6628 26.8545V27.4655C20.6628 27.5157 20.6658 27.5728 20.6696 27.6297C20.5162 27.6827 20.3135 27.755 20.0737 27.846C20.0735 27.846 20.0733 27.8462 20.0731 27.8465C19.1583 28.1803 17.403 28.8766 15.8915 29.794C14.3385 30.7466 13.2863 32.2988 13.0041 34.0527C12.9841 34.1776 13.0376 34.3031 13.1417 34.375C16.6428 36.7918 20.2027 38 23.797 38C27.3895 38 31.016 36.7927 34.6514 34.3785C34.7587 34.3073 34.8143 34.1798 34.7938 34.053L34.7939 34.0527ZM29.0749 22.2592V20.7031C29.436 20.7772 29.7088 21.0987 29.7088 21.4831C29.7088 21.866 29.4297 22.1843 29.0749 22.2592ZM20.5555 14.4331C23.0381 13.0987 24.0566 12.4488 24.5224 11.8602C24.5531 12.1542 24.5232 12.476 24.3373 12.7281C24.2459 12.8521 24.2531 13.0231 24.354 13.1389C24.4553 13.2552 24.6237 13.2838 24.7586 13.2112C25.3422 12.8928 25.7787 12.9402 26.7724 11.5074C26.6719 12.0929 26.4244 12.837 25.8492 13.564C25.7745 13.6585 25.7574 13.7858 25.8048 13.8966C25.8519 14.0074 25.9556 14.0834 26.0754 14.0944C26.1143 14.0979 26.8972 14.1636 27.6652 13.5645C27.6674 13.9128 27.5955 14.3722 27.3019 14.823C27.2438 14.9122 27.2326 15.0243 27.272 15.1234C27.3113 15.2221 27.3964 15.2962 27.4997 15.3208C27.5124 15.3243 28.754 15.6362 29.3771 16.8082C29.8365 17.6715 29.8438 18.7874 29.411 20.1235C29.2558 20.0666 29.0905 20.0306 28.916 20.0306C28.9118 20.0306 28.9081 20.0319 28.9039 20.0319C28.3305 18.5819 27.0166 17.1759 26.9552 17.1106C26.8856 17.0363 26.7842 16.997 26.6842 17.0093C26.5833 17.0192 26.4923 17.075 26.4385 17.1609C25.962 17.9179 23.9285 18.017 22.1345 18.1041C21.7978 18.1204 21.4606 18.1366 21.129 18.1566C19.9314 18.2305 19.1078 18.9006 18.7832 20.04C18.6667 20.0495 18.5511 20.0752 18.4381 20.1119C18.1141 18.9721 17.6187 16.0121 20.5556 14.4329L20.5555 14.4331ZM18.0939 21.4833C18.0939 21.2204 18.2148 20.985 18.4319 20.8336C18.5172 20.7714 18.6198 20.729 18.7251 20.7061V22.2631C18.3651 22.1884 18.0939 21.8671 18.0939 21.4833L18.0939 21.4833ZM19.3814 22.7939V20.316C19.6118 19.377 20.2131 18.8711 21.1692 18.8124C21.4978 18.7924 21.8325 18.7761 22.1666 18.7598C24.0668 18.6675 25.8737 18.5798 26.7185 17.8326C27.166 18.3552 28.1091 19.5454 28.4182 20.6292V22.6533C28.4182 24.1894 27.7137 25.5517 26.6187 26.4078C26.5996 26.4216 26.5809 26.4344 26.5651 26.4518C25.8747 26.9746 25.0349 27.2991 24.1184 27.3408C22.8799 27.405 21.6992 26.9621 20.7982 26.1045C19.8846 25.2343 19.3814 24.0587 19.3814 22.794L19.3814 22.7939ZM24.1491 27.9964C24.9975 27.9577 25.7886 27.708 26.4787 27.2994V27.4656C26.4787 27.5096 26.4697 27.6926 26.4492 27.7759C26.4077 27.9421 26.5299 28.1226 26.6928 28.1764C26.8682 28.2347 27.0297 28.2898 27.2273 28.361C26.7763 30.0226 25.2615 30.7699 23.9008 30.7699C22.5401 30.7699 21.0248 30.022 20.5742 28.3601C20.7573 28.2937 20.9457 28.2276 21.1301 28.1676C21.2951 28.1151 21.3903 27.9432 21.3485 27.7757C21.3358 27.7249 21.3301 27.6739 21.3268 27.6177C21.3228 27.5647 21.3191 27.5113 21.3191 27.4656V27.3056C22.1756 27.8049 23.1465 28.046 24.1491 27.9963L24.1491 27.9964ZM13.6886 33.9539C13.986 32.4728 14.9053 31.1687 16.2335 30.3542C17.5265 29.5693 19.0117 28.9492 19.9581 28.5895C20.5188 30.5348 22.3501 31.4263 23.9007 31.4263C25.5041 31.4263 27.2881 30.5445 27.8445 28.5888C28.7865 28.9444 30.2701 29.562 31.5631 30.3535C32.8905 31.165 33.809 32.4672 34.1081 33.9497C27.2025 38.459 20.334 38.4598 13.6883 33.9539L13.6886 33.9539Z" fill="#9D252F"/>
<path d="M34.7939 34.0527C34.511 32.2953 33.4584 30.7431 31.906 29.794C30.3936 28.8683 28.6366 28.1751 27.7275 27.8456C27.4891 27.7563 27.2869 27.6849 27.128 27.6302C27.1321 27.5699 27.1352 27.5161 27.1352 27.4655V26.8325C28.2555 25.9046 28.9867 24.5043 29.0621 22.9213C29.7916 22.8466 30.365 22.2342 30.365 21.483C30.365 21.1032 30.2156 20.7597 29.9764 20.5006C30.5257 18.9123 30.5237 17.5652 29.9569 16.4995C29.4311 15.5106 28.5603 15.0275 28.053 14.819C28.5322 13.7831 28.2236 12.8133 28.2091 12.7681C28.1711 12.6531 28.0733 12.5685 27.9544 12.5476C27.8335 12.5268 27.7141 12.5729 27.6394 12.6676C27.3688 13.0103 27.071 13.2026 26.8123 13.3096C27.6961 11.768 27.4704 10.342 27.4589 10.2737C27.4363 10.1383 27.3312 10.031 27.1961 10.0057C27.0594 9.98002 26.9242 10.0424 26.8534 10.1605C26.0081 11.5777 25.558 12.0393 25.179 12.2733C25.2542 11.5195 24.9071 10.8019 24.8871 10.7609C24.8252 10.6357 24.699 10.5645 24.5517 10.5801C24.4128 10.5976 24.3001 10.7009 24.2715 10.8377C24.1267 11.5223 23.9216 11.8793 20.2443 13.8554C16.7166 15.7522 17.5087 19.3507 17.8595 20.4707C17.5953 20.7375 17.4373 21.0971 17.4373 21.4833C17.4373 22.2317 18.0059 22.8422 18.7314 22.9207C18.7655 24.3006 19.3462 25.6281 20.3456 26.5796C20.4478 26.6767 20.5546 26.7668 20.6628 26.8545V27.4655C20.6628 27.5157 20.6658 27.5728 20.6696 27.6297C20.5162 27.6827 20.3135 27.755 20.0737 27.846C20.0735 27.846 20.0733 27.8462 20.0731 27.8465C19.1583 28.1803 17.403 28.8766 15.8915 29.794C14.3385 30.7466 13.2863 32.2988 13.0041 34.0527C12.9841 34.1776 13.0376 34.3031 13.1417 34.375C16.6428 36.7918 20.2027 38 23.797 38C27.3895 38 31.016 36.7927 34.6514 34.3785C34.7587 34.3073 34.8143 34.1798 34.7938 34.053L34.7939 34.0527ZM29.0749 22.2592V20.7031C29.436 20.7772 29.7088 21.0987 29.7088 21.4831C29.7088 21.866 29.4297 22.1843 29.0749 22.2592ZM20.5555 14.4331C23.0381 13.0987 24.0566 12.4488 24.5224 11.8602C24.5531 12.1542 24.5232 12.476 24.3373 12.7281C24.2459 12.8521 24.2531 13.0231 24.354 13.1389C24.4553 13.2552 24.6237 13.2838 24.7586 13.2112C25.3422 12.8928 25.7787 12.9402 26.7724 11.5074C26.6719 12.0929 26.4244 12.837 25.8492 13.564C25.7745 13.6585 25.7574 13.7858 25.8048 13.8966C25.8519 14.0074 25.9556 14.0834 26.0754 14.0944C26.1143 14.0979 26.8972 14.1636 27.6652 13.5645C27.6674 13.9128 27.5955 14.3722 27.3019 14.823C27.2438 14.9122 27.2326 15.0243 27.272 15.1234C27.3113 15.2221 27.3964 15.2962 27.4997 15.3208C27.5124 15.3243 28.754 15.6362 29.3771 16.8082C29.8365 17.6715 29.8438 18.7874 29.411 20.1235C29.2558 20.0666 29.0905 20.0306 28.916 20.0306C28.9118 20.0306 28.9081 20.0319 28.9039 20.0319C28.3305 18.5819 27.0166 17.1759 26.9552 17.1106C26.8856 17.0363 26.7842 16.997 26.6842 17.0093C26.5833 17.0192 26.4923 17.075 26.4385 17.1609C25.962 17.9179 23.9285 18.017 22.1345 18.1041C21.7978 18.1204 21.4606 18.1366 21.129 18.1566C19.9314 18.2305 19.1078 18.9006 18.7832 20.04C18.6667 20.0495 18.5511 20.0752 18.4381 20.1119C18.1141 18.9721 17.6187 16.0121 20.5556 14.4329L20.5555 14.4331ZM18.0939 21.4833C18.0939 21.2204 18.2148 20.985 18.4319 20.8336C18.5172 20.7714 18.6198 20.729 18.7251 20.7061V22.2631C18.3651 22.1884 18.0939 21.8671 18.0939 21.4833L18.0939 21.4833ZM19.3814 22.7939V20.316C19.6118 19.377 20.2131 18.8711 21.1692 18.8124C21.4978 18.7924 21.8325 18.7761 22.1666 18.7598C24.0668 18.6675 25.8737 18.5798 26.7185 17.8326C27.166 18.3552 28.1091 19.5454 28.4182 20.6292V22.6533C28.4182 24.1894 27.7137 25.5517 26.6187 26.4078C26.5996 26.4216 26.5809 26.4344 26.5651 26.4518C25.8747 26.9746 25.0349 27.2991 24.1184 27.3408C22.8799 27.405 21.6992 26.9621 20.7982 26.1045C19.8846 25.2343 19.3814 24.0587 19.3814 22.794L19.3814 22.7939ZM24.1491 27.9964C24.9975 27.9577 25.7886 27.708 26.4787 27.2994V27.4656C26.4787 27.5096 26.4697 27.6926 26.4492 27.7759C26.4077 27.9421 26.5299 28.1226 26.6928 28.1764C26.8682 28.2347 27.0297 28.2898 27.2273 28.361C26.7763 30.0226 25.2615 30.7699 23.9008 30.7699C22.5401 30.7699 21.0248 30.022 20.5742 28.3601C20.7573 28.2937 20.9457 28.2276 21.1301 28.1676C21.2951 28.1151 21.3903 27.9432 21.3485 27.7757C21.3358 27.7249 21.3301 27.6739 21.3268 27.6177C21.3228 27.5647 21.3191 27.5113 21.3191 27.4656V27.3056C22.1756 27.8049 23.1465 28.046 24.1491 27.9963L24.1491 27.9964ZM13.6886 33.9539C13.986 32.4728 14.9053 31.1687 16.2335 30.3542C17.5265 29.5693 19.0117 28.9492 19.9581 28.5895C20.5188 30.5348 22.3501 31.4263 23.9007 31.4263C25.5041 31.4263 27.2881 30.5445 27.8445 28.5888C28.7865 28.9444 30.2701 29.562 31.5631 30.3535C32.8905 31.165 33.809 32.4672 34.1081 33.9497C27.2025 38.459 20.334 38.4598 13.6883 33.9539L13.6886 33.9539Z" stroke="#9D252F" stroke-width="0.2" mask="url(#path-2-outside-1_1_130)"/>
<path d="M24.5802 22.9637L24.5802 22.9637C24.7278 23.1116 24.7279 23.3509 24.5802 23.4986C24.3926 23.6862 24.1461 23.7799 23.9 23.7799L24.5802 22.9637ZM24.5802 22.9637C24.4325 22.816 24.1932 22.8161 24.0454 22.9636C23.9648 23.0439 23.8344 23.0441 23.754 22.9637C23.6063 22.816 23.367 22.8161 23.2191 22.9637L23.2191 22.9637M24.5802 22.9637L23.2191 22.9637M23.2191 22.9637C23.0714 23.1114 23.0715 23.3507 23.2191 23.4986L23.2191 23.4987M23.2191 22.9637L23.2191 23.4987M23.2191 23.4987C23.4069 23.686 23.6534 23.7799 23.9 23.7799L23.2191 23.4987Z" fill="#9D252F" stroke="#9D252F" stroke-width="0.1"/>
<path d="M22.5302 21.4417C22.479 21.4711 22.4234 21.4848 22.3682 21.4848C22.2541 21.4848 22.1429 21.4254 22.0827 21.319L22.0392 21.3438C22.0392 21.3437 22.0392 21.3437 22.0392 21.3437C21.9723 21.2263 21.8432 21.165 21.7098 21.165C21.5764 21.1649 21.4472 21.2261 21.3804 21.3437L21.3644 21.3719L21.3628 21.3718L20.767 20.9942C20.9622 20.6504 21.3147 20.4458 21.7097 20.4458C22.1049 20.4458 22.4574 20.6506 22.6528 20.9942C22.7425 21.152 22.6878 21.352 22.5302 21.4417ZM22.5302 21.4417L22.5549 21.4851C22.5549 21.4851 22.555 21.4851 22.555 21.4851C22.555 21.4851 22.5551 21.485 22.5551 21.485L22.5302 21.4417ZM20.7235 20.9695C20.6202 21.151 20.6833 21.3815 20.8648 21.4851L20.7235 20.9695Z" fill="#9D252F" stroke="#9D252F" stroke-width="0.1"/>
<path d="M27.0762 20.9695L27.0762 20.9695C27.1795 21.1512 27.1165 21.3817 26.9349 21.4851C26.8758 21.5191 26.8116 21.5348 26.7481 21.5348C26.617 21.5348 26.4886 21.4665 26.4191 21.3437M27.0762 20.9695L26.4626 21.319M27.0762 20.9695C26.8719 20.6103 26.5028 20.3958 26.0896 20.3958C25.6767 20.3958 25.3075 20.6101 25.1034 20.9695L25.1469 20.9942L25.1035 20.9694C24.9997 21.1512 25.0627 21.3818 25.2446 21.4852L25.2549 21.491L25.2553 21.491M27.0762 20.9695L25.2553 21.491M26.4191 21.3437L26.4626 21.319M26.4191 21.3437C26.4191 21.3437 26.4191 21.3437 26.4192 21.3438L26.4626 21.319M26.4191 21.3437C26.3523 21.2263 26.2231 21.165 26.0897 21.165C25.9563 21.1649 25.8271 21.2261 25.7603 21.3437M26.4626 21.319C26.3079 21.0472 25.8716 21.0467 25.7169 21.319M25.7603 21.3437C25.7603 21.3437 25.7603 21.3437 25.7603 21.3437L25.7169 21.319M25.7603 21.3437C25.6592 21.5219 25.4345 21.5859 25.2553 21.491M25.7603 21.3437L25.7169 21.319M25.7169 21.319L25.2553 21.491M25.2553 21.491L25.2666 21.4916L25.2667 21.4916L25.2694 21.4417L25.2693 21.4417L25.2665 21.4466L25.2665 21.4466L25.2445 21.4851C25.2446 21.4851 25.2446 21.4851 25.2446 21.4851C25.2482 21.4872 25.2517 21.4891 25.2553 21.491Z" fill="#9D252F" stroke="#9D252F" stroke-width="0.1"/>
<path d="M22.0936 23.7874L22.0933 23.7873C21.9725 23.726 21.8327 23.7438 21.7233 23.8105C21.6098 23.8797 21.5419 24.0125 21.5419 24.1429C21.5419 25.4429 22.5994 26.5003 23.8998 26.5003C25.2 26.5003 26.2572 25.4426 26.2572 24.1235C26.2572 23.9915 26.1882 23.8695 26.076 23.8005L26.076 23.8005L26.0755 23.8002C25.963 23.7328 25.8233 23.7268 25.7058 23.7874L25.699 23.7909C24.4853 24.4148 23.3082 24.4143 22.0936 23.7874ZM23.9 25.744C23.2325 25.744 22.6589 25.3332 22.419 24.7514C23.4042 25.0983 24.3964 25.0983 25.3808 24.7514C25.1411 25.3334 24.5675 25.744 23.9 25.744Z" fill="#9D252F" stroke="#9D252F" stroke-width="0.1"/>
</svg>
