<svg width="48" height="48" viewBox="0 0 48 48" fill="none" xmlns="http://www.w3.org/2000/svg">
<circle cx="24" cy="24" r="23.5" stroke="#9D252F" stroke-opacity="0.5"/>
<path d="M38 24C38 20.2606 36.5433 16.7447 33.8996 14.1004C31.2559 11.4558 27.7394 10 24 10C20.7024 10 17.5803 11.1336 15.075 13.2134C14.9976 13.2389 14.9235 13.2769 14.8615 13.3384L13.3389 14.861C13.2769 14.923 13.2394 14.9966 13.2139 15.0745C11.1337 17.5802 10 20.7024 10 24C10 27.7394 11.4558 31.2558 14.1004 33.8996C16.7446 36.5433 20.2606 38 24 38C27.2976 38 30.4202 36.8664 32.9246 34.7861C33.0024 34.7606 33.0765 34.7226 33.138 34.6611L34.6606 33.1385C34.7221 33.077 34.7606 33.0029 34.7856 32.925C36.8663 30.4202 38 27.2976 38 24ZM33.1385 14.8615C35.5788 17.3024 36.9231 20.5481 36.9231 24C36.9231 26.9072 35.9668 29.6658 34.2073 31.9231L16.078 13.7938C18.3348 12.0342 21.0934 11.0775 24.0006 11.0775C27.4526 11.0775 30.6982 12.4223 33.1391 14.8622L33.1385 14.8615ZM33.1385 33.1385C33.0115 33.2654 32.8808 33.3889 32.7481 33.5096L14.4908 15.2512C14.6125 15.1194 14.7346 14.9891 14.8625 14.8612C14.9899 14.7338 15.1202 14.6112 15.2524 14.4896L33.5096 32.7481C33.3889 32.8798 33.2659 33.0106 33.1389 33.1385H33.1385ZM14.8615 33.1385C12.4217 30.6976 11.0769 27.4519 11.0769 24C11.0769 21.0928 12.0337 18.3342 13.7922 16.0769L31.9215 34.2062C29.6652 35.9663 26.9066 36.9225 23.9994 36.9225C20.5474 36.9225 17.3018 35.5782 14.8609 33.1378L14.8615 33.1385Z" fill="#9D252F"/>
</svg>
