<svg width="48" height="48" viewBox="0 0 48 48" fill="none" xmlns="http://www.w3.org/2000/svg">
<circle cx="24" cy="24" r="23.5" stroke="#9D252F" stroke-opacity="0.5"/>
<path d="M37.931 25.2314C37.9661 24.8221 37.9904 24.4107 37.9904 24.0007C37.9904 23.5693 37.9648 23.1392 37.9251 22.7097C37.9186 22.6367 37.9136 22.5621 37.9052 22.489C37.8614 22.0854 37.7998 21.6841 37.7216 21.2861C37.7059 21.2109 37.6899 21.1365 37.6743 21.0615C37.6485 20.9421 37.6275 20.8215 37.5984 20.7019L37.5126 20.345H37.4892C35.8964 14.4729 30.5803 10.1258 24.2365 10.017V10.0001L23.7628 10.0079C23.5542 10.0116 23.3492 10.0361 23.1419 10.0489C22.9173 10.0619 22.6905 10.0682 22.4683 10.0927C22.214 10.1204 21.9636 10.1673 21.7115 10.2082C21.5103 10.2414 21.3063 10.2668 21.1073 10.3084C20.8313 10.3663 20.5604 10.4452 20.2881 10.5193C20.1196 10.5657 19.949 10.603 19.7847 10.6548C19.4996 10.7446 19.2215 10.8553 18.9425 10.9637C18.7974 11.0203 18.6485 11.0682 18.5052 11.13C18.4699 11.145 18.4328 11.1552 18.3979 11.1703L18.1178 11.2924V11.316C14.4117 13.0403 11.5886 16.3342 10.5003 20.3448H10.478L10.3919 20.7016C10.3631 20.8211 10.3418 20.9416 10.316 21.0619C10.2998 21.1365 10.2837 21.2109 10.2692 21.2861C10.1909 21.6839 10.1285 22.0851 10.0849 22.4891C10.0771 22.5621 10.0719 22.6367 10.065 22.7097C10.0258 23.1392 9.99995 23.5693 9.99995 24.0007C9.99995 24.4109 10.0238 24.8221 10.0596 25.2314C10.0704 25.3574 10.0854 25.4831 10.0995 25.6078C10.1135 25.7333 10.1218 25.8594 10.1393 25.9839L10.1966 26.3845H10.2146C10.6982 29.2155 12.0273 31.8245 14.0985 33.8966C15.2811 35.0792 16.6451 36.0098 18.1186 36.6931V36.7096L18.3987 36.8316C18.421 36.8418 18.4455 36.8483 18.468 36.8587C18.7652 36.9858 19.0687 37.0953 19.3746 37.2019C19.5056 37.2479 19.635 37.3003 19.7674 37.3417C20.0434 37.4287 20.3246 37.4985 20.6059 37.5676C20.7753 37.6101 20.9422 37.6589 21.1132 37.6947C21.3669 37.7476 21.6242 37.7833 21.8809 37.8217C22.0814 37.8512 22.2802 37.8885 22.4831 37.9104C22.7289 37.936 22.9789 37.9448 23.2278 37.9591C23.4062 37.9678 23.5835 37.9912 23.7632 37.9936L24.2369 38.0001V37.9845C27.8846 37.9229 31.3061 36.4824 33.8923 33.8968C35.9639 31.8246 37.2932 29.2155 37.7768 26.3847H37.7948L37.8521 25.9841C37.8694 25.8599 37.8772 25.7337 37.892 25.608C37.9052 25.4829 37.9195 25.3574 37.931 25.2314L37.931 25.2314ZM37.0021 25.1748C36.9962 25.2377 36.993 25.3008 36.9858 25.3626C36.9834 25.3933 36.9763 25.4228 36.973 25.4523H23.3047V37.0307C23.1885 37.0242 23.071 37.0215 22.9554 37.0127C22.7982 37.0012 22.6409 36.9869 22.4843 36.9689C22.2361 36.9407 21.9898 36.9021 21.7447 36.8594C21.5905 36.8327 21.4366 36.8093 21.2838 36.7774C21.0423 36.7259 20.8043 36.6619 20.5658 36.5975C20.4151 36.5565 20.2616 36.5221 20.112 36.4757C19.8404 36.392 19.5753 36.2905 19.3108 36.1891C19.2241 36.1559 19.136 36.1303 19.0511 36.0952L19.0508 25.4526H11.0176C11.0153 25.4231 11.0081 25.3936 11.0049 25.3628C10.9983 25.3012 10.9947 25.2382 10.9892 25.1751C10.9548 24.7872 10.9314 24.3953 10.9314 24.0005C10.9314 23.5477 10.9559 23.0946 11.0025 22.6452C11.014 22.5325 11.0391 22.4239 11.0532 22.312C11.0961 21.9814 11.1412 21.6517 11.2093 21.3252C11.2123 21.3085 11.2184 21.2929 11.2214 21.2764L19.0509 21.2766V11.916C19.7648 11.6233 20.5088 11.3894 21.2789 11.2259C21.3933 11.2021 21.5095 11.1856 21.6236 11.1635C21.9032 11.1121 22.1846 11.0677 22.4705 11.0345C22.6212 11.0171 22.773 11.0044 22.9249 10.9916C23.0502 10.9814 23.1779 10.9792 23.3043 10.9723V21.277H36.7684C36.7726 21.2936 36.7775 21.3093 36.7812 21.3257C36.8491 21.6518 36.8944 21.9817 36.9367 22.3125C36.9516 22.4242 36.9765 22.5326 36.9883 22.6457C37.0342 23.0951 37.0587 23.5482 37.0587 24.0011C37.0589 24.3954 37.0359 24.7874 37.0021 25.1752L37.0021 25.1748ZM36.5286 20.3446H24.2366V10.9496C30.0626 11.0569 34.9636 14.9913 36.5286 20.3446ZM18.1186 12.3497V20.3446H11.4623C12.4829 16.8512 14.9248 13.9675 18.1186 12.3497ZM14.7571 33.2383C12.8628 31.3432 11.6291 28.9652 11.1555 26.3844H18.1187V35.6624C16.8939 35.0433 15.7564 34.2368 14.7572 33.2383H14.7571ZM33.2326 33.2383C30.8224 35.6481 27.6352 36.991 24.236 37.0526V26.3844H36.8349C36.3611 28.965 35.1273 31.3429 33.2324 33.2383H33.2326Z" fill="#9D252F"/>
</svg>
