<svg width="48" height="48" viewBox="0 0 48 48" fill="none" xmlns="http://www.w3.org/2000/svg">
<circle cx="24" cy="24" r="23.5" stroke="#9D252F" stroke-opacity="0.5"/>
<path d="M35.3682 33.6132C35.2166 33.6132 35.0708 33.5549 34.9541 33.444L30.0021 28.4921C29.7747 28.2646 29.7747 27.8971 30.0021 27.6696C30.2296 27.4421 30.5971 27.4422 30.8246 27.6696L35.7765 32.6216C36.004 32.8491 36.004 33.2165 35.7765 33.444C35.6657 33.5549 35.5141 33.6132 35.3683 33.6132H35.3682Z" fill="#9D252F"/>
<path d="M30.4162 28.6607C30.1071 28.6607 29.8505 28.4157 29.8329 28.1065C29.8213 27.7857 30.0662 27.5116 30.387 27.4999L37.3805 27.185C37.7013 27.1733 37.9754 27.4183 37.9871 27.7391C37.9988 28.0599 37.7538 28.334 37.4329 28.3457L30.4454 28.6607H30.4162H30.4162Z" fill="#9D252F"/>
<path d="M30.7314 35.6545C30.4223 35.6545 30.1657 35.4096 30.1481 35.1004L29.8332 28.107C29.8215 27.7862 30.0665 27.5121 30.3873 27.5004C30.7081 27.4829 30.9822 27.7337 30.9939 28.0545L31.3089 35.0479C31.3205 35.3687 31.0756 35.6429 30.7547 35.6545H30.7314H30.7314Z" fill="#9D252F"/>
<path d="M31.2383 27.8385C31.1917 27.8385 31.1392 27.8326 31.0867 27.821C30.7775 27.7393 30.5909 27.4185 30.6725 27.1094C30.8884 26.2869 30.9992 25.4353 30.9992 24.5779C30.9992 19.1129 26.5488 14.6621 21.0834 14.6621C20.7218 14.6621 20.3485 14.6855 19.9869 14.7205C19.6661 14.7555 19.3803 14.5222 19.3453 14.2072C19.3103 13.8864 19.5436 13.6006 19.8586 13.5656C20.2668 13.5189 20.681 13.4956 21.0834 13.4956C27.1959 13.4956 32.1655 18.4651 32.1655 24.5777C32.1655 25.5343 32.043 26.485 31.8039 27.4066C31.7339 27.669 31.4948 27.8382 31.2381 27.8382L31.2383 27.8385Z" fill="#9D252F"/>
<path d="M21.084 35.6602C14.9716 35.6602 10.002 30.6907 10.002 24.5781C10.002 21.6268 11.151 18.8502 13.2274 16.7624C13.4549 16.5349 13.8224 16.5349 14.0499 16.7624C14.2774 16.9899 14.2773 17.3573 14.0499 17.5848C12.1951 19.4513 11.1685 21.9361 11.1685 24.5782C11.1685 30.0433 15.6189 34.494 21.0843 34.494C22.7991 34.494 24.4906 34.0508 25.9721 33.205C26.2521 33.0475 26.6079 33.1467 26.7654 33.4266C26.9228 33.7066 26.8237 34.0624 26.5437 34.2199C24.8931 35.1648 23.0032 35.6606 21.084 35.6606L21.084 35.6602Z" fill="#9D252F"/>
<path d="M14.4291 17.8356C13.7641 17.8356 13.0992 17.6897 12.4867 17.3923C11.0635 16.6982 10.1128 15.2925 10.002 13.7118C9.98449 13.5018 10.0836 13.3035 10.2586 13.1869C11.571 12.3003 13.2683 12.1836 14.6915 12.8719C15.3914 13.216 15.9922 13.7352 16.4297 14.3826C16.6105 14.6509 16.5405 15.0125 16.2722 15.1933C16.0039 15.3741 15.6423 15.3041 15.4615 15.0358C15.1407 14.5634 14.6974 14.1784 14.1783 13.9217C13.2334 13.461 12.1252 13.4901 11.2094 13.9742C11.3961 14.995 12.0551 15.8874 13 16.3423C14.05 16.8498 15.2982 16.7623 16.2722 16.109C16.5405 15.9282 16.9021 15.9982 17.0829 16.2665C17.2638 16.5348 17.1938 16.8964 16.9255 17.0772C16.1789 17.5789 15.304 17.8355 14.4291 17.8355L14.4291 17.8356Z" fill="#9D252F"/>
<path d="M16.5985 17.1763C16.406 17.1763 16.2252 17.0829 16.1144 16.9196C15.2278 15.6073 15.1112 13.9099 15.7994 12.4867C16.4877 11.0636 17.8992 10.1128 19.4799 10.002C19.6899 9.98449 19.8882 10.0836 20.0049 10.2586C20.8914 11.571 21.0081 13.2683 20.3198 14.6915C19.6257 16.1147 18.22 17.0655 16.6393 17.1763H16.5985H16.5985ZM19.2174 11.2035C18.1966 11.3902 17.3043 12.0493 16.8493 12.9942C16.3885 13.9391 16.4177 15.0473 16.9018 15.9631C17.9226 15.7764 18.8149 15.1173 19.2699 14.1724C19.7307 13.2334 19.7073 12.1251 19.2174 11.2035Z" fill="#9D252F"/>
<path d="M30.4162 35.6542C28.4739 35.6542 26.5316 34.9134 25.0556 33.4377C24.8282 33.2103 24.8282 32.8428 25.0556 32.6153L34.9538 22.7171C35.0647 22.6063 35.2105 22.548 35.368 22.548C35.5254 22.548 35.6713 22.6121 35.7821 22.7171C38.7393 25.6743 38.7393 30.4865 35.7821 33.4376C34.3006 34.9191 32.3583 35.654 30.4162 35.654L30.4162 35.6542ZM26.3099 33.0061C28.8297 35.1059 32.5919 34.9776 34.9538 32.6095C37.3161 30.2472 37.4502 26.4853 35.3505 23.9656L26.3099 33.0061Z" fill="#9D252F"/>
<path d="M21.6673 32.7434C16.8436 32.7434 12.9183 28.818 12.9183 23.9944C12.9183 23.6736 13.1808 23.4111 13.5016 23.4111C13.8224 23.4111 14.0849 23.6736 14.0849 23.9944C14.0849 28.1765 17.4854 31.5771 21.6676 31.5771C21.9884 31.5771 22.2509 31.8396 22.2509 32.1604C22.2509 32.4813 21.9884 32.7437 21.6676 32.7437L21.6673 32.7434Z" fill="#9D252F"/>
</svg>
