<svg width="40" height="40" viewBox="0 0 40 40" fill="none" xmlns="http://www.w3.org/2000/svg">
<path d="M39.8283 38.9251L27.6469 26.7437C27.0278 26.1245 26.5582 25.3949 26.2514 24.5749C25.8549 23.3284 25.0949 22.102 24.0918 21.1858C23.8629 20.957 23.4919 20.9569 23.2632 21.1858C23.0343 21.4146 23.0343 21.7856 23.2632 22.0144C24.1107 22.7688 24.7957 23.8554 25.1539 24.9858C25.52 25.9637 26.0799 26.8339 26.8182 27.5723L38.9996 39.7537C39.1141 39.868 39.2641 39.9253 39.414 39.9253C39.5639 39.9253 39.7139 39.8681 39.8284 39.7537C40.0571 39.5249 40.0571 39.1539 39.8283 38.9251Z" fill="#832F34"/>
<path d="M10.821 22.6205C10.5298 22.6205 10.2561 22.507 10.0502 22.3012L6.60886 18.8599C6.38003 18.631 6.00901 18.631 5.78026 18.8599C5.55144 19.0887 5.55144 19.4597 5.78026 19.6884L9.22159 23.1298C9.64886 23.557 10.2168 23.7923 10.821 23.7923H10.8577C11.1813 23.7923 11.4436 23.5299 11.4436 23.2063C11.4436 22.8827 11.1813 22.6204 10.8577 22.6204H10.821V22.6205Z" fill="#832F34"/>
<path d="M26.548 15.6277C27.9204 16.5666 29.5789 17.1166 31.3636 17.1166C36.0783 17.1166 39.9139 13.2809 39.9139 8.56626C39.9139 3.85165 36.0783 0.0158691 31.3636 0.0158691C26.6489 0.0158691 22.8133 3.85157 22.8133 8.56626C22.8133 11.073 23.8977 13.3312 25.6218 14.8965L21.7121 18.8062L12.2222 9.31626C11.7945 8.88853 11.2259 8.65306 10.621 8.65306C10.0162 8.65306 9.44758 8.8886 9.01992 9.31618C8.72953 9.5729 8.41594 10.007 8.29047 10.4538C7.40203 9.73079 6.08867 9.78282 5.26148 10.6101C4.80703 10.9992 4.43898 11.6918 4.44578 12.3678C3.79273 12.3025 3.11656 12.5192 2.61734 13.0184C1.88969 13.6259 1.59641 14.771 1.97898 15.6495C1.55242 15.7329 1.14539 15.9394 0.815625 16.2692L0.663125 16.4217C0.235547 16.8494 0 17.418 0 18.0228C0 18.6277 0.235547 19.1963 0.663203 19.6239L5.73633 24.697C4.97938 24.7659 4.07773 25.3929 3.88539 26.2558C3.71508 26.9119 3.87844 27.6094 4.32227 28.1217L7.50898 31.7998C8.16648 32.5587 9.02844 33.0903 10.0016 33.3374L14.8734 34.5738C16.047 34.7733 17.2258 36.2117 18.0266 36.9874L20.852 39.8128C20.9664 39.9272 21.1164 39.9845 21.2663 39.9845C21.4163 39.9845 21.5662 39.9273 21.6807 39.8128C21.9095 39.584 21.9095 39.213 21.6807 38.9842L18.2732 35.5768C17.4399 34.6866 16.4334 33.7207 15.1616 33.438L10.2899 32.2016C9.54992 32.0138 8.89461 31.6095 8.39469 31.0325L5.20797 27.3545C5.01383 27.1304 4.94523 26.8373 5.01969 26.5503C5.28945 25.6116 6.74828 25.6826 7.3782 26.3391L9.83078 28.7917C10.0596 29.0205 10.4306 29.0205 10.6594 28.7917C10.8882 28.5628 10.8882 28.1918 10.6594 27.9631L1.49188 18.7952C1.04656 18.3699 1.07641 17.5413 1.64445 17.0977C2.07039 16.6718 2.76344 16.6718 3.18938 17.0977L3.83391 17.7423C4.06273 17.9711 4.43375 17.9711 4.6625 17.7423C4.89133 17.5135 4.89133 17.1424 4.6625 16.9137L3.29352 15.5446C2.83828 15.0995 2.90094 14.2727 3.44609 13.8471C3.87211 13.4213 4.56516 13.4213 4.99102 13.8471L11.7476 20.6037C12.1748 21.031 12.7428 21.2662 13.347 21.2662H13.4194C13.743 21.2662 14.0053 21.0038 14.0053 20.6802C14.0053 20.3567 13.743 20.0943 13.4194 20.0943H13.347C13.0559 20.0943 12.7821 19.9809 12.5763 19.775L5.9375 13.1363C5.48219 12.6912 5.54492 11.8645 6.09008 11.4388C6.29641 11.2324 6.5707 11.1188 6.86258 11.1188C7.15438 11.1188 7.42867 11.2324 7.635 11.4388L14.2737 18.0775C14.7009 18.5048 15.269 18.74 15.8732 18.74C16.1968 18.74 16.4591 18.4777 16.4591 18.1541C16.4591 17.8305 16.1968 17.5681 15.8732 17.5681C15.582 17.5681 15.3083 17.4548 15.1024 17.2488L9.69594 11.8424C9.2507 11.417 9.28047 10.5881 9.84852 10.1449C10.0548 9.93853 10.3292 9.82485 10.621 9.82485C10.9128 9.82485 11.1872 9.93853 11.3935 10.1449L20.8834 19.6348L19.9069 20.6113C19.678 20.8402 19.678 21.2112 19.9069 21.4399C20.0212 21.5543 20.1712 21.6116 20.3212 21.6116C20.4711 21.6116 20.6211 21.5544 20.7355 21.4399L26.548 15.6277ZM23.9852 8.56626C23.9852 4.49774 27.2951 1.18782 31.3636 1.18782C35.4321 1.18782 38.742 4.49782 38.742 8.56626C38.742 12.6347 35.4321 15.9447 31.3636 15.9447C27.2951 15.9447 23.9852 12.6347 23.9852 8.56626Z" fill="#832F34"/>
<path d="M20.41 30.0851C20.7375 30.032 20.9599 29.7235 20.9068 29.396C20.8537 29.0685 20.5452 28.846 20.2177 28.8991C19.8902 28.9522 19.6678 29.2607 19.7209 29.5882C19.774 29.9157 20.0825 30.1382 20.41 30.0851Z" fill="#832F34"/>
<path d="M23.1503 30.0917C23.4821 30.0917 23.7511 29.8227 23.7511 29.4909C23.7511 29.1591 23.4821 28.8901 23.1503 28.8901C22.8185 28.8901 22.5496 29.1591 22.5496 29.4909C22.5496 29.8227 22.8185 30.0917 23.1503 30.0917Z" fill="#832F34"/>
<path d="M14.8193 27.2642C15.1511 27.2642 15.4201 26.9952 15.4201 26.6634C15.4201 26.3316 15.1511 26.0626 14.8193 26.0626C14.4875 26.0626 14.2185 26.3316 14.2185 26.6634C14.2185 26.9952 14.4875 27.2642 14.8193 27.2642Z" fill="#832F34"/>
<path d="M17.4922 27.2642C17.824 27.2642 18.093 26.9952 18.093 26.6634C18.093 26.3316 17.824 26.0626 17.4922 26.0626C17.1604 26.0626 16.8914 26.3316 16.8914 26.6634C16.8914 26.9952 17.1604 27.2642 17.4922 27.2642Z" fill="#832F34"/>
<path d="M20.4608 27.2363C20.7836 27.16 20.9835 26.8364 20.9071 26.5135C20.8308 26.1907 20.5073 25.9908 20.1844 26.0671C19.8616 26.1435 19.6617 26.467 19.738 26.7899C19.8143 27.1127 20.1379 27.3126 20.4608 27.2363Z" fill="#832F34"/>
<path d="M23.1503 27.2642C23.4821 27.2642 23.7511 26.9952 23.7511 26.6634C23.7511 26.3316 23.4821 26.0626 23.1503 26.0626C22.8185 26.0626 22.5496 26.3316 22.5496 26.6634C22.5496 26.9952 22.8185 27.2642 23.1503 27.2642Z" fill="#832F34"/>
<path d="M14.8193 24.4364C15.1511 24.4364 15.4201 24.1674 15.4201 23.8356C15.4201 23.5038 15.1511 23.2349 14.8193 23.2349C14.4875 23.2349 14.2185 23.5038 14.2185 23.8356C14.2185 24.1674 14.4875 24.4364 14.8193 24.4364Z" fill="#832F34"/>
<path d="M17.4922 24.4364C17.824 24.4364 18.093 24.1674 18.093 23.8356C18.093 23.5038 17.824 23.2349 17.4922 23.2349C17.1604 23.2349 16.8914 23.5038 16.8914 23.8356C16.8914 24.1674 17.1604 24.4364 17.4922 24.4364Z" fill="#832F34"/>
<path d="M20.4112 24.4304C20.7387 24.3773 20.9611 24.0688 20.9081 23.7413C20.855 23.4138 20.5464 23.1914 20.219 23.2444C19.8915 23.2975 19.669 23.6061 19.7221 23.9336C19.7752 24.2611 20.0837 24.4835 20.4112 24.4304Z" fill="#832F34"/>
<path d="M17.4922 21.609C17.824 21.609 18.093 21.3401 18.093 21.0083C18.093 20.6764 17.824 20.4075 17.4922 20.4075C17.1604 20.4075 16.8914 20.6764 16.8914 21.0083C16.8914 21.3401 17.1604 21.609 17.4922 21.609Z" fill="#832F34"/>
<path d="M29.3751 7.99033C30.7637 7.99033 31.8934 6.86064 31.8934 5.47197C31.8934 4.0833 30.7637 2.95361 29.3751 2.95361C27.9865 2.95361 26.8567 4.0833 26.8567 5.47197C26.8567 6.86064 27.9865 7.99033 29.3751 7.99033ZM29.3751 4.12549C30.1175 4.12549 30.7215 4.72947 30.7215 5.47197C30.7215 6.21447 30.1175 6.81846 29.3751 6.81846C28.6326 6.81846 28.0286 6.21447 28.0286 5.47197C28.0286 4.72947 28.6326 4.12549 29.3751 4.12549Z" fill="#832F34"/>
<path d="M30.9572 10.6686C30.9572 12.2966 32.2817 13.6211 33.9098 13.6211C34.1111 13.6211 34.3123 13.6007 34.5079 13.5604C34.8248 13.4951 35.0288 13.1853 34.9635 12.8683C34.8982 12.5514 34.5882 12.3475 34.2714 12.4127C34.1534 12.437 34.0319 12.4493 33.9098 12.4493C32.9279 12.4493 32.1291 11.6505 32.1291 10.6686C32.1291 9.68677 32.9279 8.88794 33.9098 8.88794C34.8916 8.88794 35.6905 9.68677 35.6905 10.6686C35.6905 10.781 35.68 10.893 35.6595 11.0017C35.5993 11.3197 35.8084 11.6261 36.1263 11.6863C36.4444 11.7467 36.7509 11.5375 36.811 11.2195C36.8452 11.0392 36.8624 10.8539 36.8624 10.6686C36.8624 9.0406 35.5379 7.71606 33.9098 7.71606C32.2818 7.71606 30.9572 9.04052 30.9572 10.6686Z" fill="#832F34"/>
<path d="M27.6454 10.6685C27.3136 10.6685 27.0445 10.9374 27.0445 11.2692C27.0445 11.601 27.3135 11.87 27.6454 11.87C27.9773 11.87 28.2462 11.601 28.2462 11.2692C28.2462 10.9375 27.9772 10.6685 27.6454 10.6685Z" fill="#832F34"/>
<path d="M34.5106 5.77407C34.8424 5.77407 35.1114 5.50509 35.1114 5.17329C35.1114 4.84149 34.8424 4.57251 34.5106 4.57251C34.1788 4.57251 33.9098 4.84149 33.9098 5.17329C33.9098 5.50509 34.1787 5.77407 34.5106 5.77407Z" fill="#832F34"/>
</svg>
