<svg width="32" height="36" viewBox="0 0 32 36" fill="none" xmlns="http://www.w3.org/2000/svg">
<path d="M15.9884 36C9.59073 36 4.38611 30.7952 4.38611 24.3977V24.2292H4.13249C2.15953 24.2292 0.554443 22.6241 0.554443 20.6511V19.0128C0.554443 17.0398 2.15953 15.4348 4.13249 15.4348H4.38611V10.1616C4.38611 8.14 5.32159 6.21837 6.90229 4.96565C6.84566 4.69174 6.81599 4.4093 6.81599 4.1226C6.81599 3.38598 7.20826 2.62923 7.86523 2.09847C7.87188 2.09318 7.87854 2.08806 7.88553 2.08312L8.2836 1.79897C8.29759 1.78891 8.31243 1.77987 8.3276 1.77151C8.38952 1.73775 8.45961 1.69562 8.53994 1.64735C8.91499 1.42222 9.48174 1.08214 10.4193 0.796288C11.7114 0.372291 13.0757 0.124135 14.5834 0.0395399C20.359 -0.285195 25.5065 1.41659 27.0965 4.17701C27.2995 4.50515 27.4378 4.75791 27.5726 5.04751C28.8722 7.84272 27.8149 10.7764 27.5906 11.3346V15.4348H27.8676C29.8406 15.4348 31.4457 17.0398 31.4457 19.0128V20.6511C31.4457 22.6241 29.8406 24.2292 27.8676 24.2292H27.5906V24.3977C27.5906 30.7952 22.386 36 15.9884 36ZM5.23887 23.8028V24.3977C5.23887 30.325 10.0611 35.1472 15.9884 35.1472C21.9156 35.1472 26.7379 30.325 26.7379 24.3977V20.7835H25.9825C25.8686 20.7835 25.7592 20.738 25.6794 20.6569C25.5992 20.5759 25.5549 20.4663 25.5561 20.3523C25.5568 20.3029 25.6078 15.3923 25.2276 13.872C24.8843 12.498 23.9036 11.9497 23.8622 11.927C23.7605 11.8715 23.6846 11.7765 23.6539 11.6648C23.6232 11.5531 23.6382 11.4334 23.6972 11.3338C23.7029 11.3244 24.2826 10.3314 24.3082 9.37958C24.3121 9.2295 23.6792 8.85837 22.8498 8.62829C21.9463 8.44068 21.2588 8.45331 21.2409 8.45296C21.2373 8.45296 21.2338 8.45313 21.2302 8.45313H12.3614C11.0786 8.45313 9.97038 8.23278 9.06747 7.79804C8.91636 7.72538 8.77104 7.64317 8.6317 7.55261C8.23363 8.01311 7.66705 8.79834 7.66858 9.39016C7.67097 10.3326 8.26928 11.3181 8.27559 11.328C8.33716 11.4283 8.35472 11.5499 8.32368 11.6635C8.29264 11.7771 8.21623 11.8731 8.1122 11.9282C8.07297 11.9497 7.09245 12.4982 6.74896 13.8721C6.36879 15.393 6.41979 20.303 6.42047 20.3525C6.42184 20.4664 6.37732 20.5761 6.29716 20.6571C6.21717 20.7381 6.10802 20.7837 5.99409 20.7837H5.2387V23.8028H5.23887ZM27.614 23.3764H27.8676C29.3705 23.3764 30.5929 22.1539 30.5929 20.6511V19.0128C30.5929 17.5101 29.3704 16.2875 27.8676 16.2875H27.614V23.3764ZM4.13232 16.2874C2.6294 16.2874 1.40704 17.5099 1.40704 19.0126V20.651C1.40704 22.1537 2.62957 23.3763 4.13232 23.3763H4.38594V16.2874H4.13232ZM26.4116 19.9307H26.7379V11.3577C26.3666 10.5477 25.793 9.96322 25.1541 9.54178C25.1029 10.2876 24.8145 11.0021 24.6174 11.4129C25.0482 11.7493 25.7539 12.4596 26.0553 13.6649C26.3961 15.0288 26.4157 18.6688 26.4116 19.9307ZM5.23887 19.9307H5.56514C5.56122 18.669 5.58083 15.0288 5.9216 13.6651C6.22212 12.4639 6.92412 11.7542 7.35511 11.4163C7.13816 10.9768 6.81803 10.1933 6.81599 9.39186C6.81377 8.48673 7.53572 7.51509 7.972 7.01042C7.64385 6.67545 7.37489 6.28147 7.17927 5.84622C5.9552 6.93623 5.23887 8.51078 5.23887 10.1616V19.9307ZM21.3064 7.58587C21.8849 7.58587 25.3252 7.69485 27.0614 10.1974C27.1218 9.96748 27.1825 9.70022 27.2323 9.40483C26.7319 8.91738 24.9245 7.32219 22.2354 6.81104C20.3554 6.45356 18.135 6.59222 15.9875 6.72594C14.391 6.82554 12.7397 6.92872 11.2775 6.81735C9.85969 6.70973 8.87679 6.33963 8.20429 5.92587C8.51283 6.39625 8.94143 6.78137 9.45667 7.02611C10.24 7.39826 11.2166 7.58689 12.3597 7.58689H21.2285C21.2396 7.58638 21.266 7.58587 21.3064 7.58587ZM19.3802 5.73058C20.4248 5.73058 21.443 5.79215 22.3947 5.97311C24.7579 6.42235 26.4677 7.61128 27.3435 8.35217C27.3587 7.97695 27.3478 7.5799 27.2973 7.17296C26.1087 5.983 24.0006 5.15343 21.1872 4.76985C19.6979 4.56689 17.9989 4.79782 16.2004 5.04257C14.3879 5.28902 12.514 5.544 10.8281 5.32228C8.9578 5.07617 8.1006 4.40265 7.7102 3.79872C7.68325 3.90753 7.6691 4.016 7.6691 4.12243C7.6691 4.16268 7.66978 4.20259 7.67131 4.24267C7.80997 4.51095 8.59759 5.75821 11.3425 5.9668C12.7467 6.0734 14.2953 5.97703 15.9348 5.87453C17.0799 5.80324 18.2457 5.73058 19.3802 5.73058ZM19.9536 3.84085C20.4163 3.84085 20.8676 3.86575 21.3021 3.92493C23.6853 4.24966 25.6122 4.89333 26.9669 5.80801C26.9169 5.67396 26.8612 5.54024 26.7994 5.40704C26.6789 5.14797 26.5535 4.91943 26.3666 4.61789C26.3626 4.61158 26.3589 4.6051 26.3553 4.59845C24.9397 2.14793 20.0119 0.588894 14.6311 0.890945C13.1988 0.971276 11.9058 1.20613 10.6783 1.60864C10.6732 1.61034 10.6671 1.61222 10.6616 1.61375C9.82404 1.87146 9.31579 2.17641 8.97878 2.37852C8.89691 2.42781 8.82409 2.4713 8.75877 2.50745L8.3919 2.76943C8.3421 2.81019 8.29435 2.85283 8.24864 2.89717C8.30219 3.23316 8.65763 4.17667 10.9391 4.47684C12.5121 4.68389 14.3285 4.43659 16.0852 4.19764C17.3801 4.02146 18.7075 3.84085 19.9536 3.84085ZM10.7559 27.7873C10.6679 27.7873 10.5794 27.7602 10.5034 27.7041C9.79454 27.1813 9.44132 26.3163 9.58203 25.4468L9.59755 25.3511C9.63558 25.1186 9.8556 24.9612 10.0869 24.9987C10.3193 25.0366 10.4771 25.2556 10.4392 25.4881L10.4237 25.5832C10.4084 25.6774 10.4024 25.7715 10.405 25.8645C14.0272 24.0882 19.2584 26.0398 19.4851 26.1258C19.7051 26.2093 19.8156 26.4556 19.732 26.6756C19.6485 26.8956 19.4018 27.006 19.182 26.9229C19.1296 26.903 13.9641 24.9788 10.6785 26.6814C10.7686 26.808 10.8796 26.9217 11.0092 27.0174C11.1987 27.1573 11.2391 27.4242 11.0993 27.6137C11.0159 27.7273 10.8868 27.7873 10.7559 27.7873ZM20.434 21.1828C19.0015 21.1828 17.8362 20.0174 17.8362 18.5851C17.8362 17.1526 19.0015 15.9872 20.434 15.9872C21.8663 15.9872 23.0317 17.1526 23.0317 18.5851C23.0317 20.0174 21.8663 21.1828 20.434 21.1828ZM20.434 16.8398C19.4716 16.8398 18.6889 17.6226 18.6889 18.5849C18.6889 19.5472 19.4718 20.3298 20.434 20.3298C21.3963 20.3298 22.179 19.547 22.179 18.5849C22.179 17.6226 21.3961 16.8398 20.434 16.8398ZM12.1649 21.1828C10.7326 21.1828 9.56719 20.0174 9.56719 18.5851C9.56719 17.1526 10.7326 15.9872 12.1649 15.9872C13.5974 15.9872 14.7628 17.1526 14.7628 18.5851C14.7629 20.0174 13.5975 21.1828 12.1649 21.1828ZM12.1649 16.8398C11.2026 16.8398 10.42 17.6226 10.42 18.5849C10.42 19.5472 11.2028 20.3298 12.1649 20.3298C13.1273 20.3298 13.91 19.547 13.91 18.5849C13.9102 17.6226 13.1273 16.8398 12.1649 16.8398ZM20.434 19.0539C20.1985 19.0539 20.0076 18.8631 20.0076 18.6275V18.5849C20.0076 18.3494 20.1985 18.1585 20.434 18.1585C20.6696 18.1585 20.8604 18.3494 20.8604 18.5849V18.6275C20.8604 18.8629 20.6694 19.0539 20.434 19.0539ZM12.1649 19.0539C11.9294 19.0539 11.7385 18.8631 11.7385 18.6275V18.5849C11.7385 18.3494 11.9294 18.1585 12.1649 18.1585C12.4004 18.1585 12.5913 18.3494 12.5913 18.5849V18.6275C12.5913 18.8629 12.4004 19.0539 12.1649 19.0539ZM18.438 15.9981C18.2852 15.9981 18.1374 15.9157 18.0609 15.7713C17.9508 15.5632 18.0299 15.3051 18.2381 15.195L21.282 13.5825C21.4904 13.4724 21.7481 13.5517 21.8583 13.7597C21.9685 13.9678 21.8894 14.2259 21.6811 14.3361L18.6372 15.9485C18.5736 15.9821 18.5054 15.9981 18.438 15.9981ZM13.8721 13.7482C13.8152 13.7482 13.7574 13.7367 13.7019 13.7127L10.2873 12.2249C10.0713 12.1308 9.9726 11.8796 10.0667 11.6636C10.1609 11.4475 10.4123 11.349 10.628 11.4431L14.0427 12.9309C14.2586 13.025 14.3574 13.2762 14.2632 13.4922C14.1933 13.6523 14.0366 13.7482 13.8721 13.7482Z" fill="#832F34"/>
</svg>
