<svg width="38" height="40" viewBox="0 0 38 40" fill="none" xmlns="http://www.w3.org/2000/svg">
<path d="M27.0963 20.625C27.0952 20.8571 27.14 21.0872 27.2281 21.3017C27.3163 21.5163 27.446 21.7112 27.6097 21.875C28.2623 22.5578 29.4368 22.5578 30.0894 21.875L30.8618 21.1L31.631 21.875C32.2836 22.5578 33.4581 22.5578 34.1107 21.875C34.7905 21.2195 34.7905 20.0398 34.1107 19.3844L33.3422 18.6055L34.1138 17.8297C34.7936 17.1742 34.7936 15.9945 34.1138 15.3398C33.4612 14.6562 32.2867 14.6562 31.6341 15.3398L30.8625 16.1156L30.0909 15.3406C29.4384 14.657 28.2638 14.657 27.6113 15.3406C26.9307 15.9961 26.9307 17.1758 27.6113 17.8313L28.3828 18.607L27.6113 19.382C27.448 19.5448 27.3184 19.7385 27.23 19.9518C27.1417 20.1651 27.0962 20.3939 27.0963 20.625ZM28.4365 20.2094L29.6219 19.0195C29.7313 18.9093 29.7927 18.76 29.7927 18.6043C29.7927 18.4486 29.7313 18.2993 29.6219 18.1891L28.4365 17C28.338 16.8878 28.2858 16.7421 28.2905 16.5926C28.2953 16.443 28.3567 16.301 28.4622 16.1953C28.5676 16.0897 28.7092 16.0285 28.8581 16.0241C29.007 16.0197 29.1519 16.0726 29.2633 16.1719L30.448 17.3625C30.5577 17.4724 30.7064 17.5341 30.8614 17.5341C31.0163 17.5341 31.165 17.4724 31.2748 17.3625L32.4594 16.1719C32.5701 16.0672 32.7171 16.01 32.8691 16.0123C33.0212 16.0146 33.1664 16.0763 33.2739 16.1843C33.3814 16.2923 33.4428 16.4381 33.4451 16.5908C33.4474 16.7435 33.3904 16.8911 33.2862 17.0023L32.1016 18.1922C32.0473 18.2467 32.0041 18.3114 31.9747 18.3827C31.9453 18.4539 31.9302 18.5303 31.9302 18.6074C31.9302 18.6846 31.9453 18.7609 31.9747 18.8322C32.0041 18.9034 32.0473 18.9682 32.1016 19.0227L33.2862 20.2125C33.3904 20.3237 33.4474 20.4713 33.4451 20.6241C33.4428 20.7768 33.3814 20.9226 33.2739 21.0306C33.1664 21.1386 33.0212 21.2003 32.8691 21.2026C32.7171 21.2049 32.5701 21.1476 32.4594 21.043L31.2748 19.8531C31.2205 19.7985 31.1561 19.7552 31.0851 19.7257C31.0142 19.6961 30.9382 19.6809 30.8614 19.6809C30.7846 19.6809 30.7085 19.6961 30.6376 19.7257C30.5667 19.7552 30.5022 19.7985 30.448 19.8531L29.2633 21.043C29.1526 21.1476 29.0056 21.2049 28.8536 21.2026C28.7016 21.2003 28.5564 21.1386 28.4489 21.0306C28.3413 20.9226 28.2799 20.7768 28.2776 20.6241C28.2753 20.4713 28.3323 20.3237 28.4365 20.2125V20.2094Z" fill="#832F34"/>
<path d="M14.8029 10.9657C14.7471 10.9125 14.6814 10.871 14.6096 10.8433C14.5378 10.8157 14.4613 10.8026 14.3844 10.8047C14.3076 10.8068 14.2319 10.8241 14.1617 10.8556C14.0915 10.8871 14.0281 10.9322 13.9753 10.9884C13.9753 10.9884 13.6922 11.2555 13.1321 11.3368C12.9835 11.3556 12.8477 11.4309 12.7527 11.5472C12.6576 11.6634 12.6106 11.8119 12.6211 11.9619C12.6317 12.112 12.6991 12.2523 12.8095 12.354C12.9198 12.4557 13.0648 12.511 13.2146 12.5087C13.2427 12.5089 13.2708 12.5068 13.2986 12.5024C14.2693 12.3626 14.771 11.8563 14.8255 11.7993C14.8787 11.7432 14.9204 11.6771 14.9482 11.6047C14.9759 11.5324 14.9891 11.4553 14.987 11.3778C14.9849 11.3003 14.9675 11.224 14.9359 11.1533C14.9043 11.0825 14.8591 11.0188 14.8029 10.9657Z" fill="#832F34"/>
<path d="M20.5587 12.5C20.5868 12.5044 20.6151 12.5065 20.6435 12.5063C20.7933 12.5086 20.9383 12.4533 21.0487 12.3516C21.159 12.2499 21.2265 12.1096 21.237 11.9595C21.2476 11.8095 21.2005 11.661 21.1054 11.5447C21.0104 11.4285 20.8746 11.3532 20.726 11.3344C20.1659 11.2563 19.8852 10.9883 19.8828 10.9859C19.7758 10.8724 19.6282 10.8062 19.4725 10.802C19.3169 10.7977 19.1659 10.8558 19.0529 10.9633C18.9398 11.0708 18.874 11.2191 18.8697 11.3754C18.8655 11.5317 18.9233 11.6833 19.0303 11.7969C19.0871 11.8547 19.5888 12.3609 20.5587 12.5Z" fill="#832F34"/>
<path d="M16.0747 16.3944C16.1043 16.2101 16.2559 15.6085 16.9964 15.6085C17.7369 15.6085 17.8886 16.2077 17.9181 16.3936C17.9395 16.5478 18.0209 16.6871 18.1446 16.781C18.2682 16.8748 18.4239 16.9155 18.5773 16.894C18.7308 16.8726 18.8695 16.7908 18.963 16.6666C19.0564 16.5424 19.0969 16.3861 19.0755 16.2319C18.9931 15.6069 18.4533 14.4351 16.9964 14.4351C15.5396 14.4351 15.0005 15.6108 14.9173 16.2319C14.8965 16.3866 14.9375 16.5432 15.0314 16.6675C15.1253 16.7918 15.2644 16.8737 15.4182 16.8952C15.444 16.8985 15.47 16.9003 15.496 16.9007C15.6373 16.9014 15.7739 16.8503 15.8804 16.7572C15.9869 16.664 16.056 16.535 16.0747 16.3944Z" fill="#832F34"/>
<path d="M34.7104 27.8336C33.4426 26.8477 31.8652 26.193 30.1524 25.9344C30.1528 25.9323 30.1528 25.9302 30.1524 25.9281C28.7181 24.0414 22.956 22.1367 21.2316 21.6V19.6469C22.1121 18.9766 22.7833 18.1578 23.1473 17.275C23.4064 16.65 23.6249 15.8312 23.8069 14.9609C23.8661 14.9648 23.9244 14.9672 23.9835 14.9672C24.708 14.9685 25.4099 14.7145 25.9672 14.2496C26.5245 13.7846 26.9017 13.138 27.0333 12.4225C27.1648 11.7069 27.0424 10.9677 26.6872 10.3335C26.3321 9.69926 25.7667 9.21024 25.0896 8.95156C25.2024 8.70714 25.2839 8.44936 25.3322 8.18437C25.6146 6.71406 25.1705 4.34375 23.7937 2.84531C22.7087 1.66406 21.3 1.5414 20.6918 1.55C20.0057 0.937498 17.6933 -0.725002 13.6517 0.35781C10.6454 1.16328 8.54688 4.40469 8.32676 6.94687C8.25675 7.75937 8.38432 8.45469 8.68611 8.98437C8.02566 9.26116 7.48105 9.75918 7.14489 10.3937C6.80873 11.0283 6.70178 11.7602 6.84221 12.465C6.98265 13.1698 7.36181 13.804 7.91521 14.2598C8.46861 14.7155 9.1621 14.9647 9.87773 14.9648C9.93607 14.9648 9.99518 14.9648 10.0535 14.9586C10.2363 15.8289 10.4549 16.6461 10.7139 17.2727C11.0779 18.1555 11.7492 18.9742 12.6297 19.6445V21.5977C10.9052 22.1344 5.14314 24.0391 3.70884 25.9258C2.595 27.3937 0.518219 32.8531 0.518219 39.4133C0.518421 39.5683 0.579603 39.7169 0.688435 39.8268C0.797267 39.9367 0.94493 39.999 1.09925 40H28.4295C30.7964 40 33.0264 39.2789 34.7104 37.9687C36.4387 36.625 37.3908 34.825 37.3908 32.9C37.3908 30.975 36.4387 29.1773 34.7104 27.8336ZM25.9078 11.8547C25.9072 12.3601 25.7099 12.8453 25.3581 13.2067C25.0063 13.568 24.5278 13.777 24.0247 13.7891C24.2799 12.2859 24.4354 10.8023 24.5101 9.99375C24.9124 10.1098 25.2663 10.354 25.5185 10.6897C25.7706 11.0254 25.9072 11.4342 25.9078 11.8547ZM7.95029 11.8547C7.95105 11.4339 8.08804 11.0248 8.3406 10.6891C8.59316 10.3534 8.94758 10.1094 9.35037 9.99375C9.42815 10.8023 9.58372 12.2859 9.83651 13.7891C9.3329 13.7778 8.85363 13.5692 8.50116 13.2077C8.14869 12.8463 7.95098 12.3606 7.95029 11.8547ZM9.49116 7.04844C9.67783 4.89219 11.5135 2.14531 13.9535 1.49219C14.6929 1.28644 15.456 1.17875 16.2232 1.17187C18.7449 1.17187 19.9692 2.47031 20.0345 2.5375C20.0968 2.60794 20.1748 2.66253 20.2621 2.69676C20.3495 2.73099 20.4437 2.74388 20.537 2.73437C20.5945 2.72812 21.9565 2.58281 22.9319 3.64375C23.9936 4.79922 24.4098 6.78672 24.1819 7.96484C24.0978 8.4 23.9322 8.70625 23.726 8.80547C23.0105 9.14843 21.6672 8.26797 20.2212 6.50781C19.9993 6.23698 19.6827 6.06177 19.3362 6.01818C18.9897 5.97459 18.6398 6.06593 18.3583 6.27344C17.1216 7.1875 12.8708 10.0781 10.1204 8.79922C9.44293 8.48437 9.4546 7.46953 9.49116 7.04844ZM14.8534 20.8445C14.9987 20.895 15.1578 20.886 15.2964 20.8194C15.4351 20.7529 15.542 20.6341 15.5941 20.4889C15.6462 20.3437 15.6392 20.1838 15.5747 20.0437C15.5101 19.9036 15.3933 19.7947 15.2494 19.7406C13.5918 19.1406 12.2999 18.0469 11.7966 16.8227C11.0966 15.1383 10.7007 11.7703 10.5428 10.1703C10.9188 10.2534 11.3027 10.2948 11.6877 10.2937C14.5377 10.2937 17.6528 8.25625 19.0552 7.21797C19.0957 7.1882 19.1461 7.17518 19.1958 7.18157C19.2456 7.18797 19.2911 7.2133 19.3228 7.25234C21.0783 9.38984 22.396 10.0273 23.3332 10.05C23.1839 11.5945 22.7818 15.0945 22.0677 16.8227C21.5583 18.0469 20.2663 19.1406 18.6088 19.7406C18.5357 19.766 18.4684 19.8058 18.4107 19.8575C18.353 19.9092 18.3062 19.972 18.2728 20.042C18.2395 20.1121 18.2203 20.1881 18.2164 20.2657C18.2126 20.3433 18.2241 20.4208 18.2503 20.4939C18.2765 20.567 18.3169 20.6341 18.3691 20.6914C18.4213 20.7486 18.4844 20.7949 18.5545 20.8275C18.6247 20.8602 18.7006 20.8785 18.7779 20.8814C18.8552 20.8843 18.9323 20.8718 19.0047 20.8445C19.3658 20.714 19.7181 20.56 20.0594 20.3836V22.0352C20.0464 22.8604 19.7109 23.6475 19.1253 24.2266C18.5397 24.8056 17.7508 25.1301 16.9291 25.1301C16.1073 25.1301 15.3185 24.8056 14.7328 24.2266C14.1472 23.6475 13.8117 22.8604 13.7987 22.0352V20.3836C14.1399 20.5602 14.4923 20.7141 14.8534 20.8445ZM1.88641 35.907H6.2422L5.85329 38.8258H1.68962C1.70906 37.8203 1.77907 36.8437 1.88641 35.907ZM7.03402 38.8281L7.88962 32.4039C7.89984 32.3275 7.89497 32.2499 7.87531 32.1754C7.85564 32.1009 7.82156 32.031 7.77501 31.9697C7.681 31.846 7.5419 31.7649 7.38832 31.7441C7.23473 31.7234 7.07925 31.7648 6.95606 31.8593C6.83287 31.9537 6.75208 32.0934 6.73145 32.2477L6.39932 34.7344H2.04352C2.65411 30.7031 3.90485 27.6055 4.64067 26.6406C4.95957 26.2211 6.01196 25.3125 9.47482 23.9562C10.7582 23.4531 11.9778 23.0437 12.7036 22.8109C12.8839 23.8053 13.406 24.7046 14.1787 25.3521C14.9514 25.9996 15.9258 26.3543 16.9322 26.3543C17.9385 26.3543 18.9129 25.9996 19.6856 25.3521C20.4584 24.7046 20.9804 23.8053 21.1608 22.8109C21.8865 23.0453 23.1053 23.4531 24.3895 23.9562C26.3286 24.7172 27.5117 25.3359 28.2335 25.807C27.3195 25.8203 26.4106 25.9471 25.5275 26.1844L23.649 24.6875C23.4482 24.5273 23.2065 24.4271 22.9515 24.3986C22.6966 24.3701 22.4389 24.4143 22.2078 24.5262C21.9768 24.6381 21.7818 24.8131 21.6453 25.0313C21.5089 25.2494 21.4363 25.5017 21.4361 25.7594V28.4586C20.166 29.7133 19.469 31.282 19.469 32.9016C19.469 34.8266 20.4211 36.6266 22.1494 37.9703C22.568 38.2957 23.0144 38.5833 23.4834 38.8297L7.03402 38.8281ZM28.4295 38.8281C24.1336 38.8281 20.6381 36.1719 20.6381 32.9039C20.6381 31.5383 21.2697 30.2031 22.4162 29.1445C22.4758 29.0896 22.5234 29.0228 22.5559 28.9485C22.5885 28.8741 22.6052 28.7937 22.6052 28.7125V25.7594C22.6043 25.7224 22.6143 25.686 22.634 25.6547C22.6536 25.6234 22.682 25.5987 22.7157 25.5836C22.7427 25.57 22.7725 25.5628 22.8028 25.5625C22.8462 25.5631 22.8882 25.5785 22.9218 25.6062L25.032 27.2906C25.1057 27.3498 25.1927 27.3901 25.2854 27.4081C25.378 27.4261 25.4737 27.4211 25.564 27.3937C26.4939 27.1154 27.4593 26.9754 28.4295 26.9781C32.7262 26.9781 36.2217 29.6344 36.2217 32.9016C36.2217 36.1687 32.7262 38.8281 28.4295 38.8281Z" fill="#832F34"/>
<path d="M29.9657 29.3554C29.4424 29.2279 28.8902 29.3136 28.4295 29.5937C27.9692 29.3135 27.4172 29.2278 26.8941 29.3554C26.0852 29.5585 24.794 30.5233 25.1012 32.8515C25.2288 33.8288 25.6169 36.803 28.4295 36.803C31.2421 36.803 31.6311 33.828 31.7586 32.8515C32.0627 30.5233 30.7754 29.5585 29.9657 29.3554ZM30.5997 32.6991C30.3282 34.7796 29.6997 35.6288 28.4295 35.6288C27.1594 35.6288 26.5317 34.7796 26.2602 32.6991C26.0136 30.8093 27.1298 30.5061 27.178 30.4944C27.2411 30.4783 27.3059 30.4701 27.3709 30.4702C27.5388 30.4734 27.7027 30.522 27.8454 30.6108V32.7436C27.8562 32.8917 27.9223 33.0301 28.0305 33.1311C28.1387 33.2322 28.281 33.2883 28.4288 33.2883C28.5765 33.2883 28.7188 33.2322 28.827 33.1311C28.9352 33.0301 29.0014 32.8917 29.0121 32.7436V30.6108C29.11 30.5478 29.2195 30.505 29.3341 30.485C29.4487 30.465 29.5661 30.4682 29.6795 30.4944C29.7301 30.5061 30.8462 30.8093 30.5997 32.6991Z" fill="#832F34"/>
</svg>
