<svg width="40" height="34" viewBox="0 0 40 34" fill="none" xmlns="http://www.w3.org/2000/svg">
<path d="M39.8974 16.6447C35.731 9.99771 28.509 5.88303 20.6667 5.68794V0.333252H19.3333V5.68794C11.4909 5.88303 4.269 9.99771 0.102563 16.6447C-0.0341877 16.8618 -0.0341877 17.1382 0.102563 17.3553C4.269 24.0023 11.4909 28.117 19.3333 28.312V33.6667H20.6667V28.312C28.509 28.117 35.731 24.0023 39.8974 17.3553C40.0343 17.1382 40.0343 16.8618 39.8974 16.6447ZM1.45924 17C4.181 12.8382 8.22868 9.71779 12.946 8.14462C10.4315 10.147 8.88785 13.1245 8.7006 16.3333H3.33324V17.6667H8.7006C8.88785 20.8755 10.4315 23.853 12.946 25.8554C8.22868 24.2822 4.181 21.1618 1.45924 17ZM19.3333 23V26.966C14.3445 26.6272 10.3728 22.6554 10.0339 17.6667H14V16.3333H10.0339C10.3728 11.3445 14.3445 7.37278 19.3333 7.03395V11H20.6667V7.03395C25.6554 7.37278 29.6272 11.3445 29.966 16.3333H26V17.6667H29.966C29.6272 22.6554 25.6554 26.6272 20.6667 26.966V23H19.3333ZM38.5407 17C35.819 21.1618 31.7713 24.2822 27.054 25.8554C29.5685 23.853 31.1121 20.8755 31.2994 17.6667H36.6667V16.3333H31.2994C31.1121 13.1245 29.5685 10.1469 27.054 8.14462C31.7714 9.71788 35.819 12.8382 38.5407 17Z" fill="#832F34"/>
<path d="M20 12.3333C17.4227 12.3333 15.3333 14.4226 15.3333 16.9999C15.3362 19.576 17.4239 21.6637 20 21.6666C22.5773 21.6666 24.6667 19.5773 24.6667 16.9999C24.6667 14.4226 22.5773 12.3333 20 12.3333ZM20 20.3333C18.1591 20.3333 16.6666 18.8409 16.6666 16.9999C16.6688 15.1599 18.16 13.6688 20 13.6666C21.8409 13.6666 23.3333 15.159 23.3333 16.9999C23.3333 18.8409 21.841 20.3333 20 20.3333Z" fill="#832F34"/>
<path d="M3.99992 0.333252C3.63175 0.333252 3.33325 0.631753 3.33325 0.999922V6.33328H4.66659V1.66659H9.33328V0.333252H3.99992V0.333252Z" fill="#832F34"/>
<path d="M36 0.333252H30.6667V1.66659H35.3334V6.33328H36.6667V0.999922C36.6667 0.631753 36.3682 0.333252 36 0.333252Z" fill="#832F34"/>
<path d="M35.3334 27.6667V32.3334H30.6667V33.6668H36C36.3682 33.6668 36.6667 33.3683 36.6667 33.0001V27.6667H35.3334Z" fill="#832F34"/>
<path d="M4.66659 32.3334V27.6667H3.33325V33.0001C3.33325 33.3683 3.63175 33.6668 3.99992 33.6668H9.33328V32.3334H4.66659Z" fill="#832F34"/>
</svg>
