<svg width="36" height="40" viewBox="0 0 36 40" fill="none" xmlns="http://www.w3.org/2000/svg">
<path d="M29.7281 24.8221C30.0396 24.7346 30.2212 24.411 30.1337 24.0995L28.5922 18.6108L28.7245 14.8508C28.7359 14.5274 28.4829 14.256 28.1596 14.2446C27.8378 14.2314 27.5648 14.4861 27.5534 14.8096L27.4182 18.6541C27.4181 18.6565 27.4177 18.6589 27.4176 18.6614C27.1213 27.9917 27.07 29.3764 27.0705 29.3854L27.5786 38.8282H13.5923C13.2686 38.8282 13.0064 39.0906 13.0064 39.4142C13.0064 39.7378 13.2686 40.0001 13.5923 40.0001H27.7848C28.0517 40.0001 28.3101 39.889 28.4936 39.6953C28.6771 39.5015 28.7743 39.2376 28.7599 38.9711L28.242 29.3478L28.4652 22.4929L29.0054 24.4164C29.093 24.7278 29.4161 24.9096 29.7281 24.8221Z" fill="#832F34"/>
<path d="M10.8579 38.828H8.42152C8.42152 38.828 8.93082 29.3516 8.93027 29.3348C8.86574 27.327 8.60425 19.344 8.58261 18.6613C8.58253 18.6588 8.58214 18.6565 8.58207 18.654L8.44683 14.8095C8.43542 14.4861 8.16417 14.234 7.84066 14.2445C7.51722 14.2559 7.26433 14.5273 7.27574 14.8506L7.408 18.6106L5.86652 24.0993C5.77902 24.4109 5.96066 24.7343 6.27214 24.8219C6.58402 24.9094 6.90722 24.7277 6.99472 24.4162L7.53496 22.4927L7.75816 29.3476L7.24027 38.9708C7.22589 39.2374 7.323 39.5013 7.50652 39.6951C7.69003 39.8888 7.94855 39.9999 8.21542 39.9999H10.8579C11.1816 39.9999 11.4439 39.7376 11.4439 39.414C11.4439 39.0904 11.1816 38.828 10.8579 38.828Z" fill="#832F34"/>
<path d="M22.4297 5.54008L30.2 7.9143C30.7904 8.09461 31.2479 8.57852 31.3943 9.17742L34.6958 22.686C34.7725 22.9997 35.089 23.193 35.404 23.1161C35.7184 23.0393 35.9109 22.7222 35.8341 22.4078L32.5326 8.8993C32.2887 7.90086 31.5261 7.09398 30.5423 6.79352L22.7725 4.41945C22.6894 4.39398 22.6336 4.31867 22.6336 4.23203V0.585938C22.6336 0.262344 22.3714 0 22.0477 0C21.724 0 21.4618 0.262344 21.4618 0.585938V4.23203C21.4618 4.83703 21.8506 5.36266 22.4297 5.54008Z" fill="#832F34"/>
<path d="M0.596128 23.1161C0.642847 23.1275 0.689565 23.133 0.735659 23.133C0.999409 23.133 1.23894 22.9536 1.30433 22.686L4.60597 9.17727C4.75222 8.57852 5.2098 8.09453 5.80019 7.91422L13.571 5.53984C14.1496 5.3625 14.5384 4.83687 14.5384 4.23195V0.585938C14.5384 0.262344 14.2761 0 13.9525 0C13.6288 0 13.3665 0.262344 13.3665 0.585938V4.23203C13.3665 4.31867 13.3107 4.39406 13.2282 4.4193L5.45793 6.79352C4.4741 7.09391 3.71152 7.90078 3.46761 8.89914L0.16605 22.4077C0.089253 22.7221 0.281753 23.0392 0.596128 23.1161Z" fill="#832F34"/>
<path d="M18.9453 10.4263C19.207 10.6166 19.5734 10.5588 19.7638 10.297L20.2494 9.62931C20.373 9.45939 20.5723 9.35791 20.7825 9.35791H24.6792C25.0028 9.35791 25.2651 9.09556 25.2651 8.77197C25.2651 8.44838 25.0028 8.18604 24.6792 8.18604H20.7825C20.1986 8.18604 19.645 8.46791 19.3017 8.94002L18.8161 9.60767C18.6257 9.86947 18.6835 10.2359 18.9453 10.4263Z" fill="#832F34"/>
<path d="M10.7352 8.77189C10.7352 9.09549 10.9975 9.35783 11.3211 9.35783H15.2179C15.428 9.35783 15.6273 9.45932 15.7509 9.62932L16.2365 10.297C16.4272 10.5591 16.7938 10.6162 17.055 10.4262C17.3168 10.2358 17.3747 9.86939 17.1843 9.60767L16.6986 8.94002C16.3552 8.46791 15.8017 8.18604 15.2179 8.18604H11.3211C10.9975 8.18596 10.7352 8.4483 10.7352 8.77189Z" fill="#832F34"/>
<path d="M16.4687 30.6508C16.3239 30.9378 16.2424 31.262 16.2424 31.6048V35.5023C16.2424 36.349 16.9312 37.0378 17.778 37.0378H18.2225C19.0692 37.0378 19.758 36.349 19.758 35.5023V33.1898C19.758 33.0822 19.8455 32.9945 19.9533 32.9945H21.6862C22.484 32.9945 23.2298 32.6796 23.7862 32.1077C24.3424 31.536 24.6367 30.7814 24.6148 29.983C24.5898 29.0684 24.1263 28.2532 23.4278 27.7319C24.1482 27.1977 24.6159 26.3411 24.6159 25.3774C24.6159 23.7619 23.3017 22.4477 21.6862 22.4477H20.2213C20.3612 22.1662 20.4399 21.8491 20.4399 21.5139V14.1471C20.4399 13.5016 19.9147 12.9763 19.2691 12.9763H18.0951C17.4494 12.9763 16.9243 13.5016 16.9243 14.1471V15.3591C16.9243 15.6827 17.1866 15.9451 17.5102 15.9451C17.8339 15.9451 18.0956 15.6827 18.0956 15.3591V14.1482H19.2681V21.5139C19.2681 22.0287 18.8493 22.4477 18.3344 22.4477H14.9997C14.676 22.4477 14.4137 22.7101 14.4137 23.0337C14.4137 23.3573 14.676 23.6196 14.9997 23.6196H21.6864C22.6556 23.6196 23.4442 24.4081 23.4442 25.3774C23.4442 26.3466 22.6556 27.1352 21.6864 27.1352H14.9997C14.676 27.1352 14.4137 27.3976 14.4137 27.7212C14.4137 28.0448 14.676 28.3071 14.9997 28.3071H21.6376C22.6076 28.3071 23.4177 29.0734 23.4435 30.0152C23.4566 30.4947 23.2801 30.9477 22.9464 31.2906C22.6126 31.6338 22.1651 31.8228 21.6864 31.8228H19.9534C19.1995 31.8228 18.5862 32.4362 18.5862 33.19V35.5024C18.5862 35.7029 18.423 35.8661 18.2226 35.8661H17.778C17.5775 35.8661 17.4144 35.703 17.4144 35.5024V31.6049C17.4144 31.0789 17.8424 30.6509 18.3684 30.6509H21.0473C21.371 30.6509 21.6333 30.3886 21.6333 30.065C21.6333 29.7414 21.371 29.4791 21.0473 29.4791H14.3142C13.345 29.4791 12.5564 28.6905 12.5564 27.7212C12.5564 26.752 13.3449 25.9634 14.3141 25.9634H21.0473C21.371 25.9634 21.6333 25.7011 21.6333 25.3775C21.6333 25.0539 21.371 24.7916 21.0473 24.7916H14.3141C13.8355 24.7916 13.388 24.6026 13.0542 24.2594C12.7205 23.9164 12.544 23.4634 12.5571 22.9839C12.583 22.0421 13.393 21.2759 14.363 21.2759H16.7289C17.4827 21.2759 18.0961 20.6626 18.0961 19.9087V18.0937C18.0961 17.7701 17.8338 17.5077 17.5101 17.5077C17.1865 17.5077 16.9242 17.7701 16.9242 18.0937V19.9087C16.9242 20.0164 16.8366 20.1041 16.7289 20.1041H14.363C12.7644 20.1041 11.4287 21.3816 11.3857 22.9518C11.3638 23.7503 11.658 24.5049 12.2142 25.0766C12.3216 25.187 12.4362 25.2878 12.5567 25.3787C11.8454 25.9137 11.3845 26.7647 11.3845 27.7212C11.3845 29.3367 12.6987 30.6509 14.3142 30.6509H16.4687V30.6508Z" fill="#832F34"/>
<path d="M34.9268 26.7505L33.2387 27.649L33.1857 27.5358C33.083 27.3161 32.8914 27.1486 32.66 27.0761C32.4286 27.0035 32.1755 27.0318 31.9657 27.1535L30.2165 28.1685C29.9366 28.3309 29.8414 28.6894 30.0037 28.9693C30.1125 29.1567 30.309 29.2613 30.511 29.2613C30.785 29.2613 30.8151 29.1468 32.2655 28.3343L32.3134 28.4368C32.4136 28.6509 32.5998 28.8167 32.824 28.8915C33.0483 28.9664 33.2966 28.9456 33.5057 28.8345L35.4773 27.785C35.763 27.6329 35.8713 27.2781 35.7193 26.9924C35.5672 26.7068 35.2125 26.5983 34.9268 26.7505Z" fill="#832F34"/>
<path d="M34.5244 33.5018L32.7128 32.8894L32.7588 32.7734C32.8483 32.5479 32.8389 32.2935 32.7329 32.0753C32.6271 31.8571 32.433 31.6922 32.2006 31.623L30.2622 31.046C29.9518 30.9537 29.6258 31.1303 29.5335 31.4404C29.4411 31.7506 29.6178 32.0768 29.9279 32.1692L31.5468 32.651L31.505 32.7563C31.4179 32.976 31.425 33.2252 31.5243 33.4398C31.6236 33.6544 31.8089 33.8213 32.0333 33.8967C34.2551 34.6424 34.1661 34.643 34.3369 34.643C34.5813 34.643 34.8094 34.4888 34.8919 34.2445C34.9954 33.9379 34.831 33.6054 34.5244 33.5018Z" fill="#832F34"/>
<path d="M3.17614 28.8915C3.40036 28.8167 3.58653 28.6509 3.68676 28.4368L3.73465 28.3343C5.19614 29.1531 5.21575 29.2613 5.48911 29.2613C5.69114 29.2613 5.88778 29.1567 5.99645 28.9694C6.15879 28.6894 6.06356 28.3309 5.78364 28.1685L4.03442 27.1535C3.82465 27.0316 3.57153 27.0035 3.34012 27.0761C3.10871 27.1486 2.91715 27.3162 2.81442 27.5357L2.76137 27.649L1.07332 26.7505C0.787465 26.5983 0.432777 26.7068 0.280746 26.9925C0.128715 27.2781 0.236918 27.6329 0.522699 27.785L2.4945 28.8347C2.7034 28.9455 2.95153 28.9665 3.17614 28.8915Z" fill="#832F34"/>
<path d="M5.73807 31.0459L3.79971 31.623C3.56721 31.6922 3.37322 31.857 3.26736 32.0752C3.16143 32.2934 3.15197 32.5479 3.24135 32.773L3.28752 32.8894L1.47596 33.5018C1.16932 33.6054 1.00486 33.938 1.10846 34.2445C1.19111 34.4889 1.41916 34.643 1.66346 34.643C1.83385 34.643 1.73791 34.6449 3.96729 33.8966C4.1915 33.8214 4.37666 33.6544 4.47604 33.4398C4.57533 33.2252 4.58244 32.9761 4.49533 32.7562L4.45361 32.651L6.07244 32.1691C6.3826 32.0768 6.55916 31.7505 6.4669 31.4404C6.37447 31.1302 6.04854 30.9538 5.73807 31.0459Z" fill="#832F34"/>
</svg>
