<svg width="35" height="38" viewBox="0 0 35 38" fill="none" xmlns="http://www.w3.org/2000/svg">
<path d="M32.6362 32.9058L29.8426 31.7954C29.5581 31.6825 29.236 31.8223 29.1234 32.1082C29.0108 32.3941 29.1502 32.7175 29.4348 32.8306L32.235 33.9435C33.0699 34.2631 33.2378 35.0518 33.128 35.6299C33.0195 36.201 32.5815 36.863 31.6985 36.863C31.6908 36.863 31.6831 36.8629 31.6755 36.8629C30.7318 36.8599 29.6103 36.8663 28.4227 36.873C22.5083 36.9061 14.4078 36.9521 10.0591 36.063C9.99689 36.0504 9.93289 36.0485 9.87031 36.0574L6.94822 36.4762C5.42492 36.6942 3.92616 36.1173 2.93865 34.932C2.03 33.8414 1.69644 32.3676 2.04647 30.9896L4.07342 23.0095C4.09271 22.9337 4.09581 22.8546 4.08259 22.7774C4.05961 22.6436 1.79095 9.29432 2.13123 0.578544C2.14327 0.271354 1.90504 0.0125539 1.5992 0.000530495C1.29203 -0.0128288 1.03569 0.227788 1.02372 0.534904C0.696084 8.92686 2.74491 21.497 2.97043 22.8485L0.972443 30.7144C0.534555 32.4383 0.951827 34.282 2.08852 35.6464C3.32393 37.1291 5.19925 37.8511 7.10465 37.5782L9.9326 37.1729C13.5134 37.886 19.4008 38.0002 24.6433 38.0002C25.9616 38.0002 27.2392 37.9929 28.4289 37.9861C29.6138 37.9795 30.7332 37.9734 31.6664 37.976C31.6795 37.9762 31.6923 37.9763 31.7052 37.9763C33.1589 37.9761 34.0136 36.9068 34.2165 35.8385C34.422 34.7585 34.0108 33.4319 32.6362 32.9058Z" fill="#832F34"/>
<path d="M17.9936 25.5878L26.8855 31.8014C26.982 31.8688 27.0923 31.9013 27.2015 31.9013C27.3768 31.9013 27.5492 31.8179 27.6569 31.6624C27.8317 31.4101 27.7697 31.0632 27.5185 30.8877L18.6266 24.674C17.5549 23.925 16.915 22.6949 16.915 21.3835V0.556639C16.915 0.249151 16.6668 0 16.3608 0C16.0547 0 15.8066 0.249151 15.8066 0.556639V21.3834C15.8066 23.0591 16.6242 24.6307 17.9936 25.5878Z" fill="#832F34"/>
<path d="M8.2678 31.7273C7.46133 31.7273 6.8053 31.0683 6.8053 30.2583C6.8053 29.9508 6.55717 29.7017 6.2511 29.7017C5.94503 29.7017 5.6969 29.9508 5.6969 30.2583C5.6969 31.6822 6.85023 32.8405 8.2678 32.8405C8.57387 32.8405 8.822 32.5914 8.822 32.2839C8.822 31.9764 8.57387 31.7273 8.2678 31.7273Z" fill="#832F34"/>
<path d="M5.03416 14.676H6.26174V17.2697C6.26174 18.2826 7.08217 19.1066 8.09058 19.1066C8.48783 19.1066 8.81103 19.4312 8.81103 19.8302V21.891C8.81103 22.9038 9.63146 23.7278 10.6398 23.7278C11.6482 23.7278 12.4686 22.9038 12.4686 21.891V14.676H13.6657C13.9718 14.676 14.2199 14.4269 14.2199 14.1194C14.2199 13.8119 13.9718 13.5627 13.6657 13.5627H5.03416C4.7281 13.5627 4.47997 13.8119 4.47997 14.1194C4.47997 14.4269 4.7281 14.676 5.03416 14.676ZM11.3602 14.676V21.891C11.3602 22.29 11.037 22.6146 10.6397 22.6146C10.2426 22.6146 9.91935 22.29 9.91935 21.891V19.8302C9.91935 18.8174 9.09892 17.9934 8.09051 17.9934C7.69326 17.9934 7.37005 17.6687 7.37005 17.2697V14.676H11.3602Z" fill="#832F34"/>
<path d="M22.6038 11.3856V13.8557H21.5969C21.2908 13.8557 21.0427 14.1048 21.0427 14.4123C21.0427 14.7198 21.2908 14.969 21.5969 14.969H32.4871C32.7933 14.969 33.0413 14.7198 33.0413 14.4123C33.0413 14.1048 32.7933 13.8557 32.4871 13.8557H23.7122V11.3856C23.7122 9.73116 24.9148 8.35425 26.4878 8.08833V9.04367C26.4878 9.35116 26.7358 9.60031 27.042 9.60031C27.3481 9.60031 27.5962 9.35116 27.5962 9.04367V8.08833C29.1693 8.35425 30.3717 9.73116 30.3717 11.3856V11.8058C30.3717 12.1133 30.6198 12.3624 30.9259 12.3624C31.2321 12.3624 31.4801 12.1133 31.4801 11.8058V11.3856C31.4801 9.70852 30.5528 8.2453 29.1865 7.48456C30.5528 6.72375 31.4801 5.26061 31.4801 3.58349V1.11328H32.4871C32.7932 1.11328 33.0413 0.864126 33.0413 0.556639C33.0413 0.249151 32.7932 0 32.4871 0H21.5969C21.2908 0 21.0427 0.249151 21.0427 0.556639C21.0427 0.864126 21.2908 1.11328 21.5969 1.11328H22.6038V3.58334C22.6038 5.26046 23.5311 6.72367 24.8975 7.48441C23.5311 8.2453 22.6038 9.70844 22.6038 11.3856ZM27.0421 4.92395C26.3061 4.92395 25.7074 4.32256 25.7074 3.58342V3.11725H28.3768V3.58342C28.3767 4.32256 27.778 4.92395 27.0421 4.92395ZM23.7122 3.58342V1.11328H30.3718V3.58334C30.3718 5.23782 29.1693 6.61472 27.5963 6.88065V5.97281C28.6772 5.71994 29.4851 4.74494 29.4851 3.58342V2.56054C29.4851 2.25305 29.237 2.0039 28.9309 2.0039H25.1531C24.847 2.0039 24.5989 2.25305 24.5989 2.56054V3.58334C24.5989 4.74486 25.407 5.71987 26.4878 5.97273V6.88065C24.9148 6.61472 23.7122 5.23782 23.7122 3.58342Z" fill="#832F34"/>
<path d="M28.9308 11.8518H25.153C24.8469 11.8518 24.5988 12.101 24.5988 12.4085C24.5988 12.7159 24.8469 12.9651 25.153 12.9651H28.9308C29.237 12.9651 29.485 12.7159 29.485 12.4085C29.485 12.101 29.237 11.8518 28.9308 11.8518Z" fill="#832F34"/>
</svg>
