<svg width="41" height="40" viewBox="0 0 41 40" fill="none" xmlns="http://www.w3.org/2000/svg">
<path d="M31.6513 19.5876C31.9735 19.5876 32.2346 19.3253 32.2346 19.0016C32.2346 18.9643 32.2372 18.927 32.2423 18.8906C32.2965 18.5006 32.6302 18.2109 33.0223 18.2109C33.0276 18.2109 33.0331 18.211 33.0384 18.2111C33.4487 18.2194 33.7869 18.5479 33.8081 18.9588C33.8195 19.1785 33.743 19.3869 33.5928 19.5459C33.4424 19.7048 33.2397 19.7924 33.0219 19.7924C32.6996 19.7924 32.4385 20.0547 32.4385 20.3784V21.818C32.4385 22.1416 32.6996 22.4039 33.0219 22.4039C33.3441 22.4039 33.6052 22.1416 33.6052 21.818V20.8741C33.9199 20.7748 34.2087 20.5963 34.4389 20.3527C34.8116 19.9584 35.0013 19.4419 34.9733 18.8981C34.9204 17.8765 34.0808 17.0602 33.0619 17.0395C32.0701 17.0178 31.2232 17.7456 31.0867 18.7285C31.0742 18.8183 31.0679 18.9102 31.0679 19.0016C31.0679 19.3252 31.329 19.5876 31.6513 19.5876Z" fill="#832F34"/>
<path d="M16.3152 9.76562C16.6375 9.76562 16.8986 9.50336 16.8986 9.17969V4.96094C16.8986 4.63727 16.6375 4.375 16.3152 4.375C15.993 4.375 15.7318 4.63727 15.7318 4.96094V9.17969C15.7318 9.50336 15.993 9.76562 16.3152 9.76562Z" fill="#832F34"/>
<path d="M33.9329 12.5C37.364 12.5 40.1555 9.69625 40.1555 6.25C40.1555 2.80375 37.364 0 33.9329 0C30.5018 0 27.7104 2.80375 27.7104 6.25C27.7104 9.69625 30.5018 12.5 33.9329 12.5ZM33.9329 1.17188C36.7207 1.17188 38.9887 3.44992 38.9887 6.25C38.9887 9.05008 36.7207 11.3281 33.9329 11.3281C31.1451 11.3281 28.8771 9.05008 28.8771 6.25C28.8771 3.44992 31.1451 1.17188 33.9329 1.17188Z" fill="#832F34"/>
<path d="M8.52749 4.21062C8.4746 3.18898 7.63502 2.37266 6.61615 2.35203C6.60277 2.35172 6.58947 2.35156 6.57617 2.35156C5.6039 2.35156 4.77567 3.07141 4.64095 4.04102C4.62843 4.13078 4.62213 4.22266 4.62213 4.31414C4.62213 4.63781 4.88325 4.90008 5.2055 4.90008C5.52775 4.90008 5.78886 4.63781 5.78886 4.31414C5.78886 4.2768 5.79143 4.23953 5.79648 4.20312C5.8507 3.81305 6.18446 3.52344 6.57648 3.52344C6.58177 3.52344 6.5873 3.52352 6.59258 3.52359C7.00296 3.53187 7.34108 3.86039 7.36232 4.27133C7.37367 4.49101 7.29721 4.69937 7.14701 4.85836C6.99666 5.01734 6.79396 5.10492 6.57609 5.10492C6.25384 5.10492 5.99273 5.36719 5.99273 5.69086V7.13047C5.99273 7.45414 6.25384 7.7164 6.57609 7.7164C6.89835 7.7164 7.15946 7.45414 7.15946 7.13047V6.18656C7.47417 6.08727 7.76289 5.90875 7.99313 5.66523C8.36578 5.27094 8.55549 4.7543 8.52749 4.21062Z" fill="#832F34"/>
<path d="M6.59281 8.92871C6.27056 8.92871 6.00945 9.19098 6.00945 9.51465V9.55402C6.00945 9.8777 6.27056 10.14 6.59281 10.14C6.91507 10.14 7.17618 9.8777 7.17618 9.55402V9.51465C7.17618 9.19105 6.91499 8.92871 6.59281 8.92871Z" fill="#832F34"/>
<path d="M6.90394 28.46C6.58169 28.46 6.32058 28.7222 6.32058 29.0459V29.0853C6.32058 29.4089 6.58169 29.6712 6.90394 29.6712C7.22619 29.6712 7.48731 29.4089 7.48731 29.0853V29.0459C7.48731 28.7223 7.22611 28.46 6.90394 28.46Z" fill="#832F34"/>
<path d="M6.90363 27.2656C7.22588 27.2656 7.48699 27.0034 7.48699 26.6797V22.4609C7.48699 22.1373 7.22588 21.875 6.90363 21.875C6.58138 21.875 6.32026 22.1373 6.32026 22.4609V26.6797C6.32026 27.0034 6.58138 27.2656 6.90363 27.2656Z" fill="#832F34"/>
<path d="M39.5407 28.9243C39.2188 28.9386 38.9694 29.2123 38.9836 29.5355C38.987 29.612 38.9886 29.6893 38.9886 29.7654C38.9886 32.5655 36.7206 34.8435 33.9328 34.8435C33.5003 34.8435 33.0729 34.7883 32.6589 34.6803C31.9944 33.2776 30.7823 32.1974 29.2622 31.7109C29.0072 31.095 28.8771 30.4419 28.8771 29.7654C28.8771 26.9653 31.1451 24.6872 33.9329 24.6872C35.717 24.6872 37.3882 25.648 38.294 27.1946C38.4574 27.4735 38.8148 27.5667 39.0926 27.4025C39.3703 27.2384 39.463 26.8793 39.2996 26.6004C38.9101 25.9354 38.4053 25.3587 37.8199 24.8895C38.728 23.7768 39.222 22.3961 39.222 20.9373C39.222 17.491 36.4306 14.6873 32.9995 14.6873C31.7808 14.6873 30.6072 15.0426 29.6038 15.7006C29.3616 14.0434 28.6215 12.2536 27.2054 10.9038C26.9716 10.681 26.6025 10.6907 26.3806 10.9254C26.1588 11.1602 26.1685 11.531 26.4021 11.7539C28.2139 13.4808 28.791 16.2293 28.4248 18.0517C28.317 18.5882 28.1356 19.0267 27.8949 19.3459C27.5668 18.1271 26.703 17.4221 26.018 16.9724C24.9753 16.2879 23.9047 16.2519 22.8694 16.2171C21.2967 16.1642 19.6713 16.1084 17.4961 14.0108L17.2745 11.8382C18.8905 10.2698 21.3708 9.73067 23.9703 10.3979C24.0812 10.4263 24.1915 10.4582 24.2981 10.4927C24.6051 10.592 24.9334 10.4227 25.0322 10.1146C25.131 9.8066 24.9625 9.47645 24.6558 9.37723C24.5265 9.33543 24.3931 9.29676 24.2592 9.26239C23.6529 9.10676 23.0515 9.01012 22.4615 8.96864C22.4864 8.74067 22.499 8.5109 22.499 8.28091C22.499 4.83467 19.7076 2.03093 16.2765 2.03093C14.7558 2.03093 13.3054 2.58647 12.1781 3.57858C11.1789 1.46531 9.03376 0 6.55361 0C3.1225 0 0.33107 2.80374 0.33107 6.24998C0.33107 7.752 0.869398 9.20395 1.84688 10.3383C2.05775 10.583 2.42612 10.6097 2.66973 10.3979C2.91335 10.1861 2.93995 9.81613 2.72908 9.57145C1.93509 8.64997 1.4978 7.47036 1.4978 6.24998C1.4978 3.44991 3.76584 1.17187 6.55361 1.17187C9.34139 1.17187 11.6094 3.44991 11.6094 6.24998C11.6094 9.05004 9.34139 11.3281 6.55361 11.3281C5.9249 11.3281 5.3119 11.2138 4.7315 10.9885C4.43118 10.8718 4.09322 11.0219 3.97709 11.3237C3.86088 11.6255 4.01038 11.9648 4.31085 12.0814C5.0259 12.3592 5.78054 12.5 6.55361 12.5C8.12092 12.5 9.55365 11.9136 10.6489 10.9496C10.9147 11.5141 11.2641 12.0368 11.686 12.4998C11.0273 13.3197 10.3825 14.6403 10.3825 16.6682C10.3825 17.8233 10.732 19.2806 11.4798 20.1747C11.1864 20.3586 10.9368 20.6067 10.75 20.8994C9.65244 20.0127 8.30145 19.5312 6.86474 19.5312C3.43363 19.5312 0.642197 22.3349 0.642197 25.7811C0.642197 29.2274 3.43363 32.0311 6.86474 32.0311C10.2958 32.0311 13.0873 29.2274 13.0873 25.7811C13.0873 25.5672 13.076 25.354 13.0545 25.1421C13.0704 25.1437 13.0864 25.1444 13.1024 25.1458C13.302 25.5965 13.5689 26.047 13.9278 26.5479C14.7038 27.6309 15.5406 28.5282 16.3997 29.2154L16.1727 31.1736L14.9552 31.5427C14.8668 31.4147 14.7561 31.3014 14.6242 31.2102C14.297 30.9839 13.8912 30.9203 13.511 31.0354L11.37 31.6843C10.4745 31.9451 9.48544 32.556 8.75484 33.365C8.06071 34.1549 7.59822 35.1277 7.41769 36.1754L6.86334 39.3116C6.80703 39.6302 7.01851 39.9344 7.33571 39.9909C7.37024 39.997 7.40455 40 7.43838 40C7.71583 40 7.96185 39.8004 8.0121 39.5165L8.56684 36.3778C8.71074 35.5431 9.07693 34.771 9.62615 34.1444C10.1264 33.6135 10.8409 33.0564 11.7074 32.8061L13.8481 32.1574C13.8987 32.142 13.9384 32.1588 13.9625 32.1754C13.987 32.1924 14.017 32.2239 14.0209 32.2783C14.0726 33.0035 14.1867 33.8064 14.3601 34.6647C14.4242 34.9819 14.7323 35.1864 15.0478 35.1224C15.3636 35.0581 15.5677 34.7488 15.5036 34.4317C15.3785 33.8127 15.2866 33.2272 15.2286 32.6838L16.1275 32.4112C16.2003 32.9373 16.4093 33.4373 16.7373 33.8475C17.2867 34.5348 18.3465 35.3541 20.2746 35.3541C22.2029 35.3541 23.2626 34.5346 23.8121 33.8472C24.1433 33.4329 24.3533 32.9271 24.4242 32.3955L25.3258 32.6711C25.2549 33.4539 25.125 34.4885 24.8872 35.5906L24.3334 37.5992C24.1381 38.1634 23.9178 38.6826 23.6784 39.1425C23.5293 39.4293 23.6398 39.7833 23.9253 39.9332C24.0116 39.9784 24.104 39.9999 24.1951 39.9999C24.4053 39.9998 24.6084 39.8853 24.7125 39.6852C24.9809 39.1695 25.2262 38.5908 25.4419 37.9653C25.446 37.9537 25.4496 37.9419 25.4529 37.93L26.016 35.8874C26.019 35.8769 26.0215 35.8663 26.0239 35.8556C26.3309 34.4384 26.4676 33.128 26.5282 32.2782C26.5321 32.2239 26.5621 32.1922 26.5866 32.1753C26.6108 32.1586 26.6502 32.1418 26.7011 32.1574L28.8416 32.806C30.4852 33.3046 31.6887 34.6731 31.9828 36.3802L32.5372 39.5164C32.5936 39.835 32.8967 40.0469 33.2136 39.9909C33.5307 39.9342 33.7422 39.6302 33.6859 39.3115C33.5465 38.5404 33.2276 36.6835 33.0893 35.9574C33.3679 35.9953 33.6494 36.0155 33.9329 36.0155C37.364 36.0155 40.1554 33.2117 40.1554 29.7655C40.1554 29.6722 40.1534 29.5775 40.1493 29.4839C40.135 29.1607 39.8618 28.9122 39.5407 28.9243ZM38.0552 20.9374C38.0552 22.1643 37.6245 23.3226 36.8365 24.2423C35.9535 23.7736 34.9584 23.5155 33.9328 23.5155C32.4133 23.5155 31.0199 24.0662 29.9383 24.9782C29.685 24.7846 29.4514 24.5682 29.239 24.3305C29.8096 23.7837 30.1664 23.0125 30.1664 22.1585C30.1664 21.2244 29.6188 20.417 28.8301 20.0438C29.1741 19.5834 29.4266 18.9894 29.5684 18.2837C29.6417 17.9189 29.684 17.519 29.6929 17.0968C30.6117 16.2977 31.7778 15.8593 32.9993 15.8593C35.7872 15.8593 38.0552 18.1374 38.0552 20.9374ZM28.0282 21.0106C28.5778 21.0988 28.9996 21.5792 28.9996 22.1586C28.9996 22.9335 28.5188 23.5969 27.8426 23.8622C27.9893 23.0903 28.0221 22.2041 28.0282 21.0106ZM12.7762 6.24998C12.7762 5.74779 12.7153 5.25982 12.6033 4.79162C13.5573 3.77874 14.8807 3.20311 16.2763 3.20311C19.0641 3.20311 21.3322 5.48115 21.3322 8.28122C21.3322 8.50887 21.3153 8.73583 21.2855 8.96036C19.4506 9.06817 17.7865 9.74402 16.5311 10.93C16.266 10.8353 15.7946 10.7306 15.326 10.7296C14.303 10.7296 13.3286 11.0643 12.522 11.682C12.0834 11.1938 11.7434 10.6255 11.5212 10.009C12.3084 8.96207 12.7762 7.65997 12.7762 6.24998ZM12.8747 12.9229C13.5425 12.2572 14.4235 11.8946 15.3531 11.9016C15.6253 11.9036 15.8788 11.946 16.1211 12.0289L16.3445 14.2193C15.951 15.4342 15.4935 16.3535 14.5945 16.8863C13.4284 17.5774 12.7755 18.4584 12.5815 19.6219C11.9384 19.1052 11.5493 17.6996 11.5493 16.6681C11.5493 15.0824 12.0076 13.7873 12.8747 12.9229ZM11.5493 22.1585C11.5493 21.5792 11.9712 21.0988 12.5207 21.0106C12.5269 22.2041 12.5596 23.0903 12.7063 23.8622C12.0301 23.5969 11.5493 22.9335 11.5493 22.1585ZM11.9206 25.7811C11.9206 28.5812 9.65252 30.8593 6.86474 30.8593C4.07696 30.8593 1.80892 28.5812 1.80892 25.7811C1.80892 22.9811 4.07696 20.703 6.86474 20.703C8.19512 20.703 9.4355 21.2103 10.3831 22.1352C10.383 22.143 10.3825 22.1507 10.3825 22.1585C10.3825 23.2402 10.9541 24.1898 11.8089 24.7175C11.8827 25.0654 11.9206 25.4222 11.9206 25.7811ZM14.8748 25.8634C13.7331 24.2701 13.686 23.4174 13.686 20.4089C13.686 19.2557 14.121 18.5276 15.1874 17.8956C16.2197 17.2838 16.7925 16.3355 17.1931 15.3184C19.4616 17.2754 21.315 17.3377 22.8304 17.3885C23.8247 17.422 24.6101 17.4484 25.3797 17.9536C26.4332 18.6452 26.8628 19.3565 26.8628 20.4089C26.8628 23.4176 26.8158 24.2702 25.6742 25.8634C23.9602 28.2553 21.9921 29.6271 20.2745 29.6271C18.5567 29.6271 16.5886 28.2553 14.8748 25.8634ZM22.9022 33.1136C22.3355 33.8227 21.4514 34.1823 20.2746 34.1823C19.0978 34.1823 18.2138 33.8228 17.6469 33.1138C17.3557 32.7496 17.2209 32.2628 17.2771 31.7784L17.4873 29.9653C18.4248 30.51 19.3697 30.7989 20.2746 30.7989C21.1795 30.7989 22.1247 30.5099 23.0624 29.9649L23.2722 31.7787C23.3281 32.2629 23.1933 32.7494 22.9022 33.1136ZM25.9248 31.2102C25.797 31.2985 25.6887 31.4075 25.6016 31.5306L24.3747 31.1556L24.1502 29.2147C25.009 28.5276 25.8454 27.6306 26.6211 26.5479C26.98 26.0471 27.247 25.5966 27.4466 25.1459C27.7242 25.1218 27.9909 25.0594 28.2417 24.9636C28.5043 25.2769 28.7954 25.5624 29.1131 25.8176C28.2369 26.8947 27.7103 28.2694 27.7103 29.7656C27.7103 30.2882 27.773 30.7998 27.8976 31.296L27.0381 31.0356C26.658 30.9202 26.2521 30.9839 25.9248 31.2102Z" fill="#832F34"/>
<path d="M16.159 37.0182C16.066 36.7084 15.7406 36.5328 15.4321 36.6261C15.1236 36.7194 14.9489 37.0463 15.0417 37.3562C15.4393 38.682 15.7958 39.5912 15.8108 39.6292C15.9015 39.8595 16.1211 39.9998 16.3535 39.9998C16.4249 39.9998 16.4975 39.9866 16.5679 39.9587C16.8676 39.8397 17.0144 39.4992 16.8959 39.1984C16.8924 39.1894 16.5425 38.2974 16.159 37.0182Z" fill="#832F34"/>
<path d="M21.8603 23.066L23.4096 23.9645C23.5015 24.0178 23.6018 24.0431 23.7007 24.0431C23.9024 24.0431 24.0984 23.938 24.2065 23.75C24.3676 23.4698 24.272 23.1114 23.993 22.9496L23.3188 22.5586L23.993 22.1676C24.272 22.0058 24.3676 21.6474 24.2065 21.3672C24.0454 21.0869 23.6885 20.9911 23.4096 21.1528L21.8603 22.0512C21.6799 22.1559 21.5687 22.3492 21.5687 22.5586C21.5687 22.768 21.6799 22.9614 21.8603 23.066Z" fill="#832F34"/>
<path d="M18.6262 22.0512L17.0769 21.1528C16.7979 20.9911 16.441 21.0869 16.28 21.3673C16.1189 21.6475 16.2145 22.0059 16.4935 22.1677L17.1677 22.5587L16.4935 22.9497C16.2145 23.1115 16.1189 23.4698 16.28 23.7501C16.3881 23.938 16.5841 24.0431 16.7858 24.0431C16.8847 24.0431 16.9851 24.0178 17.0769 23.9645L18.6262 23.0661C18.8066 22.9614 18.9178 22.768 18.9178 22.5587C18.9178 22.3493 18.8066 22.1559 18.6262 22.0512Z" fill="#832F34"/>
<path d="M21.4488 27.1484C21.4488 26.8248 21.1877 26.5625 20.8654 26.5625H19.6209C19.2987 26.5625 19.0376 26.8248 19.0376 27.1484C19.0376 27.4721 19.2987 27.7344 19.6209 27.7344H20.8654C21.1877 27.7344 21.4488 27.4721 21.4488 27.1484Z" fill="#832F34"/>
<path d="M19.3362 25.0603C19.6074 25.2419 19.9253 25.3326 20.2431 25.3326C20.5609 25.3326 20.8788 25.2419 21.1499 25.0603C21.4181 24.8808 21.4905 24.5171 21.3119 24.2478C21.1331 23.9785 20.771 23.906 20.503 24.0852C20.3549 24.1844 20.1314 24.1844 19.9832 24.0852C19.7153 23.9059 19.3529 23.9785 19.1743 24.2478C18.9956 24.5171 19.0681 24.8809 19.3362 25.0603Z" fill="#832F34"/>
<path d="M31.6381 6.79688C31.9603 6.79688 32.2215 6.53454 32.2215 6.21094C32.2215 5.88733 31.9603 5.625 31.6381 5.625C31.3159 5.625 31.0547 5.88733 31.0547 6.21094C31.0547 6.53454 31.3159 6.79688 31.6381 6.79688Z" fill="#832F34"/>
<path d="M36.3051 6.79688C36.6273 6.79688 36.8885 6.53454 36.8885 6.21094C36.8885 5.88733 36.6273 5.625 36.3051 5.625C35.9829 5.625 35.7218 5.88733 35.7218 6.21094C35.7218 6.53454 35.9829 6.79688 36.3051 6.79688Z" fill="#832F34"/>
<path d="M33.9716 6.79688C34.2937 6.79688 34.5549 6.53454 34.5549 6.21094C34.5549 5.88733 34.2937 5.625 33.9716 5.625C33.6494 5.625 33.3882 5.88733 33.3882 6.21094C33.3882 6.53454 33.6494 6.79688 33.9716 6.79688Z" fill="#832F34"/>
<path d="M31.5603 30.3125C31.8825 30.3125 32.1437 30.0502 32.1437 29.7266C32.1437 29.403 31.8825 29.1406 31.5603 29.1406C31.2381 29.1406 30.977 29.403 30.977 29.7266C30.977 30.0502 31.2381 30.3125 31.5603 30.3125Z" fill="#832F34"/>
<path d="M36.2273 30.3125C36.5495 30.3125 36.8107 30.0502 36.8107 29.7266C36.8107 29.403 36.5495 29.1406 36.2273 29.1406C35.9052 29.1406 35.644 29.403 35.644 29.7266C35.644 30.0502 35.9052 30.3125 36.2273 30.3125Z" fill="#832F34"/>
<path d="M33.8938 30.3125C34.216 30.3125 34.4771 30.0502 34.4771 29.7266C34.4771 29.403 34.216 29.1406 33.8938 29.1406C33.5716 29.1406 33.3104 29.403 33.3104 29.7266C33.3104 30.0502 33.5716 30.3125 33.8938 30.3125Z" fill="#832F34"/>
</svg>
