<svg width="32" height="36" viewBox="0 0 32 36" fill="none" xmlns="http://www.w3.org/2000/svg">
<path d="M15.941 36C9.57144 36 4.38967 30.7952 4.38967 24.3977V24.2292H4.13717C2.17287 24.2292 0.574829 22.6241 0.574829 20.6511V19.0128C0.574829 17.0398 2.17287 15.4348 4.13717 15.4348H4.38967V10.1616C4.38967 8.14 5.32105 6.21837 6.89481 4.96565C6.83843 4.69174 6.80888 4.4093 6.80888 4.1226C6.80888 3.38598 7.19944 2.62923 7.85353 2.09847C7.86015 2.09318 7.86677 2.08806 7.87373 2.08312L8.27006 1.79897C8.28398 1.78891 8.29875 1.77987 8.31387 1.77151C8.37551 1.73775 8.4453 1.69562 8.52527 1.64735C8.89868 1.42222 9.46294 1.08214 10.3964 0.796288C11.6828 0.372291 13.0411 0.124135 14.5422 0.0395399C20.2924 -0.285195 25.4173 1.41659 27.0004 4.17701C27.2025 4.50515 27.3402 4.75791 27.4743 5.04751C28.7683 7.84272 27.7156 10.7764 27.4923 11.3346V15.4348H27.7681C29.7324 15.4348 31.3304 17.0398 31.3304 19.0128V20.6511C31.3304 22.6241 29.7324 24.2292 27.7681 24.2292H27.4923V24.3977C27.4923 30.7952 22.3106 36 15.941 36ZM5.2387 23.8028V24.3977C5.2387 30.325 10.0398 35.1472 15.941 35.1472C21.8422 35.1472 26.6433 30.325 26.6433 24.3977V20.7835H25.8912C25.7778 20.7835 25.669 20.738 25.5895 20.6569C25.5097 20.5759 25.4655 20.4663 25.4667 20.3523C25.4674 20.3029 25.5182 15.3923 25.1397 13.872C24.7979 12.498 23.8215 11.9497 23.7802 11.927C23.679 11.8715 23.6035 11.7765 23.5729 11.6648C23.5423 11.5531 23.5573 11.4334 23.616 11.3338C23.6216 11.3244 24.1988 10.3314 24.2243 9.37958C24.2282 9.2295 23.598 8.85837 22.7723 8.62829C21.8728 8.44068 21.1883 8.45331 21.1705 8.45296C21.1669 8.45296 21.1634 8.45313 21.1598 8.45313H12.3299C11.0528 8.45313 9.94943 8.23278 9.05048 7.79804C8.90003 7.72538 8.75536 7.64317 8.61663 7.55261C8.2203 8.01311 7.65621 8.79834 7.65774 9.39016C7.66012 10.3326 8.25579 11.3181 8.26208 11.328C8.32338 11.4283 8.34087 11.5499 8.30996 11.6635C8.27906 11.7771 8.20298 11.8731 8.0994 11.9282C8.06035 11.9497 7.08414 12.4982 6.74215 13.8721C6.36366 15.393 6.41443 20.303 6.41511 20.3525C6.41646 20.4664 6.37215 20.5761 6.29234 20.6571C6.2127 20.7381 6.10402 20.7837 5.99059 20.7837H5.23853V23.8028H5.2387ZM27.5156 23.3764H27.7681C29.2644 23.3764 30.4814 22.1539 30.4814 20.6511V19.0128C30.4814 17.5101 29.2643 16.2875 27.7681 16.2875H27.5156V23.3764ZM4.137 16.2874C2.64068 16.2874 1.42368 17.5099 1.42368 19.0126V20.651C1.42368 22.1537 2.64085 23.3763 4.137 23.3763H4.3895V16.2874H4.137ZM26.3185 19.9307H26.6433V11.3577C26.2736 10.5477 25.7026 9.96322 25.0665 9.54178C25.0156 10.2876 24.7284 11.0021 24.5321 11.4129C24.9611 11.7493 25.6637 12.4596 25.9638 13.6649C26.303 15.0288 26.3225 18.6688 26.3185 19.9307ZM5.2387 19.9307H5.56353C5.55963 18.669 5.57916 15.0288 5.91843 13.6651C6.21762 12.4639 6.91654 11.7542 7.34564 11.4163C7.12965 10.9768 6.81092 10.1933 6.80888 9.39186C6.80668 8.48673 7.52546 7.51509 7.95982 7.01042C7.63312 6.67545 7.36534 6.28147 7.17057 5.84622C5.95188 6.93623 5.2387 8.51078 5.2387 10.1616V19.9307ZM21.2357 7.58587C21.8117 7.58587 25.2368 7.69485 26.9654 10.1974C27.0255 9.96748 27.086 9.70022 27.1356 9.40483C26.6374 8.91738 24.8379 7.32219 22.1606 6.81104C20.2889 6.45356 18.0782 6.59222 15.9402 6.72594C14.3506 6.82554 12.7066 6.92872 11.2508 6.81735C9.83923 6.70973 8.86064 6.33963 8.1911 5.92587C8.49828 6.39625 8.925 6.78137 9.43798 7.02611C10.2179 7.39826 11.1902 7.58689 12.3282 7.58689H21.1581C21.1691 7.58638 21.1955 7.58587 21.2357 7.58587ZM19.3179 5.73058C20.358 5.73058 21.3717 5.79215 22.3192 5.97311C24.672 6.42235 26.3743 7.61128 27.2463 8.35217C27.2614 7.97695 27.2505 7.5799 27.2003 7.17296C26.0169 5.983 23.9181 5.15343 21.117 4.76985C19.6343 4.56689 17.9427 4.79782 16.1521 5.04257C14.3476 5.28902 12.4819 5.544 10.8034 5.32228C8.9413 5.07617 8.08786 4.40265 7.69917 3.79872C7.67234 3.90753 7.65825 4.016 7.65825 4.12243C7.65825 4.16268 7.65893 4.20259 7.66046 4.24267C7.79851 4.51095 8.58267 5.75821 11.3155 5.9668C12.7135 6.0734 14.2553 5.97703 15.8877 5.87453C17.0278 5.80324 18.1884 5.73058 19.3179 5.73058ZM19.8888 3.84085C20.3495 3.84085 20.7988 3.86575 21.2315 3.92493C23.6041 4.24966 25.5226 4.89333 26.8714 5.80801C26.8216 5.67396 26.7661 5.54024 26.7046 5.40704C26.5846 5.14797 26.4598 4.91943 26.2736 4.61789C26.2697 4.61158 26.266 4.6051 26.2624 4.59845C24.8531 2.14793 19.9469 0.588894 14.5897 0.890945C13.1637 0.971276 11.8764 1.20613 10.6543 1.60864C10.6492 1.61034 10.6431 1.61222 10.6377 1.61375C9.80374 1.87146 9.29772 2.17641 8.96218 2.37852C8.88068 2.42781 8.80817 2.4713 8.74313 2.50745L8.37788 2.76943C8.3283 2.81019 8.28076 2.85283 8.23525 2.89717C8.28857 3.23316 8.64244 4.17667 10.9139 4.47684C12.48 4.68389 14.2885 4.43659 16.0375 4.19764C17.3266 4.02146 18.6482 3.84085 19.8888 3.84085ZM10.7316 27.7873C10.6439 27.7873 10.5558 27.7602 10.4801 27.7041C9.77436 27.1813 9.42269 26.3163 9.56278 25.4468L9.57824 25.3511C9.6161 25.1186 9.83515 24.9612 10.0654 24.9987C10.2969 25.0366 10.4539 25.2556 10.4162 25.4881L10.4008 25.5832C10.3855 25.6774 10.3795 25.7715 10.3821 25.8645C13.9884 24.0882 19.1967 26.0398 19.4223 26.1258C19.6414 26.2093 19.7514 26.4556 19.6682 26.6756C19.585 26.8956 19.3395 27.006 19.1206 26.9229C19.0685 26.903 13.9256 24.9788 10.6545 26.6814C10.7441 26.808 10.8547 26.9217 10.9837 27.0174C11.1724 27.1573 11.2126 27.4242 11.0734 27.6137C10.9903 27.7273 10.8618 27.7873 10.7316 27.7873ZM20.3671 21.1828C18.941 21.1828 17.7807 20.0174 17.7807 18.5851C17.7807 17.1526 18.941 15.9872 20.3671 15.9872C21.7932 15.9872 22.9534 17.1526 22.9534 18.5851C22.9534 20.0174 21.7932 21.1828 20.3671 21.1828ZM20.3671 16.8398C19.4089 16.8398 18.6297 17.6226 18.6297 18.5849C18.6297 19.5472 19.4091 20.3298 20.3671 20.3298C21.3252 20.3298 22.1044 19.547 22.1044 18.5849C22.1044 17.6226 21.325 16.8398 20.3671 16.8398ZM12.1343 21.1828C10.7083 21.1828 9.54801 20.0174 9.54801 18.5851C9.54801 17.1526 10.7083 15.9872 12.1343 15.9872C13.5605 15.9872 14.7208 17.1526 14.7208 18.5851C14.721 20.0174 13.5607 21.1828 12.1343 21.1828ZM12.1343 16.8398C11.1763 16.8398 10.397 17.6226 10.397 18.5849C10.397 19.5472 11.1764 20.3298 12.1343 20.3298C13.0925 20.3298 13.8718 19.547 13.8718 18.5849C13.8719 17.6226 13.0925 16.8398 12.1343 16.8398ZM20.3671 19.0539C20.1326 19.0539 19.9426 18.8631 19.9426 18.6275V18.5849C19.9426 18.3494 20.1326 18.1585 20.3671 18.1585C20.6016 18.1585 20.7917 18.3494 20.7917 18.5849V18.6275C20.7917 18.8629 20.6015 19.0539 20.3671 19.0539ZM12.1343 19.0539C11.8998 19.0539 11.7098 18.8631 11.7098 18.6275V18.5849C11.7098 18.3494 11.8998 18.1585 12.1343 18.1585C12.3688 18.1585 12.5588 18.3494 12.5588 18.5849V18.6275C12.5588 18.8629 12.3688 19.0539 12.1343 19.0539ZM18.3799 15.9981C18.2278 15.9981 18.0805 15.9157 18.0045 15.7713C17.8948 15.5632 17.9736 15.3051 18.1809 15.195L21.2114 13.5825C21.4189 13.4724 21.6755 13.5517 21.7852 13.7597C21.8949 13.9678 21.8161 14.2259 21.6088 14.3361L18.5782 15.9485C18.5149 15.9821 18.447 15.9981 18.3799 15.9981ZM13.8341 13.7482C13.7773 13.7482 13.7198 13.7367 13.6646 13.7127L10.2649 12.2249C10.05 12.1308 9.95164 11.8796 10.0454 11.6636C10.1391 11.4475 10.3894 11.349 10.6042 11.4431L14.0039 12.9309C14.2188 13.025 14.3172 13.2762 14.2234 13.4922C14.1538 13.6523 13.9978 13.7482 13.8341 13.7482Z" fill="#832F34"/>
</svg>
