<svg width="36" height="40" viewBox="0 0 36 40" fill="none" xmlns="http://www.w3.org/2000/svg">
<path d="M32.4191 26.3075C32.1545 26.4954 32.0924 26.8623 32.2802 27.1268C33.5367 28.8955 34.2007 30.9816 34.2007 33.1591V35.2529H29.7621V32.4837C29.7621 32.1591 29.4991 31.896 29.1745 31.896C28.8499 31.896 28.5868 32.1591 28.5868 32.4837V38.8248H17.982C18.351 38.3339 18.57 37.7241 18.57 37.0641V27.0038C18.6002 26.1877 17.5408 25.7069 16.9465 26.2669L14.3903 28.503H12.0352C13.3438 25.875 15.687 23.9276 18.5106 23.1268C18.7528 25.1529 20.4807 26.7291 22.571 26.7291C24.6612 26.7291 26.3891 25.153 26.6314 23.1269C28.1777 23.5676 29.6093 24.3651 30.8061 25.4594C31.0449 25.6779 31.4168 25.6622 31.6363 25.4222C31.8552 25.1827 31.8386 24.811 31.5991 24.592C30.3981 23.4941 28.9839 22.6655 27.4553 22.1534C28.7889 21.1205 29.7876 19.6758 30.2601 18.0119C30.5263 18.0911 30.8036 18.1324 31.0849 18.1324C32.6804 18.1324 33.9784 16.8344 33.9784 15.2388C33.9784 14.6144 33.779 14.0362 33.4414 13.5629C34.8906 9.96554 34.8973 6.46578 33.4487 3.91601C32.5574 2.34718 31.193 1.33203 29.7049 1.13101C28.1413 0.919917 26.9195 1.27062 26.2752 1.52999C26.1081 1.33554 25.8687 1.10937 25.5338 0.89226C24.5394 0.247338 23.1588 -0.0500834 21.4299 0.00718224C19.992 0.0550729 18.6396 0.624526 17.1744 1.79914C16.9212 2.0021 16.8805 2.37195 17.0835 2.62515C17.2865 2.87828 17.6563 2.91906 17.9095 2.71609C19.1666 1.70835 20.2977 1.22078 21.4692 1.18179C24.7054 1.07359 25.481 2.40617 25.5338 2.50523C25.6513 2.83632 26.0779 2.96914 26.3716 2.77937C26.3843 2.77203 27.6688 2.04179 29.5476 2.29562C30.669 2.4471 31.7184 3.24929 32.4269 4.49648C33.0154 5.53242 34.1456 8.33937 32.5081 12.7209C32.0875 12.4823 31.602 12.3451 31.0849 12.3451C30.9095 12.3451 30.7348 12.3618 30.5631 12.3933V12.2969C30.5631 11.4798 30.2243 10.6986 29.6338 10.1537C28.2925 8.9164 26.774 6.73507 26.1834 5.85468C25.8532 5.33273 25.0506 5.27648 24.6467 5.74179C21.6016 9.06773 17.586 10.1469 16.001 10.4565C15.1769 10.6175 14.5788 11.3445 14.5788 12.1851V12.393C14.4072 12.3616 14.2325 12.3449 14.0571 12.3449C13.7413 12.3449 13.4374 12.3965 13.1526 12.4905C12.6237 11.6265 11.436 9.37882 11.3096 6.44593C11.8413 6.50007 12.5881 6.51687 13.2968 6.3257C14.3241 6.04874 15.2806 5.13656 16.2056 4.25453C16.4405 4.03054 16.4492 3.65867 16.2253 3.42374C16.0014 3.1889 15.6295 3.18007 15.3945 3.40398C14.576 4.1846 13.7295 4.99179 12.991 5.19093C12.0144 5.45421 10.8591 5.18914 10.8485 5.18664C10.4959 5.09328 10.121 5.38468 10.1249 5.7496C10.0726 9.30343 11.4751 12.0105 12.1324 13.0802C11.5384 13.6105 11.1635 14.3813 11.1635 15.2384C11.1635 16.8339 12.4617 18.1319 14.0572 18.1319C14.3385 18.1319 14.6159 18.0906 14.882 18.0115C15.3543 19.6747 16.3523 21.1189 17.685 22.1516C14.5874 23.1842 12.0635 25.4766 10.7388 28.5026H3.56002C1.94112 28.5026 0.624084 29.8197 0.624084 31.4386V37.0638C0.624084 38.6827 1.94112 39.9998 3.56002 39.9998H6.71072C7.03525 39.9998 7.29838 39.7367 7.29838 39.4121C7.29838 39.0875 7.03533 38.8244 6.71072 38.8244H3.56002C2.58924 38.8244 1.79932 38.0346 1.79932 37.0637V31.4385C1.79932 30.4677 2.58916 29.6778 3.56002 29.6778H14.611C14.7534 29.6778 14.8909 29.6262 14.9979 29.5325L17.3949 27.4358V37.0641C17.3949 38.0349 16.605 38.8248 15.6342 38.8248H9.059C8.73439 38.8248 8.47135 39.0879 8.47135 39.4125C8.47135 39.7371 8.73439 40.0001 9.059 40.0001H34.7884C35.113 40.0001 35.3761 39.7371 35.3761 39.4125V33.1592C35.3761 30.7363 34.637 28.415 33.2385 26.4463C33.0506 26.1817 32.6837 26.1194 32.4191 26.3075ZM30.5631 15.8319V13.6016C30.731 13.5483 30.9074 13.5204 31.0849 13.5204C32.0324 13.5204 32.8032 14.2912 32.8032 15.2387C32.8032 16.1862 32.0324 16.9571 31.0849 16.9571C30.8831 16.9571 30.6845 16.9216 30.4974 16.8534C30.5403 16.5187 30.5631 16.178 30.5631 15.8319ZM14.057 16.957C13.1095 16.957 12.3386 16.1862 12.3386 15.2387C12.3386 14.2912 13.1095 13.5203 14.057 13.5203C14.2346 13.5203 14.4109 13.5482 14.5788 13.6016V15.8319C14.5788 16.178 14.6016 16.5187 14.6445 16.8533C14.4574 16.9216 14.2588 16.957 14.057 16.957ZM22.571 25.5539C21.192 25.5539 20.0345 24.5913 19.733 23.303C20.6154 23.6393 21.5719 23.8241 22.571 23.8241C23.57 23.8241 24.5266 23.6392 25.409 23.3029C25.1074 24.5912 23.9499 25.5539 22.571 25.5539ZM15.7541 15.8319V12.1854C15.7541 11.9055 15.9526 11.6637 16.2262 11.6102C17.8968 11.2839 22.0876 10.1581 25.3463 6.71523C26.0367 7.73031 27.5016 9.78585 28.8367 11.0176H28.8368C29.187 11.3407 29.3879 11.807 29.3879 12.297V15.8319C29.3879 19.5908 26.3299 22.6488 22.571 22.6488C18.8121 22.6488 15.7541 19.5908 15.7541 15.8319ZM34.2007 38.8248H29.7621V36.4282H34.2007V38.8248Z" fill="#832F34"/>
<path d="M18.2391 14.8379C18.2785 14.833 19.2163 14.7168 20.0419 14.3578C20.3395 14.2283 20.4758 13.8822 20.3464 13.5845C20.2169 13.2869 19.8707 13.1503 19.5731 13.28C18.9083 13.5691 18.1055 13.67 18.0976 13.6711C17.7757 13.7103 17.5463 14.0029 17.5852 14.3249C17.6212 14.6232 17.8748 14.8422 18.1678 14.8422C18.1913 14.8422 18.2152 14.8407 18.2391 14.8379Z" fill="#832F34"/>
<path d="M25.1001 14.3578C25.9258 14.7168 26.8635 14.833 26.903 14.8379C26.9269 14.8407 26.9506 14.8422 26.9741 14.8422C27.2669 14.8422 27.5202 14.6235 27.5565 14.3254C27.5956 14.0035 27.3663 13.7107 27.0444 13.6711C27.0364 13.67 26.2336 13.5691 25.5688 13.28C25.2708 13.1503 24.9249 13.2869 24.7955 13.5845C24.6661 13.8822 24.8025 14.2283 25.1001 14.3578Z" fill="#832F34"/>
<path d="M21.1257 18.7366H24.0332C24.3579 18.7366 24.6209 18.4735 24.6209 18.1489C24.6209 17.8243 24.3579 17.5613 24.0332 17.5613H21.1257C20.8011 17.5613 20.5381 17.8243 20.5381 18.1489C20.5382 18.4735 20.8012 18.7366 21.1257 18.7366Z" fill="#832F34"/>
<path d="M8.09176 20.086H9.06403L7.64067 21.7914C7.4945 21.9665 7.46286 22.2104 7.55958 22.417C7.65622 22.6235 7.86372 22.7556 8.09184 22.7556H10.32C10.6447 22.7556 10.9077 22.4925 10.9077 22.1679C10.9077 21.8433 10.6447 21.5803 10.32 21.5803H9.3477L10.7711 19.8749C10.9172 19.6998 10.9489 19.4559 10.8522 19.2492C10.7555 19.0427 10.548 18.9106 10.3199 18.9106H8.09168C7.76715 18.9106 7.50403 19.1737 7.50403 19.4983C7.50418 19.8229 7.76723 20.086 8.09176 20.086Z" fill="#832F34"/>
<path d="M31.9725 19.877C31.9725 20.2016 32.2355 20.4646 32.5601 20.4646H33.5324L32.109 22.17C31.9629 22.3452 31.9312 22.589 32.0279 22.7956C32.1246 23.0021 32.3321 23.1341 32.5602 23.1341H34.7883C35.1129 23.1341 35.376 22.8711 35.376 22.5465C35.376 22.222 35.1129 21.9588 34.7883 21.9588H33.8161L35.2394 20.2534C35.3856 20.0783 35.4172 19.8345 35.3205 19.6279C35.2239 19.4213 35.0164 19.2893 34.7883 19.2893H32.5601C32.2355 19.2893 31.9725 19.5524 31.9725 19.877Z" fill="#832F34"/>
<path d="M4.42427 10.4116H5.39653L3.97317 12.117C3.827 12.2922 3.79536 12.536 3.89208 12.7426C3.98872 12.9491 4.19622 13.0812 4.42434 13.0812H6.65247C6.977 13.0812 7.24012 12.8181 7.24012 12.4935C7.24012 12.1689 6.97708 11.9059 6.65247 11.9059H5.68005L7.10341 10.2005C7.24958 10.0253 7.28122 9.78148 7.1845 9.57492C7.08786 9.36836 6.88036 9.23633 6.65223 9.23633H4.42427C4.09966 9.23633 3.83661 9.49938 3.83661 9.82398C3.83661 10.1486 4.09966 10.4116 4.42427 10.4116Z" fill="#832F34"/>
<path d="M13.2213 35.3811C13.2887 35.4079 13.3619 35.4231 13.4388 35.4231C13.7634 35.4231 14.0265 35.1601 14.0265 34.8354V33.5829C14.0265 33.2584 13.7634 32.9953 13.4388 32.9953C13.3619 32.9953 13.2887 33.0105 13.2213 33.0373C13.138 32.3609 12.5609 31.8352 11.8624 31.8352H6.82187C6.06624 31.8352 5.45148 32.4499 5.45148 33.2056V35.2126C5.45148 35.9683 6.06616 36.5831 6.82187 36.5831H11.8624C12.5609 36.5833 13.138 36.0575 13.2213 35.3811ZM12.0575 33.2058V35.2128C12.0575 35.3204 11.97 35.4079 11.8624 35.4079H9.08718V33.0106H11.8624C11.9699 33.0106 12.0575 33.0982 12.0575 33.2058ZM6.82187 35.4079C6.71429 35.4079 6.62679 35.3204 6.62679 35.2128V33.2058C6.62679 33.0982 6.71429 33.0107 6.82187 33.0107H7.91187V35.408H6.82187V35.4079Z" fill="#832F34"/>
</svg>
