<svg width="40" height="40" viewBox="0 0 40 40" fill="none" xmlns="http://www.w3.org/2000/svg">
<path d="M0.694941 39.071C0.724337 39.1388 0.765145 39.201 0.815586 39.2549C0.821393 39.2614 0.823973 39.2698 0.82978 39.2756C0.950846 39.3997 1.11702 39.4695 1.29043 39.4691H1.29881L6.65366 39.5278H6.66075C6.99899 39.5288 7.28055 39.2683 7.30591 38.931C7.60398 35.0246 9.35753 32.7298 10.8362 31.4665C13.5369 31.182 17.0498 30.5904 18.4943 29.6272C19.5052 28.9789 20.0812 27.8302 19.9962 26.6323C19.9565 25.544 19.3638 24.5514 18.4246 24.0001C18.3497 23.9655 18.2791 23.9222 18.2143 23.871C18.2585 23.7459 18.3106 23.6237 18.3704 23.5052C18.6213 23.0409 18.7617 22.5249 18.7808 21.9975C18.8034 21.5449 18.5971 21.1113 18.2317 20.8433C18.0646 20.7261 17.8758 20.6436 17.6762 20.6007C18.2053 19.8265 18.5556 18.9233 17.9466 18.3156C17.7285 18.1131 17.492 17.9314 17.2401 17.773C16.9569 17.5794 16.4304 17.2227 16.4117 17.0259C16.4079 16.9807 16.4543 16.8498 16.6562 16.6472C17.434 15.999 17.8543 15.0174 17.7866 14.0072C17.6544 13.2833 17.1667 12.6747 16.4891 12.3878C16.2956 12.2898 16.0259 12.1769 15.7104 12.0446C14.0214 11.3349 10.8782 10.0136 10.3853 7.05233C9.91152 4.51935 8.43794 2.28375 6.29688 0.849752C6.0872 0.652977 5.76204 0.505881 1.27043 0.645236C1.23116 0.650599 1.19249 0.659671 1.15494 0.672332C1.11323 0.678297 1.07218 0.688235 1.03236 0.70201C0.995297 0.722384 0.960482 0.746603 0.92849 0.774268C0.892885 0.79355 0.859373 0.816468 0.82849 0.842655C0.801989 0.874736 0.778655 0.909306 0.758812 0.945881C0.73417 0.977998 0.712571 1.01234 0.694296 1.04846C0.680328 1.09183 0.671239 1.13662 0.667199 1.18201C0.656616 1.2174 0.649274 1.25368 0.645264 1.2904V38.8259C0.649005 38.8775 0.659192 38.9284 0.675586 38.9775C0.679672 39.0091 0.686142 39.0404 0.694941 39.071ZM6.07624 38.2323L1.93559 38.1859V31.1104C2.91898 31.5988 4.01117 31.8269 5.10785 31.773C5.6414 31.773 6.16333 31.7439 6.64075 31.7169C7.06204 31.6936 7.46011 31.671 7.81301 31.671C8.07107 31.671 8.42527 31.6575 8.84527 31.6336C7.26931 33.4979 6.30286 35.8005 6.07624 38.231V38.2323ZM5.58269 1.92524C7.41623 3.16925 8.68469 5.08666 9.11237 7.26072C9.72269 10.9233 13.4285 12.4814 15.2098 13.2298C15.4943 13.3491 15.7356 13.4498 15.9117 13.5381C16.2108 13.6491 16.436 13.9004 16.5137 14.2098C16.4949 14.8062 16.2122 15.3636 15.742 15.731C15.3305 16.0824 15.1032 16.6033 15.1253 17.1439C15.2008 17.9446 15.9285 18.4388 16.513 18.8362C16.6814 18.9504 16.855 19.0685 16.9711 19.1672C16.6839 19.8203 16.2656 20.4075 15.742 20.8923C15.5304 21.1036 15.4917 21.4327 15.6486 21.6874C15.8055 21.942 16.1168 22.0555 16.4008 21.9614C16.742 21.8265 17.1164 21.7992 17.4737 21.8833C17.4862 21.9187 17.4912 21.9562 17.4885 21.9936C17.4654 22.33 17.3673 22.6569 17.2014 22.9504C16.9504 23.4814 16.484 24.4704 17.8466 25.151C18.3727 25.499 18.6951 26.0824 18.7098 26.713C18.7645 27.4513 18.4068 28.1594 17.7801 28.5536C16.1027 29.6717 9.96011 30.3807 7.81495 30.3807C7.44011 30.3807 7.01817 30.4033 6.57107 30.4291C4.90333 30.5214 2.84527 30.6272 1.93559 29.4123V1.91814C3.52204 1.87814 5.13753 1.87104 5.58269 1.92524Z" fill="#832F34"/>
<path d="M30.5935 14.1665L28.7813 14.9794C28.3601 14.2786 28.0075 13.5389 27.7284 12.7704C27.3993 11.8948 27.251 10.9616 27.2922 10.0271C27.3548 9.06521 28.0071 7.74198 29.0619 7.74198H29.0768C29.4608 7.76203 29.8204 7.93628 30.0742 8.22521C30.447 8.61315 30.6551 9.13039 30.6548 9.66843C30.6638 9.97155 30.5373 10.2629 30.3097 10.4633C30.1736 10.5557 29.9935 10.5503 29.8632 10.4497C29.8052 10.4033 29.6697 10.2949 29.8045 9.85747C29.8723 9.63711 29.8173 9.39735 29.6604 9.22849C29.5034 9.05962 29.2683 8.98732 29.0436 9.03881C28.8189 9.0903 28.6387 9.25776 28.571 9.47811C28.2775 10.1733 28.4759 10.9787 29.0587 11.4581C29.6293 11.9153 30.4321 11.9449 31.0348 11.531C31.6073 11.1029 31.9442 10.4297 31.9439 9.71489C31.9568 8.82879 31.6197 7.97335 31.0058 7.33424C30.5145 6.79466 29.8261 6.47639 29.0968 6.45166H29.0652C27.3232 6.45166 26.1206 8.25811 26.0077 9.94069C25.9548 11.0496 26.1271 12.1576 26.5142 13.1981C26.8042 14.0005 27.1679 14.7744 27.6006 15.5097L26.1039 16.1807C26.0639 15.9871 26.029 15.7833 25.9806 15.5929C25.7258 14.5125 25.2543 13.495 24.5948 12.602C23.5626 11.2542 21.5439 10.4175 20.091 11.4117C19.4944 11.8363 19.0958 12.485 18.9864 13.2091C18.83 14.0812 19.0241 14.9799 19.5264 15.7097C19.9222 16.3046 20.5755 16.6779 21.289 16.7168C22.0232 16.736 22.6797 16.2622 22.8929 15.5594C23.1121 14.8359 22.8271 14.0545 22.1935 13.642C22.0162 13.4846 21.7668 13.4371 21.5441 13.5184C21.3213 13.5997 21.1611 13.7966 21.1269 14.0313C21.0926 14.2659 21.1898 14.5004 21.38 14.642C21.7335 14.931 21.6806 15.0936 21.658 15.1665C21.6064 15.3209 21.4616 15.4249 21.2987 15.4246H21.2955C20.9953 15.383 20.7289 15.2109 20.5677 14.9542C20.2691 14.5061 20.1558 13.9597 20.2516 13.4297C20.3028 13.0488 20.5054 12.7046 20.8135 12.4749C21.6935 11.873 22.9761 12.6175 23.5658 13.3859C24.1192 14.1404 24.5142 14.9992 24.7271 15.9104C24.7916 16.1684 24.8471 16.4426 24.8961 16.7188L21.3729 18.2981C20.8125 18.5502 20.5231 19.1763 20.6942 19.7665L24.0135 31.04C24.2228 31.8137 24.5787 32.54 25.0619 33.1794C26.1467 34.5544 27.7359 35.4391 29.4761 35.6368C31.3364 35.8276 32.9577 36.9863 33.7406 38.6846L33.8697 38.9717C33.973 39.2043 34.2035 39.3544 34.4581 39.3549H37.6671C37.8861 39.355 38.0903 39.2439 38.2092 39.0599C38.3281 38.876 38.3455 38.6442 38.2555 38.4446L37.589 36.9678C36.8278 35.2522 37.0432 33.2604 38.1535 31.7471C39.1616 30.3173 39.5565 28.5438 39.2503 26.8213C39.0958 26.0359 38.7918 25.2875 38.3548 24.6168L32.1374 14.6394C31.816 14.1146 31.1537 13.9117 30.5935 14.1665ZM25.0619 18.0607C25.1133 18.7532 25.125 19.4481 25.0968 20.142C25.0781 20.6104 25.0271 21.0704 24.9735 21.5575C24.949 21.7768 24.9251 21.9975 24.9039 22.2188C24.7813 23.0937 24.8912 23.9855 25.2226 24.8046C25.3135 25.0222 25.516 25.1729 25.7506 25.1974C25.9853 25.222 26.2146 25.1165 26.3486 24.9225C26.4827 24.7284 26.5002 24.4766 26.3942 24.2659C26.1617 23.6531 26.0906 22.9908 26.1877 22.3426C26.2084 22.1271 26.2322 21.9129 26.2522 21.6975C26.3064 21.2097 26.3626 20.7059 26.3813 20.1923C26.42 19.2948 26.3937 18.3957 26.3026 17.502L28.2852 16.6129C28.4277 16.8246 28.5645 17.0349 28.7206 17.251C29.0226 17.6665 29.3484 18.0542 29.6632 18.4297C29.8019 18.5955 29.9406 18.7607 30.0774 18.9284C30.5198 19.4137 30.8294 20.0051 30.9761 20.6452C31.0259 20.9581 31.2954 21.1886 31.6123 21.1891C31.6462 21.1891 31.68 21.1865 31.7135 21.1813C32.0654 21.1255 32.3054 20.7951 32.2497 20.4433C32.0709 19.578 31.668 18.7749 31.0813 18.1142C30.94 17.942 30.7974 17.7717 30.6555 17.602C30.34 17.2271 30.0432 16.8723 29.7684 16.4942C29.6658 16.3529 29.58 16.2175 29.4839 16.0781L31.071 15.3684L35.329 22.1988C34.9676 22.1894 34.6084 22.1396 34.2581 22.0504C32.132 21.424 29.8665 22.4394 28.9193 24.4433C28.2508 25.9451 26.5599 26.704 24.9935 26.2052C24.6284 26.1147 24.2563 26.0542 23.8813 26.0246L21.9458 19.4588L25.0619 18.0607ZM37.9813 27.0504C38.2259 28.4311 37.9089 29.8523 37.1006 30.9981C35.7407 32.8897 35.4788 35.3581 36.4116 37.4929L36.6697 38.0646H34.8761C33.8868 35.9994 31.8967 34.5955 29.6193 34.3562C28.2238 34.1982 26.9491 33.4893 26.0787 32.3871C25.6968 31.8766 25.4162 31.2975 25.2522 30.6813L24.2774 27.3717C24.4174 27.3981 24.5593 27.4284 24.7084 27.462C25.1511 27.5783 25.6057 27.6433 26.0632 27.6555C26.6697 27.6494 27.2677 27.5121 27.8161 27.2529C28.8039 26.8249 29.5983 26.0466 30.0464 25.0678C30.7156 23.5667 32.4064 22.8087 33.9723 23.3078C34.6599 23.5043 35.3833 23.5422 36.0877 23.4188L37.2593 25.2988C37.6095 25.8312 37.8546 26.4258 37.9813 27.0504Z" fill="#832F34"/>
<path d="M29.8711 32.0259C29.1024 31.9406 28.4 31.5509 27.9207 30.9439C27.7247 30.6649 27.5807 30.3528 27.4956 30.0227C27.4308 29.8014 27.2529 29.6315 27.0289 29.5769C26.8049 29.5224 26.5688 29.5915 26.4095 29.7582C26.2503 29.9249 26.1921 30.164 26.2568 30.3852C26.3852 30.8732 26.6041 31.3328 26.902 31.7401C27.5955 32.6205 28.6132 33.186 29.7272 33.3098C29.7507 33.3123 29.7744 33.3136 29.7981 33.3136C30.1472 33.3235 30.4407 33.0538 30.4605 32.7052C30.4802 32.3566 30.219 32.0555 29.8711 32.0259Z" fill="#832F34"/>
</svg>
