<svg width="38" height="40" viewBox="0 0 38 40" fill="none" xmlns="http://www.w3.org/2000/svg">
<path d="M27.1797 20.625C27.1785 20.8571 27.2236 21.0872 27.3121 21.3017C27.4006 21.5163 27.5308 21.7112 27.6953 21.875C28.3508 22.5578 29.5305 22.5578 30.1859 21.875L30.9617 21.1L31.7344 21.875C32.3898 22.5578 33.5695 22.5578 34.225 21.875C34.9078 21.2195 34.9078 20.0398 34.225 19.3844L33.4531 18.6055L34.2281 17.8297C34.9109 17.1742 34.9109 15.9945 34.2281 15.3398C33.5726 14.6562 32.393 14.6562 31.7375 15.3398L30.9625 16.1156L30.1875 15.3406C29.532 14.657 28.3523 14.657 27.6969 15.3406C27.0133 15.9961 27.0133 17.1758 27.6969 17.8313L28.4719 18.607L27.6969 19.382C27.5329 19.5448 27.4027 19.7385 27.314 19.9518C27.2252 20.1651 27.1796 20.3939 27.1797 20.625ZM28.5258 20.2094L29.7164 19.0195C29.8263 18.9093 29.888 18.76 29.888 18.6043C29.888 18.4486 29.8263 18.2993 29.7164 18.1891L28.5258 17C28.4268 16.8878 28.3744 16.7421 28.3792 16.5926C28.3839 16.443 28.4456 16.301 28.5515 16.1953C28.6574 16.0897 28.7997 16.0285 28.9492 16.0241C29.0988 16.0197 29.2443 16.0726 29.3562 16.1719L30.5461 17.3625C30.6563 17.4724 30.8057 17.5341 30.9613 17.5341C31.117 17.5341 31.2663 17.4724 31.3766 17.3625L32.5664 16.1719C32.6776 16.0672 32.8252 16.01 32.9779 16.0123C33.1307 16.0146 33.2765 16.0763 33.3845 16.1843C33.4925 16.2923 33.5542 16.4381 33.5565 16.5908C33.5588 16.7435 33.5015 16.8911 33.3969 17.0023L32.207 18.1922C32.1524 18.2467 32.1091 18.3114 32.0796 18.3827C32.05 18.4539 32.0348 18.5303 32.0348 18.6074C32.0348 18.6846 32.05 18.7609 32.0796 18.8322C32.1091 18.9034 32.1524 18.9682 32.207 19.0227L33.3969 20.2125C33.5015 20.3237 33.5588 20.4713 33.5565 20.6241C33.5542 20.7768 33.4925 20.9226 33.3845 21.0306C33.2765 21.1386 33.1307 21.2003 32.9779 21.2026C32.8252 21.2049 32.6776 21.1476 32.5664 21.043L31.3766 19.8531C31.3221 19.7985 31.2573 19.7552 31.1861 19.7257C31.1148 19.6961 31.0385 19.6809 30.9613 19.6809C30.8842 19.6809 30.8078 19.6961 30.7366 19.7257C30.6653 19.7552 30.6006 19.7985 30.5461 19.8531L29.3562 21.043C29.245 21.1476 29.0974 21.2049 28.9447 21.2026C28.792 21.2003 28.6462 21.1386 28.5382 21.0306C28.4302 20.9226 28.3685 20.7768 28.3662 20.6241C28.3638 20.4713 28.4211 20.3237 28.5258 20.2125V20.2094Z" fill="#832F34"/>
<path d="M14.832 10.9657C14.776 10.9125 14.71 10.871 14.6379 10.8433C14.5658 10.8157 14.4889 10.8026 14.4117 10.8047C14.3345 10.8068 14.2585 10.8241 14.188 10.8556C14.1174 10.8871 14.0538 10.9322 14.0008 10.9884C14.0008 10.9884 13.7164 11.2555 13.1539 11.3368C13.0046 11.3556 12.8683 11.4309 12.7728 11.5472C12.6773 11.6634 12.63 11.8119 12.6406 11.9619C12.6512 12.112 12.7189 12.2523 12.8298 12.354C12.9407 12.4557 13.0863 12.511 13.2367 12.5087C13.265 12.5089 13.2932 12.5068 13.3211 12.5024C14.2961 12.3626 14.8 11.8563 14.8547 11.7993C14.9082 11.7432 14.9501 11.6771 14.9779 11.6047C15.0058 11.5324 15.019 11.4553 15.0169 11.3778C15.0148 11.3003 14.9974 11.224 14.9657 11.1533C14.9339 11.0825 14.8885 11.0188 14.832 10.9657Z" fill="#832F34"/>
<path d="M20.6133 12.5C20.6415 12.5044 20.6699 12.5065 20.6984 12.5063C20.8489 12.5086 20.9945 12.4533 21.1054 12.3516C21.2162 12.2499 21.2839 12.1096 21.2945 11.9595C21.3051 11.8095 21.2578 11.661 21.1624 11.5447C21.0669 11.4285 20.9305 11.3532 20.7813 11.3344C20.2188 11.2563 19.9367 10.9883 19.9344 10.9859C19.8268 10.8724 19.6786 10.8062 19.5223 10.802C19.3659 10.7977 19.2143 10.8558 19.1008 10.9633C18.9872 11.0708 18.9211 11.2191 18.9168 11.3754C18.9126 11.5317 18.9706 11.6833 19.0781 11.7969C19.1352 11.8547 19.6391 12.3609 20.6133 12.5Z" fill="#832F34"/>
<path d="M16.1095 16.3944C16.1392 16.2101 16.2915 15.6085 17.0353 15.6085C17.779 15.6085 17.9313 16.2077 17.961 16.3936C17.9825 16.5478 18.0643 16.6871 18.1885 16.781C18.3126 16.8748 18.469 16.9155 18.6231 16.894C18.7773 16.8726 18.9166 16.7908 19.0105 16.6666C19.1043 16.5424 19.145 16.3861 19.1235 16.2319C19.0407 15.6069 18.4985 14.4351 17.0353 14.4351C15.572 14.4351 15.0306 15.6108 14.947 16.2319C14.9261 16.3866 14.9673 16.5432 15.0616 16.6675C15.1559 16.7918 15.2956 16.8737 15.4501 16.8952C15.476 16.8985 15.5021 16.9003 15.5282 16.9007C15.6701 16.9014 15.8073 16.8503 15.9143 16.7572C16.0213 16.664 16.0907 16.535 16.1095 16.3944Z" fill="#832F34"/>
<path d="M34.8273 27.8336C33.5539 26.8477 31.9695 26.193 30.2492 25.9344C30.2496 25.9323 30.2496 25.9302 30.2492 25.9281C28.8086 24.0414 23.0211 22.1367 21.2891 21.6V19.6469C22.1734 18.9766 22.8477 18.1578 23.2133 17.275C23.4734 16.65 23.693 15.8312 23.8758 14.9609C23.9352 14.9648 23.9937 14.9672 24.0531 14.9672C24.7808 14.9685 25.4858 14.7145 26.0456 14.2496C26.6053 13.7846 26.9842 13.138 27.1163 12.4225C27.2485 11.7069 27.1255 10.9677 26.7688 10.3335C26.412 9.69926 25.8442 9.21024 25.1641 8.95156C25.2774 8.70714 25.3593 8.44936 25.4078 8.18437C25.6914 6.71406 25.2453 4.34375 23.8625 2.84531C22.7727 1.66406 21.3578 1.5414 20.7469 1.55C20.0578 0.937498 17.7352 -0.725002 13.6758 0.35781C10.6562 1.16328 8.54844 4.40469 8.32734 6.94687C8.25703 7.75937 8.38516 8.45469 8.68828 8.98437C8.02492 9.26116 7.47791 9.75918 7.14027 10.3937C6.80263 11.0283 6.6952 11.7602 6.83625 12.465C6.97731 13.1698 7.35814 13.804 7.91398 14.2598C8.46982 14.7155 9.16636 14.9647 9.88516 14.9648C9.94375 14.9648 10.0031 14.9648 10.0617 14.9586C10.2453 15.8289 10.4648 16.6461 10.725 17.2727C11.0906 18.1555 11.7648 18.9742 12.6492 19.6445V21.5977C10.9172 22.1344 5.12969 24.0391 3.68906 25.9258C2.57031 27.3937 0.484375 32.8531 0.484375 39.4133C0.484578 39.5683 0.546029 39.7169 0.655342 39.8268C0.764654 39.9367 0.912967 39.999 1.06797 40H28.5187C30.8961 40 33.1359 39.2789 34.8273 37.9687C36.5633 36.625 37.5195 34.825 37.5195 32.9C37.5195 30.975 36.5633 29.1773 34.8273 27.8336ZM25.9859 11.8547C25.9853 12.3601 25.7871 12.8453 25.4338 13.2067C25.0804 13.568 24.5998 13.777 24.0945 13.7891C24.3508 12.2859 24.507 10.8023 24.582 9.99375C24.9862 10.1098 25.3416 10.354 25.5948 10.6897C25.8481 11.0254 25.9853 11.4342 25.9859 11.8547ZM7.94922 11.8547C7.94998 11.4339 8.08757 11.0248 8.34125 10.6891C8.59492 10.3534 8.9509 10.1094 9.35547 9.99375C9.43359 10.8023 9.58984 12.2859 9.84375 13.7891C9.33792 13.7778 8.85654 13.5692 8.50252 13.2077C8.14849 12.8463 7.94991 12.3606 7.94922 11.8547ZM9.49687 7.04844C9.68437 4.89219 11.5281 2.14531 13.9789 1.49219C14.7216 1.28644 15.488 1.17875 16.2586 1.17187C18.7914 1.17187 20.0211 2.47031 20.0867 2.5375C20.1492 2.60794 20.2276 2.66253 20.3153 2.69676C20.4031 2.73099 20.4977 2.74388 20.5914 2.73437C20.6492 2.72812 22.0172 2.58281 22.9969 3.64375C24.0633 4.79922 24.4813 6.78672 24.2523 7.96484C24.168 8.4 24.0016 8.70625 23.7945 8.80547C23.0758 9.14843 21.7266 8.26797 20.2742 6.50781C20.0514 6.23698 19.7333 6.06177 19.3853 6.01818C19.0373 5.97459 18.6859 6.06593 18.4031 6.27344C17.1609 7.1875 12.8914 10.0781 10.1289 8.79922C9.44844 8.48437 9.46016 7.46953 9.49687 7.04844ZM14.8828 20.8445C15.0287 20.895 15.1885 20.886 15.3278 20.8194C15.467 20.7529 15.5744 20.6341 15.6267 20.4889C15.679 20.3437 15.672 20.1838 15.6072 20.0437C15.5424 19.9036 15.425 19.7947 15.2805 19.7406C13.6156 19.1406 12.318 18.0469 11.8125 16.8227C11.1094 15.1383 10.7117 11.7703 10.5531 10.1703C10.9308 10.2534 11.3164 10.2948 11.7031 10.2937C14.5656 10.2937 17.6945 8.25625 19.1031 7.21797C19.1438 7.1882 19.1944 7.17518 19.2444 7.18157C19.2944 7.18797 19.34 7.2133 19.3719 7.25234C21.1352 9.38984 22.4586 10.0273 23.4 10.05C23.25 11.5945 22.8461 15.0945 22.1289 16.8227C21.6172 18.0469 20.3195 19.1406 18.6547 19.7406C18.5813 19.766 18.5137 19.8058 18.4557 19.8575C18.3978 19.9092 18.3507 19.972 18.3173 20.042C18.2838 20.1121 18.2645 20.1881 18.2606 20.2657C18.2567 20.3433 18.2683 20.4208 18.2946 20.4939C18.3209 20.567 18.3615 20.6341 18.414 20.6914C18.4664 20.7486 18.5297 20.7949 18.6002 20.8275C18.6707 20.8602 18.747 20.8785 18.8246 20.8814C18.9022 20.8843 18.9796 20.8718 19.0523 20.8445C19.4151 20.714 19.7689 20.56 20.1117 20.3836V22.0352C20.0987 22.8604 19.7617 23.6475 19.1735 24.2266C18.5853 24.8056 17.793 25.1301 16.9676 25.1301C16.1422 25.1301 15.3499 24.8056 14.7617 24.2266C14.1734 23.6475 13.8364 22.8604 13.8234 22.0352V20.3836C14.1661 20.5602 14.52 20.7141 14.8828 20.8445ZM1.85859 35.907H6.23359L5.84297 38.8258H1.66094C1.68047 37.8203 1.75078 36.8437 1.85859 35.907ZM7.02891 38.8281L7.88828 32.4039C7.89854 32.3275 7.89366 32.2499 7.8739 32.1754C7.85415 32.1009 7.81992 32.031 7.77317 31.9697C7.67874 31.846 7.53903 31.7649 7.38477 31.7441C7.2305 31.7234 7.07433 31.7648 6.9506 31.8593C6.82687 31.9537 6.74572 32.0934 6.725 32.2477L6.39141 34.7344H2.01641C2.62969 30.7031 3.88594 27.6055 4.625 26.6406C4.94531 26.2211 6.00234 25.3125 9.48047 23.9562C10.7695 23.4531 11.9945 23.0437 12.7234 22.8109C12.9046 23.8053 13.429 24.7046 14.2051 25.3521C14.9812 25.9996 15.9599 26.3543 16.9707 26.3543C17.9815 26.3543 18.9602 25.9996 19.7363 25.3521C20.5125 24.7046 21.0368 23.8053 21.218 22.8109C21.9469 23.0453 23.1711 23.4531 24.4609 23.9562C26.4086 24.7172 27.5969 25.3359 28.3219 25.807C27.4038 25.8203 26.4909 25.9471 25.6039 26.1844L23.7172 24.6875C23.5155 24.5273 23.2726 24.4271 23.0166 24.3986C22.7606 24.3701 22.5017 24.4143 22.2696 24.5262C22.0376 24.6381 21.8418 24.8131 21.7047 25.0313C21.5676 25.2494 21.4947 25.5017 21.4945 25.7594V28.4586C20.2188 29.7133 19.5188 31.282 19.5188 32.9016C19.5188 34.8266 20.475 36.6266 22.2109 37.9703C22.6313 38.2957 23.0797 38.5833 23.5508 38.8297L7.02891 38.8281ZM28.5187 38.8281C24.2039 38.8281 20.693 36.1719 20.693 32.9039C20.693 31.5383 21.3273 30.2031 22.4789 29.1445C22.5388 29.0896 22.5866 29.0228 22.6192 28.9485C22.6519 28.8741 22.6688 28.7937 22.6687 28.7125V25.7594C22.6678 25.7224 22.6779 25.686 22.6976 25.6547C22.7174 25.6234 22.7459 25.5987 22.7797 25.5836C22.8069 25.57 22.8368 25.5628 22.8672 25.5625C22.9108 25.5631 22.953 25.5785 22.9867 25.6062L25.1063 27.2906C25.1803 27.3498 25.2676 27.3901 25.3607 27.4081C25.4538 27.4261 25.5499 27.4211 25.6406 27.3937C26.5746 27.1154 27.5442 26.9754 28.5187 26.9781C32.8344 26.9781 36.3453 29.6344 36.3453 32.9016C36.3453 36.1687 32.8344 38.8281 28.5187 38.8281Z" fill="#832F34"/>
<path d="M30.0617 29.3554C29.5361 29.2279 28.9814 29.3136 28.5188 29.5937C28.0564 29.3135 27.5019 29.2278 26.9766 29.3554C26.1641 29.5585 24.8672 30.5233 25.1758 32.8515C25.3039 33.8288 25.6938 36.803 28.5188 36.803C31.3438 36.803 31.7344 33.828 31.8625 32.8515C32.168 30.5233 30.875 29.5585 30.0617 29.3554ZM30.6984 32.6991C30.4258 34.7796 29.7945 35.6288 28.5188 35.6288C27.243 35.6288 26.6125 34.7796 26.3398 32.6991C26.0922 30.8093 27.2133 30.5061 27.2617 30.4944C27.325 30.4783 27.3901 30.4701 27.4555 30.4702C27.6241 30.4734 27.7887 30.522 27.932 30.6108V32.7436C27.9429 32.8917 28.0093 33.0301 28.118 33.1311C28.2267 33.2322 28.3696 33.2883 28.518 33.2883C28.6664 33.2883 28.8093 33.2322 28.918 33.1311C29.0267 33.0301 29.0931 32.8917 29.1039 32.7436V30.6108C29.2023 30.5478 29.3122 30.505 29.4273 30.485C29.5424 30.465 29.6604 30.4682 29.7742 30.4944C29.825 30.5061 30.9461 30.8093 30.6984 32.6991Z" fill="#832F34"/>
</svg>
