<svg width="40" height="40" viewBox="0 0 40 40" fill="none" xmlns="http://www.w3.org/2000/svg">
<path d="M31.4584 19.5876C31.7821 19.5876 32.0443 19.3253 32.0443 19.0016C32.0443 18.9643 32.0469 18.927 32.052 18.8906C32.1064 18.5006 32.4417 18.2109 32.8354 18.2109C32.8407 18.2109 32.8463 18.211 32.8516 18.2111C33.2638 18.2194 33.6034 18.5479 33.6247 18.9588C33.6361 19.1785 33.5593 19.3869 33.4085 19.5459C33.2574 19.7048 33.0539 19.7924 32.835 19.7924C32.5114 19.7924 32.2491 20.0547 32.2491 20.3784V21.818C32.2491 22.1416 32.5114 22.4039 32.835 22.4039C33.1587 22.4039 33.421 22.1416 33.421 21.818V20.8741C33.7371 20.7748 34.0271 20.5963 34.2583 20.3527C34.6326 19.9584 34.8231 19.4419 34.795 18.8981C34.7419 17.8765 33.8986 17.0602 32.8753 17.0395C31.879 17.0178 31.0285 17.7456 30.8914 18.7285C30.8788 18.8183 30.8725 18.9102 30.8725 19.0016C30.8725 19.3252 31.1347 19.5876 31.4584 19.5876Z" fill="#832F34"/>
<path d="M16.0547 9.76562C16.3784 9.76562 16.6406 9.50336 16.6406 9.17969V4.96094C16.6406 4.63727 16.3784 4.375 16.0547 4.375C15.731 4.375 15.4688 4.63727 15.4688 4.96094V9.17969C15.4688 9.50336 15.731 9.76562 16.0547 9.76562Z" fill="#832F34"/>
<path d="M33.7501 12.5C37.1963 12.5 40.0001 9.69625 40.0001 6.25C40.0001 2.80375 37.1963 0 33.7501 0C30.3038 0 27.5001 2.80375 27.5001 6.25C27.5001 9.69625 30.3038 12.5 33.7501 12.5ZM33.7501 1.17188C36.5502 1.17188 38.8282 3.44992 38.8282 6.25C38.8282 9.05008 36.5502 11.3281 33.7501 11.3281C30.95 11.3281 28.672 9.05008 28.672 6.25C28.672 3.44992 30.95 1.17188 33.7501 1.17188Z" fill="#832F34"/>
<path d="M8.23264 4.21062C8.17951 3.18898 7.33623 2.37266 6.31287 2.35203C6.29943 2.35172 6.28607 2.35156 6.27272 2.35156C5.29615 2.35156 4.46428 3.07141 4.32896 4.04102C4.31639 4.13078 4.31006 4.22266 4.31006 4.31414C4.31006 4.63781 4.57232 4.90008 4.896 4.90008C5.21967 4.90008 5.48193 4.63781 5.48193 4.31414C5.48193 4.2768 5.48451 4.23953 5.48959 4.20312C5.54404 3.81305 5.87928 3.52344 6.27303 3.52344C6.27834 3.52344 6.28389 3.52352 6.2892 3.52359C6.70139 3.53187 7.041 3.86039 7.06232 4.27133C7.07373 4.49101 6.99693 4.69937 6.84607 4.85836C6.69506 5.01734 6.49147 5.10492 6.27264 5.10492C5.94897 5.10492 5.6867 5.36719 5.6867 5.69086V7.13047C5.6867 7.45414 5.94897 7.7164 6.27264 7.7164C6.59631 7.7164 6.85857 7.45414 6.85857 7.13047V6.18656C7.17467 6.08727 7.46467 5.90875 7.69592 5.66523C8.07022 5.27094 8.26076 4.7543 8.23264 4.21062Z" fill="#832F34"/>
<path d="M6.28943 8.92871C5.96576 8.92871 5.70349 9.19098 5.70349 9.51465V9.55402C5.70349 9.8777 5.96576 10.14 6.28943 10.14C6.6131 10.14 6.87537 9.8777 6.87537 9.55402V9.51465C6.87537 9.19105 6.61302 8.92871 6.28943 8.92871Z" fill="#832F34"/>
<path d="M6.60193 28.46C6.27826 28.46 6.01599 28.7222 6.01599 29.0459V29.0853C6.01599 29.4089 6.27826 29.6712 6.60193 29.6712C6.9256 29.6712 7.18787 29.4089 7.18787 29.0853V29.0459C7.18787 28.7223 6.92552 28.46 6.60193 28.46Z" fill="#832F34"/>
<path d="M6.60162 27.2656C6.92529 27.2656 7.18755 27.0034 7.18755 26.6797V22.4609C7.18755 22.1373 6.92529 21.875 6.60162 21.875C6.27794 21.875 6.01568 22.1373 6.01568 22.4609V26.6797C6.01568 27.0034 6.27794 27.2656 6.60162 27.2656Z" fill="#832F34"/>
<path d="M39.3826 28.9243C39.0592 28.9386 38.8088 29.2123 38.823 29.5355C38.8264 29.612 38.8281 29.6893 38.8281 29.7654C38.8281 32.5655 36.55 34.8435 33.75 34.8435C33.3155 34.8435 32.8863 34.7883 32.4704 34.6803C31.803 33.2776 30.5856 32.1974 29.0588 31.7109C28.8026 31.095 28.6719 30.4419 28.6719 29.7654C28.6719 26.9653 30.95 24.6872 33.75 24.6872C35.5421 24.6872 37.2206 25.648 38.1304 27.1946C38.2945 27.4735 38.6535 27.5667 38.9325 27.4025C39.2114 27.2384 39.3046 26.8793 39.1404 26.6004C38.7492 25.9354 38.2421 25.3587 37.6542 24.8895C38.5663 23.7768 39.0625 22.3961 39.0625 20.9373C39.0625 17.491 36.2588 14.6873 32.8125 14.6873C31.5885 14.6873 30.4097 15.0426 29.4019 15.7006C29.1586 14.0434 28.4152 12.2536 26.9929 10.9038C26.7581 10.681 26.3873 10.6907 26.1644 10.9254C25.9417 11.1602 25.9514 11.531 26.1861 11.7539C28.0058 13.4808 28.5855 16.2293 28.2177 18.0517C28.1094 18.5882 27.9272 19.0267 27.6855 19.3459C27.3559 18.1271 26.4883 17.4221 25.8003 16.9724C24.753 16.2879 23.6777 16.2519 22.6378 16.2171C21.0581 16.1642 19.4256 16.1084 17.2408 14.0108L17.0182 11.8382C18.6413 10.2698 21.1326 9.73067 23.7435 10.3979C23.8549 10.4263 23.9657 10.4582 24.0728 10.4927C24.3812 10.592 24.7109 10.4227 24.8102 10.1146C24.9094 9.8066 24.7401 9.47645 24.432 9.37723C24.3022 9.33543 24.1682 9.29676 24.0337 9.26239C23.4248 9.10676 22.8207 9.01012 22.2281 8.96864C22.2531 8.74067 22.2658 8.5109 22.2658 8.28091C22.2658 4.83467 19.462 2.03093 16.0158 2.03093C14.4884 2.03093 13.0316 2.58647 11.8993 3.57858C10.8957 1.46531 8.74114 0 6.25006 0C2.80382 0 7.62939e-05 2.80374 7.62939e-05 6.24998C7.62939e-05 7.752 0.540778 9.20395 1.52257 10.3383C1.73437 10.583 2.10437 10.6097 2.34905 10.3979C2.59374 10.1861 2.62046 9.81613 2.40866 9.57145C1.61116 8.64997 1.17195 7.47036 1.17195 6.24998C1.17195 3.44991 3.44999 1.17187 6.25006 1.17187C9.05012 1.17187 11.3282 3.44991 11.3282 6.24998C11.3282 9.05004 9.05012 11.3281 6.25006 11.3281C5.61857 11.3281 5.00287 11.2138 4.41991 10.9885C4.11827 10.8718 3.77881 11.0219 3.66217 11.3237C3.54545 11.6255 3.69561 11.9648 3.99741 12.0814C4.71561 12.3592 5.47357 12.5 6.25006 12.5C7.82427 12.5 9.26333 11.9136 10.3634 10.9496C10.6304 11.5141 10.9813 12.0368 11.4051 12.4998C10.7435 13.3197 10.0958 14.6403 10.0958 16.6682C10.0958 17.8233 10.4469 19.2806 11.1979 20.1747C10.9032 20.3586 10.6525 20.6067 10.465 20.8994C9.36254 20.0127 8.0056 19.5312 6.56255 19.5312C3.11632 19.5312 0.312575 22.3349 0.312575 25.7811C0.312575 29.2274 3.11632 32.0311 6.56255 32.0311C10.0088 32.0311 12.8125 29.2274 12.8125 25.7811C12.8125 25.5672 12.8012 25.354 12.7796 25.1421C12.7956 25.1437 12.8117 25.1444 12.8277 25.1458C13.0282 25.5965 13.2963 26.047 13.6567 26.5479C14.4362 27.6309 15.2767 28.5282 16.1396 29.2154L15.9115 31.1736L14.6887 31.5427C14.5999 31.4147 14.4887 31.3014 14.3563 31.2102C14.0276 30.9839 13.62 30.9203 13.2382 31.0354L11.0877 31.6843C10.1882 31.9451 9.19481 32.556 8.46099 33.365C7.7638 34.1549 7.29927 35.1277 7.11794 36.1754L6.56115 39.3116C6.50459 39.6302 6.71701 39.9344 7.0356 39.9909C7.07029 39.997 7.10474 40 7.13872 40C7.4174 40 7.6645 39.8004 7.71497 39.5165L8.27216 36.3778C8.41669 35.5431 8.7845 34.771 9.33614 34.1444C9.83864 33.6135 10.5563 33.0564 11.4265 32.8061L13.5767 32.1574C13.6275 32.142 13.6674 32.1588 13.6916 32.1754C13.7162 32.1924 13.7464 32.2239 13.7503 32.2783C13.8022 33.0035 13.9168 33.8064 14.091 34.6647C14.1553 34.9819 14.4648 35.1864 14.7817 35.1224C15.0989 35.0581 15.3039 34.7488 15.2395 34.4317C15.1139 33.8127 15.0215 33.2272 14.9633 32.6838L15.8661 32.4112C15.9393 32.9373 16.1492 33.4373 16.4786 33.8475C17.0305 34.5348 18.0949 35.3541 20.0316 35.3541C21.9684 35.3541 23.0327 34.5346 23.5846 33.8472C23.9173 33.4329 24.1282 32.9271 24.1994 32.3955L25.105 32.6711C25.0338 33.4539 24.9034 34.4885 24.6645 35.5906L24.1083 37.5992C23.912 38.1634 23.6908 38.6826 23.4504 39.1425C23.3005 39.4293 23.4116 39.7833 23.6984 39.9332C23.785 39.9784 23.8778 39.9999 23.9693 39.9999C24.1805 39.9998 24.3844 39.8853 24.4891 39.6852C24.7586 39.1695 25.005 38.5908 25.2216 37.9653C25.2257 37.9537 25.2294 37.9419 25.2326 37.93L25.7983 35.8874C25.8012 35.8769 25.8038 35.8663 25.8062 35.8556C26.1145 34.4384 26.2519 33.128 26.3127 32.2782C26.3166 32.2239 26.3468 32.1922 26.3714 32.1753C26.3957 32.1586 26.4352 32.1418 26.4864 32.1574L28.6363 32.806C30.2872 33.3046 31.496 34.6731 31.7914 36.3802L32.3482 39.5164C32.4048 39.835 32.7093 40.0469 33.0275 39.9909C33.3461 39.9342 33.5586 39.6302 33.502 39.3115C33.3619 38.5404 33.0417 36.6835 32.9027 35.9574C33.1825 35.9953 33.4654 36.0155 33.75 36.0155C37.1963 36.0155 40 33.2117 40 29.7655C40 29.6722 39.998 29.5775 39.9939 29.4839C39.9795 29.1607 39.7051 28.9122 39.3826 28.9243ZM37.8906 20.9374C37.8906 22.1643 37.4579 23.3226 36.6665 24.2423C35.7796 23.7736 34.7801 23.5155 33.75 23.5155C32.2238 23.5155 30.8243 24.0662 29.7379 24.9782C29.4834 24.7846 29.2488 24.5682 29.0354 24.3305C29.6086 23.7837 29.9669 23.0125 29.9669 22.1585C29.9669 21.2244 29.4169 20.417 28.6247 20.0438C28.9703 19.5834 29.2239 18.9894 29.3663 18.2837C29.4399 17.9189 29.4824 17.519 29.4914 17.0968C30.4142 16.2977 31.5854 15.8593 32.8124 15.8593C35.6125 15.8593 37.8906 18.1374 37.8906 20.9374ZM27.8194 21.0106C28.3713 21.0988 28.7951 21.5792 28.7951 22.1586C28.7951 22.9335 28.3121 23.5969 27.633 23.8622C27.7803 23.0903 27.8132 22.2041 27.8194 21.0106ZM12.5 6.24998C12.5 5.74779 12.4389 5.25982 12.3264 4.79162C13.2846 3.77874 14.6139 3.20311 16.0156 3.20311C18.8157 3.20311 21.0938 5.48115 21.0938 8.28122C21.0938 8.50887 21.0768 8.73583 21.0469 8.96036C19.2039 9.06817 17.5325 9.74402 16.2716 10.93C16.0053 10.8353 15.5318 10.7306 15.0611 10.7296C14.0336 10.7296 13.0549 11.0643 12.2448 11.682C11.8043 11.1938 11.4628 10.6255 11.2396 10.009C12.0302 8.96207 12.5 7.65997 12.5 6.24998ZM12.599 12.9229C13.2698 12.2572 14.1546 11.8946 15.0883 11.9016C15.3617 11.9036 15.6164 11.946 15.8597 12.0289L16.0842 14.2193C15.6889 15.4342 15.2293 16.3535 14.3264 16.8863C13.1552 17.5774 12.4993 18.4584 12.3045 19.6219C11.6586 19.1052 11.2678 17.6996 11.2678 16.6681C11.2678 15.0824 11.7281 13.7873 12.599 12.9229ZM11.2678 22.1585C11.2678 21.5792 11.6915 21.0988 12.2435 21.0106C12.2496 22.2041 12.2825 23.0903 12.4299 23.8622C11.7507 23.5969 11.2678 22.9335 11.2678 22.1585ZM11.6407 25.7811C11.6407 28.5812 9.36262 30.8593 6.56255 30.8593C3.76249 30.8593 1.48445 28.5812 1.48445 25.7811C1.48445 22.9811 3.76249 20.703 6.56255 20.703C7.8988 20.703 9.14465 21.2103 10.0964 22.1352C10.0964 22.143 10.0958 22.1507 10.0958 22.1585C10.0958 23.2402 10.67 24.1898 11.5286 24.7175C11.6026 25.0654 11.6407 25.4222 11.6407 25.7811ZM14.6079 25.8634C13.4612 24.2701 13.4139 23.4174 13.4139 20.4089C13.4139 19.2557 13.8508 18.5276 14.9219 17.8956C15.9588 17.2838 16.5341 16.3355 16.9365 15.3184C19.2149 17.2754 21.0765 17.3377 22.5986 17.3885C23.5973 17.422 24.3862 17.4484 25.1591 17.9536C26.2173 18.6452 26.6488 19.3565 26.6488 20.4089C26.6488 23.4176 26.6015 24.2702 25.4549 25.8634C23.7334 28.2553 21.7566 29.6271 20.0314 29.6271C18.306 29.6271 16.3293 28.2553 14.6079 25.8634ZM22.6707 33.1136C22.1015 33.8227 21.2135 34.1823 20.0315 34.1823C18.8495 34.1823 17.9617 33.8228 17.3923 33.1138C17.0998 32.7496 16.9644 32.2628 17.0208 31.7784L17.232 29.9653C18.1736 30.51 19.1227 30.7989 20.0315 30.7989C20.9405 30.7989 21.8898 30.5099 22.8316 29.9649L23.0423 31.7787C23.0985 32.2629 22.9631 32.7494 22.6707 33.1136ZM25.7066 31.2102C25.5783 31.2985 25.4695 31.4075 25.382 31.5306L24.1497 31.1556L23.9242 29.2147C24.7868 28.5276 25.6269 27.6306 26.406 26.5479C26.7665 26.0471 27.0347 25.5966 27.2351 25.1459C27.514 25.1218 27.7819 25.0594 28.0337 24.9636C28.2976 25.2769 28.5899 25.5624 28.909 25.8176C28.029 26.8947 27.5 28.2694 27.5 29.7656C27.5 30.2882 27.563 30.7998 27.6881 31.296L26.8248 31.0356C26.4431 30.9202 26.0354 30.9839 25.7066 31.2102Z" fill="#832F34"/>
<path d="M15.8978 37.0182C15.8044 36.7084 15.4775 36.5328 15.1677 36.6261C14.8579 36.7194 14.6823 37.0463 14.7756 37.3562C15.1749 38.682 15.533 39.5912 15.5481 39.6292C15.6392 39.8595 15.8597 39.9998 16.0932 39.9998C16.1649 39.9998 16.2378 39.9866 16.3085 39.9587C16.6095 39.8397 16.7569 39.4992 16.6379 39.1984C16.6344 39.1894 16.283 38.2974 15.8978 37.0182Z" fill="#832F34"/>
<path d="M21.6243 23.066L23.1804 23.9645C23.2726 24.0178 23.3734 24.0431 23.4728 24.0431C23.6753 24.0431 23.8722 23.938 23.9808 23.75C24.1426 23.4698 24.0465 23.1114 23.7663 22.9496L23.0891 22.5586L23.7663 22.1676C24.0465 22.0058 24.1426 21.6474 23.9808 21.3672C23.819 21.0869 23.4605 20.9911 23.1804 21.1528L21.6243 22.0512C21.443 22.1559 21.3313 22.3492 21.3313 22.5586C21.3313 22.768 21.443 22.9614 21.6243 23.066Z" fill="#832F34"/>
<path d="M18.3758 22.0512L16.8197 21.1528C16.5395 20.9911 16.181 21.0869 16.0193 21.3673C15.8575 21.6475 15.9536 22.0059 16.2338 22.1677L16.911 22.5587L16.2338 22.9497C15.9536 23.1115 15.8575 23.4698 16.0193 23.7501C16.1279 23.938 16.3248 24.0431 16.5273 24.0431C16.6267 24.0431 16.7276 24.0178 16.8197 23.9645L18.3758 23.0661C18.5571 22.9614 18.6688 22.768 18.6688 22.5587C18.6688 22.3493 18.5571 22.1559 18.3758 22.0512Z" fill="#832F34"/>
<path d="M21.2109 27.1484C21.2109 26.8248 20.9487 26.5625 20.625 26.5625H19.375C19.0513 26.5625 18.7891 26.8248 18.7891 27.1484C18.7891 27.4721 19.0513 27.7344 19.375 27.7344H20.625C20.9487 27.7344 21.2109 27.4721 21.2109 27.1484Z" fill="#832F34"/>
<path d="M19.089 25.0603C19.3614 25.2419 19.6807 25.3326 19.9999 25.3326C20.3191 25.3326 20.6384 25.2419 20.9107 25.0603C21.18 24.8808 21.2528 24.5171 21.0734 24.2478C20.8939 23.9785 20.5301 23.906 20.2609 24.0852C20.1121 24.1844 19.8877 24.1844 19.7389 24.0852C19.4697 23.9059 19.1058 23.9785 18.9264 24.2478C18.7469 24.5171 18.8197 24.8809 19.089 25.0603Z" fill="#832F34"/>
<path d="M31.4451 6.79688C31.7687 6.79688 32.0311 6.53454 32.0311 6.21094C32.0311 5.88733 31.7687 5.625 31.4451 5.625C31.1215 5.625 30.8592 5.88733 30.8592 6.21094C30.8592 6.53454 31.1215 6.79688 31.4451 6.79688Z" fill="#832F34"/>
<path d="M36.1327 6.79688C36.4563 6.79688 36.7187 6.53454 36.7187 6.21094C36.7187 5.88733 36.4563 5.625 36.1327 5.625C35.8091 5.625 35.5468 5.88733 35.5468 6.21094C35.5468 6.53454 35.8091 6.79688 36.1327 6.79688Z" fill="#832F34"/>
<path d="M33.7889 6.79688C34.1125 6.79688 34.3748 6.53454 34.3748 6.21094C34.3748 5.88733 34.1125 5.625 33.7889 5.625C33.4653 5.625 33.203 5.88733 33.203 6.21094C33.203 6.53454 33.4653 6.79688 33.7889 6.79688Z" fill="#832F34"/>
<path d="M31.367 30.3125C31.6906 30.3125 31.953 30.0502 31.953 29.7266C31.953 29.403 31.6906 29.1406 31.367 29.1406C31.0434 29.1406 30.7811 29.403 30.7811 29.7266C30.7811 30.0502 31.0434 30.3125 31.367 30.3125Z" fill="#832F34"/>
<path d="M36.0546 30.3125C36.3782 30.3125 36.6406 30.0502 36.6406 29.7266C36.6406 29.403 36.3782 29.1406 36.0546 29.1406C35.731 29.1406 35.4687 29.403 35.4687 29.7266C35.4687 30.0502 35.731 30.3125 36.0546 30.3125Z" fill="#832F34"/>
<path d="M33.7108 30.3125C34.0344 30.3125 34.2967 30.0502 34.2967 29.7266C34.2967 29.403 34.0344 29.1406 33.7108 29.1406C33.3872 29.1406 33.1248 29.403 33.1248 29.7266C33.1248 30.0502 33.3872 30.3125 33.7108 30.3125Z" fill="#832F34"/>
</svg>
