<svg width="40" height="38" viewBox="0 0 40 38" fill="none" xmlns="http://www.w3.org/2000/svg">
<path d="M20 -2.76773e-05C13.0794 -0.0281614 6.42961 2.68713 1.50667 7.5513C1.26533 7.82435 1.28795 8.24059 1.55747 8.48586C1.82698 8.73114 2.2435 8.71456 2.49267 8.44864C12.2363 -1.03854 27.7637 -1.03854 37.5073 8.44864C37.7565 8.71456 38.173 8.73114 38.4425 8.48586C38.712 8.24059 38.7347 7.82435 38.4933 7.5513C33.5704 2.68713 26.9206 -0.0281614 20 -2.76773e-05Z" fill="#832F34"/>
<path d="M16 16.6667C16 18.8759 17.7909 20.6667 20 20.6667C22.2091 20.6667 24 18.8759 24 16.6667C24 14.4576 22.2091 12.6667 20 12.6667C17.7918 12.669 16.0022 14.4585 16 16.6667ZM22.6667 16.6667C22.6667 18.1395 21.4728 19.3334 20 19.3334C18.5272 19.3334 17.3333 18.1395 17.3333 16.6667C17.3333 15.194 18.5272 14.0001 20 14.0001C21.4728 14.0001 22.6667 15.194 22.6667 16.6667Z" fill="#832F34"/>
<path d="M40 16.6473C39.9968 16.2129 39.8517 15.7914 39.5867 15.4473C37.3867 12.6079 29.4827 3.33325 20 3.33325C10.5173 3.33325 2.61333 12.6079 0.417334 15.4506C0.151816 15.7946 0.00638912 16.2161 0.00333405 16.6506V16.6699C0.00333405 16.6759 0.00666738 16.6806 0.00666738 16.6866C0.00943301 17.121 0.154633 17.5426 0.420001 17.8866C1.89267 19.7919 5.93267 24.5853 11.2913 27.5406C10.4967 27.3053 9.70933 27.0346 8.918 26.7179C8.69673 26.6293 8.445 26.6655 8.25764 26.8128C8.07027 26.9601 7.97574 27.1962 8.00964 27.4322C8.04354 27.6681 8.20073 27.868 8.422 27.9566C12.105 29.4083 16.0426 30.1032 20 29.9999C23.9588 30.1024 27.8976 29.4061 31.5813 27.9526C31.9234 27.8156 32.0896 27.4273 31.9527 27.0853C31.8157 26.7432 31.4274 26.577 31.0853 26.7139C30.294 27.0306 29.5067 27.3013 28.712 27.5366C34.0707 24.5813 38.112 19.7879 39.5827 17.8826C39.8485 17.5388 39.994 17.1172 39.9967 16.6826C39.9967 16.6766 40 16.6719 40 16.6659C40 16.6599 40 16.6533 40 16.6473ZM20 4.66659C26.4147 4.66659 32.1333 9.30459 35.61 12.9033C32.4731 11.0978 29.0522 9.83849 25.4933 9.17925C25.4847 9.17925 25.476 9.17925 25.468 9.17459C21.855 8.49751 18.1477 8.49751 14.5347 9.17459C14.526 9.17459 14.5173 9.17459 14.5087 9.17925C10.9491 9.83815 7.52746 11.0974 4.39 12.9033C7.86666 9.30459 13.5853 4.66659 20 4.66659ZM28 16.6666C28.0044 20.394 25.4341 23.6306 21.8025 24.4704C18.1709 25.3103 14.4406 23.5308 12.8081 20.1799C11.1756 16.829 12.0736 12.7947 14.9733 10.4526C18.2973 9.84898 21.7027 9.84898 25.0267 10.4526C26.9101 11.9648 28.0041 14.2512 28 16.6666ZM1.354 16.7906C1.75776 16.3392 2.21284 15.9365 2.71 15.5906C2.68333 15.9819 2.66667 16.3593 2.66667 16.6666C2.67562 17.3698 2.74252 18.071 2.86667 18.7633C2.27733 18.0839 1.80667 17.4966 1.474 17.0673C1.41275 16.9858 1.37164 16.891 1.354 16.7906ZM20 28.6666C13.7687 28.6666 8.194 24.2913 4.69533 20.7419C4.28531 19.42 4.05151 18.0497 4 16.6666C4.00935 15.9824 4.05497 15.2992 4.13667 14.6199C6.76417 12.9871 9.62174 11.7576 12.614 10.9726C9.65065 14.8085 10.1168 20.2743 13.687 23.5529C17.2571 26.8316 22.7429 26.8316 26.313 23.5529C29.8832 20.2743 30.3493 14.8085 27.386 10.9726C30.3794 11.7573 33.2381 12.9868 35.8667 14.6199C35.9472 15.2993 35.9917 15.9825 36 16.6666C35.9485 18.0497 35.7147 19.42 35.3047 20.7419C31.8067 24.2913 26.2313 28.6666 20 28.6666ZM37.1333 18.7633C37.2575 18.071 37.3244 17.3698 37.3333 16.6666C37.3333 16.3593 37.3167 15.9819 37.29 15.5919C37.787 15.938 38.2421 16.3407 38.646 16.7919C38.6288 16.8921 38.5884 16.9868 38.528 17.0686C38.1947 17.4979 37.7247 18.0839 37.1333 18.7633Z" fill="#832F34"/>
<path d="M20.298 31.4033C20.1398 31.3241 19.9566 31.3112 19.7888 31.3672C19.621 31.4232 19.4823 31.5436 19.4033 31.7019L18.07 34.3686C17.9667 34.5753 17.9778 34.8208 18.0994 35.0173C18.2209 35.2138 18.4356 35.3334 18.6667 35.3333H20.2547L19.4033 37.0353C19.2388 37.3648 19.3725 37.7653 19.702 37.9299C20.0315 38.0945 20.4321 37.9608 20.5967 37.6313L21.93 34.9646C22.0333 34.7579 22.0222 34.5124 21.9006 34.3159C21.7791 34.1194 21.5644 33.9998 21.3333 33.9999H19.7453L20.6 32.2979C20.6789 32.1393 20.6914 31.9558 20.6347 31.7879C20.578 31.62 20.4569 31.4816 20.298 31.4033Z" fill="#832F34"/>
<path d="M5.03933 31.6899C5.2586 31.6169 5.4244 31.4355 5.47751 31.2106C5.53061 30.9857 5.46345 30.7493 5.3 30.5859L4.17667 29.4626L5.982 28.8626C6.33178 28.7461 6.52087 28.368 6.40433 28.0183C6.2878 27.6685 5.90978 27.4794 5.56 27.5959L2.73333 28.5393C2.51434 28.6124 2.34877 28.7936 2.29568 29.0183C2.2426 29.243 2.30955 29.4792 2.47267 29.6426L3.596 30.7659L1.79067 31.3659C1.44089 31.4823 1.25165 31.8601 1.368 32.2099C1.48435 32.5597 1.86222 32.7489 2.212 32.6326L5.03933 31.6899Z" fill="#832F34"/>
<path d="M38.2107 31.3673L36.4053 30.7673L37.5287 29.644C37.6918 29.4806 37.7587 29.2444 37.7057 29.0197C37.6526 28.795 37.487 28.6137 37.268 28.5406L34.44 27.6C34.0902 27.4834 33.7122 27.6725 33.5957 28.0223C33.4791 28.3721 33.6682 28.7501 34.018 28.8666L35.8233 29.4666L34.7 30.586C34.5365 30.7493 34.4694 30.9857 34.5225 31.2106C34.5756 31.4356 34.7414 31.6169 34.9607 31.69L37.7893 32.6326C38.0156 32.7079 38.2648 32.6567 38.4431 32.4984C38.6215 32.3401 38.7018 32.0986 38.6538 31.8651C38.6059 31.6315 38.4369 31.4412 38.2107 31.366V31.3673Z" fill="#832F34"/>
</svg>
