<svg width="37" height="40" viewBox="0 0 37 40" fill="none" xmlns="http://www.w3.org/2000/svg">
<path d="M30.2104 24.8221C30.5205 24.7346 30.7014 24.411 30.6143 24.0995L29.0795 18.6108L29.2112 14.8508C29.2226 14.5274 28.9707 14.256 28.6488 14.2446C28.3284 14.2314 28.0566 14.4861 28.0453 14.8096L27.9106 18.6541C27.9106 18.6565 27.9102 18.6589 27.9101 18.6614C27.6151 27.9917 27.564 29.3764 27.5645 29.3854L28.0704 38.8282H14.1455C13.8232 38.8282 13.5621 39.0906 13.5621 39.4142C13.5621 39.7378 13.8232 40.0001 14.1455 40.0001H28.2757C28.5414 40.0001 28.7987 39.889 28.9814 39.6953C29.1641 39.5015 29.2608 39.2376 29.2465 38.9711L28.7308 29.3478L28.9531 22.4929L29.4909 24.4164C29.5781 24.7278 29.8998 24.9096 30.2104 24.8221Z" fill="#832F34"/>
<path d="M11.4231 38.828H8.99739C8.99739 38.828 9.50446 29.3516 9.50391 29.3348C9.43966 27.327 9.17933 19.344 9.15778 18.6613C9.1577 18.6588 9.15731 18.6565 9.15724 18.654L9.0226 14.8095C9.01124 14.4861 8.74118 14.234 8.41909 14.2445C8.09707 14.2559 7.84529 14.5273 7.85664 14.8506L7.98833 18.6106L6.45361 24.0993C6.36649 24.4109 6.54734 24.7343 6.85746 24.8219C7.16796 24.9094 7.48974 24.7277 7.57686 24.4162L8.11472 22.4927L8.33695 29.3476L7.82133 38.9708C7.80702 39.2374 7.9037 39.5013 8.08641 39.6951C8.26912 39.8888 8.5265 39.9999 8.79221 39.9999H11.4231C11.7454 39.9999 12.0065 39.7376 12.0065 39.414C12.0065 39.0904 11.7454 38.828 11.4231 38.828Z" fill="#832F34"/>
<path d="M22.944 5.54008L30.6803 7.9143C31.2681 8.09461 31.7236 8.57852 31.8693 9.17742L35.1563 22.686C35.2327 22.9997 35.5477 23.193 35.8614 23.1161C36.1744 23.0393 36.3661 22.7222 36.2896 22.4078L33.0026 8.8993C32.7598 7.90086 32.0005 7.09398 31.0211 6.79352L23.2853 4.41945C23.2026 4.39398 23.1471 4.31867 23.1471 4.23203V0.585938C23.1471 0.262344 22.886 0 22.5637 0C22.2415 0 21.9804 0.262344 21.9804 0.585938V4.23203C21.9805 4.83703 22.3675 5.36266 22.944 5.54008Z" fill="#832F34"/>
<path d="M1.20635 23.1161C1.25286 23.1275 1.29938 23.133 1.34527 23.133C1.60786 23.133 1.84634 22.9536 1.91144 22.686L5.19859 9.17727C5.3442 8.57852 5.79977 8.09453 6.38757 7.91422L14.1242 5.53984C14.7003 5.3625 15.0874 4.83687 15.0874 4.23195V0.585938C15.0874 0.262344 14.8263 0 14.504 0C14.1818 0 13.9207 0.262344 13.9207 0.585938V4.23203C13.9207 4.31867 13.8651 4.39406 13.7829 4.4193L6.0468 6.79352C5.06729 7.09391 4.30806 7.90078 4.06523 8.89914L0.778158 22.4077C0.701699 22.7221 0.893354 23.0392 1.20635 23.1161Z" fill="#832F34"/>
<path d="M19.4749 10.4263C19.7355 10.6166 20.1003 10.5588 20.2899 10.297L20.7734 9.62931C20.8964 9.45939 21.0948 9.35791 21.3041 9.35791H25.1837C25.5059 9.35791 25.767 9.09556 25.767 8.77197C25.767 8.44838 25.5059 8.18604 25.1837 8.18604H21.3041C20.7228 8.18604 20.1716 8.46791 19.8298 8.94002L19.3463 9.60767C19.1567 9.86947 19.2143 10.2359 19.4749 10.4263Z" fill="#832F34"/>
<path d="M11.3009 8.77189C11.3009 9.09549 11.562 9.35783 11.8843 9.35783H15.7639C15.9731 9.35783 16.1715 9.45932 16.2946 9.62932L16.7781 10.297C16.9679 10.5591 17.3329 10.6162 17.593 10.4262C17.8537 10.2358 17.9112 9.86939 17.7217 9.60767L17.2382 8.94002C16.8962 8.46791 16.3451 8.18604 15.7639 8.18604H11.8843C11.562 8.18596 11.3009 8.4483 11.3009 8.77189Z" fill="#832F34"/>
<path d="M17.0093 30.6508C16.8651 30.9378 16.784 31.262 16.784 31.6048V35.5023C16.784 36.349 17.4698 37.0378 18.3128 37.0378H18.7553C19.5983 37.0378 20.2841 36.349 20.2841 35.5023V33.1898C20.2841 33.0822 20.3713 32.9945 20.4785 32.9945H22.2039C22.9981 32.9945 23.7406 32.6796 24.2946 32.1077C24.8484 31.536 25.1414 30.7814 25.1195 29.983C25.0947 29.0684 24.6333 28.2532 23.9378 27.7319C24.655 27.1977 25.1207 26.3411 25.1207 25.3774C25.1207 23.7619 23.8123 22.4477 22.2039 22.4477H20.7454C20.8847 22.1662 20.963 21.8491 20.963 21.5139V14.1471C20.963 13.5016 20.4401 12.9763 19.7974 12.9763H18.6285C17.9857 12.9763 17.4628 13.5016 17.4628 14.1471V15.3591C17.4628 15.6827 17.7239 15.9451 18.0462 15.9451C18.3685 15.9451 18.629 15.6827 18.629 15.3591V14.1482H19.7964V21.5139C19.7964 22.0287 19.3794 22.4477 18.8667 22.4477H15.5467C15.2244 22.4477 14.9633 22.7101 14.9633 23.0337C14.9633 23.3573 15.2244 23.6196 15.5467 23.6196H22.204C23.169 23.6196 23.9541 24.4081 23.9541 25.3774C23.9541 26.3466 23.169 27.1352 22.204 27.1352H15.5467C15.2244 27.1352 14.9633 27.3976 14.9633 27.7212C14.9633 28.0448 15.2244 28.3071 15.5467 28.3071H22.1555C23.1212 28.3071 23.9278 29.0734 23.9534 30.0152C23.9665 30.4947 23.7907 30.9477 23.4585 31.2906C23.1261 31.6338 22.6806 31.8228 22.204 31.8228H20.4786C19.7281 31.8228 19.1174 32.4362 19.1174 33.19V35.5024C19.1174 35.7029 18.955 35.8661 18.7554 35.8661H18.3128C18.1132 35.8661 17.9508 35.703 17.9508 35.5024V31.6049C17.9508 31.0789 18.3769 30.6509 18.9006 30.6509H21.5678C21.89 30.6509 22.1511 30.3886 22.1511 30.065C22.1511 29.7414 21.89 29.4791 21.5678 29.4791H14.8642C13.8993 29.4791 13.1141 28.6905 13.1141 27.7212C13.1141 26.752 13.8992 25.9634 14.8641 25.9634H21.5678C21.89 25.9634 22.1511 25.7011 22.1511 25.3775C22.1511 25.0539 21.89 24.7916 21.5678 24.7916H14.8641C14.3876 24.7916 13.9421 24.6026 13.6097 24.2594C13.2775 23.9164 13.1018 23.4634 13.1148 22.9839C13.1406 22.0421 13.9471 21.2759 14.9128 21.2759H17.2683C18.0188 21.2759 18.6295 20.6626 18.6295 19.9087V18.0937C18.6295 17.7701 18.3684 17.5077 18.0461 17.5077C17.7239 17.5077 17.4628 17.7701 17.4628 18.0937V19.9087C17.4628 20.0164 17.3756 20.1041 17.2683 20.1041H14.9128C13.3212 20.1041 11.9913 21.3816 11.9486 22.9518C11.9268 23.7503 12.2197 24.5049 12.7734 25.0766C12.8804 25.187 12.9944 25.2878 13.1144 25.3787C12.4062 25.9137 11.9474 26.7647 11.9474 27.7212C11.9474 29.3367 13.2558 30.6509 14.8642 30.6509H17.0093V30.6508Z" fill="#832F34"/>
<path d="M35.3863 26.7505L33.7056 27.649L33.6529 27.5358C33.5506 27.3161 33.3598 27.1486 33.1295 27.0761C32.899 27.0035 32.6471 27.0318 32.4383 27.1535L30.6967 28.1685C30.418 28.3309 30.3232 28.6894 30.4848 28.9693C30.5931 29.1567 30.7888 29.2613 30.99 29.2613C31.2627 29.2613 31.2927 29.1468 32.7367 28.3343L32.7844 28.4368C32.8842 28.6509 33.0695 28.8167 33.2928 28.8915C33.5161 28.9664 33.7633 28.9456 33.9714 28.8345L35.9344 27.785C36.2189 27.6329 36.3267 27.2781 36.1753 26.9924C36.0239 26.7068 35.6708 26.5983 35.3863 26.7505Z" fill="#832F34"/>
<path d="M34.9856 33.5018L33.182 32.8894L33.2278 32.7734C33.317 32.5479 33.3076 32.2935 33.2021 32.0753C33.0967 31.8571 32.9035 31.6922 32.6721 31.623L30.7422 31.046C30.4332 30.9537 30.1086 31.1303 30.0167 31.4404C29.9247 31.7506 30.1006 32.0768 30.4094 32.1692L32.0211 32.651L31.9796 32.7563C31.8929 32.976 31.8999 33.2252 31.9988 33.4398C32.0976 33.6544 32.2821 33.8213 32.5055 33.8967C34.7175 34.6424 34.629 34.643 34.799 34.643C35.0423 34.643 35.2694 34.4888 35.3516 34.2445C35.4547 33.9379 35.2909 33.6054 34.9856 33.5018Z" fill="#832F34"/>
<path d="M3.77486 28.8915C3.9981 28.8167 4.18345 28.6509 4.28325 28.4368L4.33093 28.3343C5.786 29.1531 5.80552 29.2613 6.07768 29.2613C6.27882 29.2613 6.4746 29.1567 6.5828 28.9694C6.74443 28.6894 6.64961 28.3309 6.37092 28.1685L4.62938 27.1535C4.42053 27.0316 4.16852 27.0035 3.93813 27.0761C3.70774 27.1486 3.51702 27.3162 3.41473 27.5357L3.36192 27.649L1.68128 26.7505C1.39668 26.5983 1.04355 26.7068 0.892184 26.9925C0.74082 27.2781 0.848548 27.6329 1.13308 27.785L3.09622 28.8347C3.30421 28.9455 3.55124 28.9665 3.77486 28.8915Z" fill="#832F34"/>
<path d="M6.32573 31.0459L4.39588 31.623C4.1644 31.6922 3.97127 31.857 3.86587 32.0752C3.7604 32.2934 3.75099 32.5479 3.83997 32.773L3.88594 32.8894L2.08233 33.5018C1.77704 33.6054 1.61331 33.938 1.71644 34.2445C1.79874 34.4889 2.02578 34.643 2.26901 34.643C2.43865 34.643 2.34313 34.6449 4.56272 33.8966C4.78596 33.8214 4.9703 33.6544 5.06924 33.4398C5.1681 33.2252 5.17518 32.9761 5.08845 32.7562L5.04692 32.651L6.65864 32.1691C6.96743 32.0768 7.14322 31.7505 7.05136 31.4404C6.95934 31.1302 6.63484 30.9538 6.32573 31.0459Z" fill="#832F34"/>
</svg>
