<svg width="37" height="34" viewBox="0 0 37 34" fill="none" xmlns="http://www.w3.org/2000/svg">
<path d="M10.5166 30.7499C11.8483 30.7499 12.6429 29.8155 12.6429 28.2499C12.6429 27.3111 12.3262 26.8386 12.0468 26.4217C11.7282 25.9461 11.3984 25.4549 11.3984 23.8749C11.3984 15.353 17.4809 4.28985 17.5425 4.17922C17.9296 3.4811 16.9128 2.8636 16.4779 3.5336C16.1176 4.0886 7.66484 17.2317 7.66484 26.3749C7.66484 30.3236 9.65979 30.7499 10.5166 30.7499ZM11.2702 16.3848C10.6069 18.8692 10.1539 21.4517 10.1539 23.8749C10.1539 25.8361 10.6311 26.548 11.0144 27.1199C11.254 27.4774 11.3984 27.6924 11.3984 28.2499C11.3984 29.4999 10.8253 29.4999 10.5166 29.4999C9.18812 29.4999 8.90935 27.8005 8.90935 26.3749C8.90935 23.3392 9.9311 19.7649 11.2702 16.3848Z" fill="#832F34"/>
<path d="M35.0441 23.2498C34.0535 23.1973 32.8301 23.4223 29.8402 22.8417C28.7046 22.621 28.1532 22.5198 27.5279 22.7829C26.503 23.2317 25.9561 24.5192 26.7731 25.7304C28.5054 28.3254 27.3935 31.9998 24.2044 31.9998C23.2436 31.9998 20.11 31.5942 20.11 26.3748C20.11 25.9917 20.1572 25.6548 20.2027 25.3292C20.3694 24.1498 20.2929 23.3523 19.0453 22.7829C18.5686 22.5748 18.2656 22.6067 17.7124 22.6792C15.565 22.9554 14.7903 22.3848 13.8376 22.7835C12.9708 23.1629 12.511 24.1029 12.7456 25.026C12.9839 25.911 13.8874 26.3504 13.8874 28.2498C13.8874 31.0179 12.0704 31.9998 10.5148 31.9998C7.28028 31.9998 6.0563 28.611 6.51242 25.3298C6.63624 24.4404 6.77687 23.4317 5.35564 22.7829C4.65996 22.4785 3.84356 22.6735 2.80439 22.931C2.17342 23.0879 1.5213 23.2498 0.820017 23.2498C-0.00260556 23.2498 -0.00385006 24.4998 0.820017 24.4998C1.67313 24.4998 2.4329 24.311 3.10307 24.1448C3.48452 24.0498 4.51062 23.7767 4.84975 23.9248C5.416 24.1835 5.39796 24.3129 5.27973 25.1567C4.5716 30.2335 7.33753 33.2498 10.5148 33.2498C12.7387 33.2498 15.1319 31.6854 15.1319 28.2498C15.1319 26.5542 14.4711 25.5654 14.1095 25.0235C13.5047 24.131 14.5725 23.8192 14.5097 23.8748C15.1506 23.8748 16.064 24.1523 17.8717 23.9185C18.3272 23.8592 18.3851 23.8567 18.54 23.9248C19.1218 24.1898 19.0845 24.3454 18.9712 25.1535C18.9214 25.5054 18.8654 25.9035 18.8654 26.3748C18.8654 33.0567 23.6581 33.2498 24.2044 33.2498C28.3567 33.2498 30.114 28.4917 27.7992 25.0235C27.1943 24.1279 28.2796 23.8104 28.1993 23.8748C28.6031 23.8748 29.0443 23.9604 29.6037 24.0692C32.809 24.6917 33.9838 24.441 35.0441 24.4998C35.868 24.4998 35.8673 23.2498 35.0441 23.2498Z" fill="#832F34"/>
<path d="M35.2476 0.913028C34.7635 1.35553 23.3594 11.8593 21.0328 20.6943C20.0297 24.508 21.8249 25.438 22.6432 25.6605C24.0239 26.0374 24.9499 25.1993 25.3195 23.7974C25.5578 22.8918 25.3767 22.3543 25.2162 21.8793C25.0326 21.3355 24.8428 20.7736 25.2454 19.2449C27.4146 11.008 36.0291 1.89865 36.1163 1.8074C36.6663 1.22865 35.8356 0.374904 35.2476 0.913028ZM24.0376 22.2805C24.1758 22.6893 24.2592 22.9361 24.1167 23.478C23.925 24.208 23.6381 24.6386 22.9698 24.4549C21.706 24.1111 21.8734 22.3943 22.2362 21.0143C23.001 18.1086 24.8559 14.953 26.9678 12.0574C25.5149 14.6293 23.0987 19.4936 24.0376 22.2805Z" fill="#832F34"/>
<path d="M28.824 19.4448C28.7512 20.2704 29.9908 20.3861 30.0636 19.5554C30.3137 16.7211 31.7013 14.1279 33.8631 12.3329L33.2097 14.3029C32.9496 15.0861 34.1288 15.4842 34.3895 14.6986L35.634 10.9486C35.7653 10.5579 35.4809 10.0761 34.9421 10.1342L31.2085 10.7592C30.399 10.8948 30.5975 12.1254 31.4126 11.9923L32.5874 11.7954C30.4494 13.7754 29.0848 16.4923 28.824 19.4448Z" fill="#832F34"/>
</svg>
