<svg width="135" height="61" viewBox="0 0 135 61" fill="none" xmlns="http://www.w3.org/2000/svg">
<path d="M18.1 21V40.8H14V21H18.1Z" fill="#E2E2E2"/>
<path d="M23.5001 24.5996V26.0996C23.8001 25.4996 24.2001 24.9996 24.6001 24.6996C25.0001 24.3996 25.5001 24.1996 26.0001 24.1996C27.1001 24.1996 27.9001 24.7996 28.5001 25.9996C28.8001 25.3996 29.2001 24.8996 29.6001 24.5996C30.0001 24.2996 30.5001 24.0996 31.0001 24.0996C31.7001 24.0996 32.2001 24.2996 32.7001 24.6996C33.1001 25.0996 33.4001 25.5996 33.5001 26.1996C33.6001 26.7996 33.7001 27.6996 33.7001 29.0996V40.5996H29.9001V30.1996C29.9001 28.7996 29.9001 27.9996 29.8001 27.5996C29.7001 27.2996 29.6001 27.0996 29.3001 27.0996C29.0001 27.0996 28.8001 27.2996 28.8001 27.5996C28.7001 27.8996 28.7001 28.7996 28.7001 30.1996V40.7996H24.9001V30.4996C24.9001 28.8996 24.9001 27.9996 24.8001 27.5996C24.7001 27.1996 24.6001 27.0996 24.3001 27.0996C24.1001 27.0996 24.0001 27.1996 23.9001 27.3996C23.6001 27.5996 23.5001 27.7996 23.5001 27.9996C23.5001 28.1996 23.5001 28.7996 23.5001 29.4996V40.6996H19.6001V24.5996H23.5001Z" fill="#E2E2E2"/>
<path d="M39.0001 24.6002L38.9001 26.1002C39.2001 25.5002 39.6001 25.0002 40.0001 24.7002C40.4001 24.4002 40.9001 24.2002 41.4001 24.2002C42.5001 24.2002 43.3001 24.8002 43.9001 26.0002C44.3001 25.5002 44.6001 25.0002 45.0001 24.7002C45.4001 24.4002 45.9001 24.2002 46.4001 24.2002C47.1001 24.2002 47.6001 24.4002 48.1001 24.8002C48.5001 25.2002 48.8001 25.7002 48.9001 26.3002C49.0001 26.9002 49.1001 27.8002 49.1001 29.2002V40.7002H45.3001V30.2002C45.3001 28.8002 45.3001 28.0002 45.2001 27.6002C45.1001 27.3002 45.0001 27.1002 44.7001 27.1002C44.4001 27.1002 44.2001 27.3002 44.2001 27.6002C44.0001 28.0002 44.0001 28.8002 44.0001 30.2002V40.8002H40.2001V30.5002C40.2001 28.9002 40.2001 28.0002 40.1001 27.6002C40.0001 27.2002 39.9001 27.1002 39.6001 27.1002C39.4001 27.1002 39.3001 27.2002 39.2001 27.4002C39.0001 27.6002 38.9001 27.8002 38.9001 28.0002C38.9001 28.2002 38.9001 28.8002 38.9001 29.5002V40.7002H35.1001V24.6002H39.0001Z" fill="#E2E2E2"/>
<path d="M59.4999 24.5996V40.7996H55.4999L55.5999 39.4996C55.2999 39.9996 54.9999 40.4996 54.5999 40.6996C54.1999 40.8996 53.6999 41.0996 53.1999 41.0996C52.5999 41.0996 52.0999 40.9996 51.6999 40.6996C51.2999 40.3996 50.9999 40.0996 50.7999 39.6996C50.5999 39.2996 50.4999 38.7996 50.4999 38.3996C50.4999 37.8996 50.3999 36.9996 50.3999 35.5996V24.5996H54.2999V35.5996C54.2999 36.8996 54.2999 37.5996 54.3999 37.7996C54.4999 37.9996 54.5999 38.1996 54.8999 38.1996C55.1999 38.1996 55.3999 38.0996 55.3999 37.7996C55.3999 37.4996 55.4999 36.7996 55.4999 35.3996V24.5996H59.4999Z" fill="#E2E2E2"/>
<path d="M64.9 24.6004L64.8 26.1004C65.1 25.5004 65.4 25.1004 65.8 24.8004C66.2 24.5004 66.7 24.4004 67.2 24.4004C67.9 24.4004 68.4 24.6004 68.9 25.0004C69.3 25.4004 69.6 25.9004 69.7 26.5004C70 27.0004 70 28.0004 70 29.4004V40.8004H66.1V29.5004C66.1 28.4004 66.1 27.7004 66 27.5004C65.9 27.3004 65.8 27.1004 65.5 27.1004C65.2 27.1004 65 27.2004 65 27.5004C64.9 27.8004 64.9 28.5004 64.9 29.8004V40.7004H61V24.6004H64.9Z" fill="#E2E2E2"/>
<path d="M80.3 30.2998V34.2998C80.3 35.7998 80.2 36.7998 80.1 37.4998C80 38.1998 79.7 38.7998 79.3 39.3998C78.9 39.9998 78.4 40.3998 77.8 40.6998C77.2 40.9998 76.5 41.0998 75.7 41.0998C74.8 41.0998 74.1 40.9998 73.5 40.6998C72.9 40.4998 72.4 40.0998 72.1 39.5998C71.8 39.0998 71.5 38.4998 71.4 37.7998C71.3 37.0998 71.2 36.0998 71.2 34.6998V30.5998C71.2 29.0998 71.3 27.8998 71.6 27.0998C71.9 26.2998 72.3 25.5998 73 25.0998C73.7 24.5998 74.5 24.2998 75.6 24.2998C76.5 24.2998 77.2 24.4998 77.9 24.7998C78.5 25.0998 79 25.5998 79.4 26.0998C79.7 26.5998 80 27.1998 80.1 27.6998C80.2 28.1998 80.3 29.0998 80.3 30.2998ZM76.4 28.9998C76.4 28.1998 76.4 27.5998 76.3 27.3998C76.2 27.1998 76.1 27.0998 75.8 27.0998C75.5 27.0998 75.4 27.1998 75.3 27.3998C75.2 27.5998 75.2 28.0998 75.2 28.9998V36.2998C75.2 37.0998 75.2 37.5998 75.3 37.7998C75.4 37.9998 75.5 38.0998 75.8 38.0998C76 38.0998 76.2 37.9998 76.3 37.7998C76.4 37.5998 76.4 37.0998 76.4 36.3998V28.9998Z" fill="#E2E2E2"/>
<path d="M92.1 21V25L89 36.9H92.1V40.9H84.5V38L87.7 25H84.9V21H92.1Z" fill="#E2E2E2"/>
<path d="M97.1 21V23.6H93V21H97.1ZM97.1 24.6V40.8H93V24.6H97.1Z" fill="#E2E2E2"/>
<path d="M102.6 24.6004L102.5 26.1004C102.8 25.5004 103.1 25.1004 103.5 24.8004C103.9 24.5004 104.4 24.4004 104.9 24.4004C105.6 24.4004 106.1 24.6004 106.6 25.0004C107 25.4004 107.3 25.9004 107.4 26.5004C107.5 27.1004 107.6 28.1004 107.6 29.5004V40.9004H103.7V29.5004C103.7 28.4004 103.7 27.7004 103.6 27.5004C103.5 27.3004 103.4 27.1004 103.1 27.1004C102.8 27.1004 102.6 27.2004 102.6 27.5004C102.5 27.8004 102.5 28.5004 102.5 29.8004V40.7004H98.6001V24.6004H102.6Z" fill="#E2E2E2"/>
<path d="M117.7 30.6998H114V28.7998C114 28.0998 114 27.6998 113.9 27.4998C113.8 27.2998 113.7 27.1998 113.4 27.1998C113.1 27.1998 113 27.1998 113 27.3998C112.9 27.5998 112.9 28.0998 112.9 28.7998V36.3998C112.9 36.9998 113 37.3998 113.1 37.6998C113.2 37.9998 113.4 38.0998 113.6 38.0998C113.9 38.0998 114 37.8998 114.1 37.5998C114.2 37.2998 114.2 36.6998 114.2 35.8998V33.9998H117.7C117.7 35.2998 117.7 36.2998 117.6 36.8998C117.5 37.4998 117.3 38.1998 116.9 38.8998C116.5 39.5998 116.1 40.0998 115.5 40.3998C114.9 40.6998 114.2 40.8998 113.3 40.8998C112.2 40.8998 111.3 40.6998 110.7 40.1998C110 39.6998 109.6 39.0998 109.3 38.1998C109 37.2998 108.9 36.0998 108.9 34.4998V30.0998C108.9 28.6998 109 27.6998 109.2 26.9998C109.4 26.2998 109.9 25.6998 110.6 25.0998C111.3 24.5998 112.2 24.2998 113.2 24.2998C114.2 24.2998 115.1 24.5998 115.8 25.0998C116.5 25.5998 117 26.2998 117.3 27.1998C117.6 28.0998 117.7 29.1998 117.7 30.6998Z" fill="#E2E2E2"/>
</svg>
