<svg width="183" height="61" viewBox="0 0 183 61" fill="none" xmlns="http://www.w3.org/2000/svg">
<path d="M17.1 21V40.8H13V21H17.1Z" fill="white"/>
<path d="M22.5 24.6001V26.1001C22.8 25.5001 23.2 25.0001 23.6 24.7001C24 24.4001 24.5 24.2001 25 24.2001C26.1 24.2001 26.9 24.8001 27.5 26.0001C27.8 25.4001 28.2 24.9001 28.6 24.6001C29 24.3001 29.5 24.1001 30 24.1001C30.7 24.1001 31.2 24.3001 31.7 24.7001C32.1 25.1001 32.4 25.6001 32.5 26.2001C32.6 26.8001 32.7 27.7001 32.7 29.1001V40.6001H28.9V30.2001C28.9 28.8001 28.9 28.0001 28.8 27.6001C28.7 27.3001 28.6 27.1001 28.3 27.1001C28 27.1001 27.8 27.3001 27.8 27.6001C27.7 27.9001 27.7 28.8001 27.7 30.2001V40.8001H23.9V30.5001C23.9 28.9001 23.9 28.0001 23.8 27.6001C23.7 27.2001 23.6 27.1001 23.3 27.1001C23.1 27.1001 23 27.2001 22.9 27.4001C22.6 27.6001 22.5 27.8001 22.5 28.0001C22.5 28.2001 22.5 28.8001 22.5 29.5001V40.7001H18.6V24.6001H22.5Z" fill="white"/>
<path d="M38 24.6L37.9 26.1C38.2 25.5 38.6 25 39 24.7C39.4 24.4 39.9 24.2 40.4 24.2C41.5 24.2 42.3 24.8 42.9 26C43.3 25.5 43.6 25 44 24.7C44.4 24.4 44.9 24.2 45.4 24.2C46.1 24.2 46.6 24.4 47.1 24.8C47.5 25.2 47.8 25.7 47.9 26.3C48 26.9 48.1 27.8 48.1 29.2V40.7H44.3V30.2C44.3 28.8 44.3 28 44.2 27.6C44.1 27.3 44 27.1 43.7 27.1C43.4 27.1 43.2 27.3 43.2 27.6C43 28 43 28.8 43 30.2V40.7999H39.2V30.5C39.2 28.9 39.2 28 39.1 27.6C39 27.2 38.9 27.1 38.6 27.1C38.4 27.1 38.3 27.2 38.2 27.4C38 27.6 37.9 27.8 37.9 28C37.9 28.2 37.9 28.8 37.9 29.5V40.7H34.1V24.6H38Z" fill="white"/>
<path d="M58.5 24.6001V40.8001H54.5L54.6 39.5001C54.3 40.0001 54 40.5001 53.6 40.7001C53.2 40.9001 52.7 41.1001 52.2 41.1001C51.6 41.1001 51.1 41.0001 50.7 40.7001C50.3 40.4001 50 40.1001 49.8 39.7001C49.6 39.3001 49.5 38.8001 49.5 38.4001C49.5 37.9001 49.4 37.0001 49.4 35.6001V24.6001H53.3V35.6001C53.3 36.9001 53.3 37.6001 53.4 37.8001C53.5 38.0001 53.6 38.2001 53.9 38.2001C54.2 38.2001 54.4 38.1001 54.4 37.8001C54.4 37.5001 54.5 36.8001 54.5 35.4001V24.6001H58.5Z" fill="white"/>
<path d="M63.9 24.5999L63.8 26.0999C64.1 25.4999 64.4 25.0999 64.8 24.7999C65.2 24.4999 65.7 24.3999 66.2 24.3999C66.9 24.3999 67.4 24.5999 67.9 24.9999C68.3 25.3999 68.6 25.8999 68.7 26.4999C69 26.9999 69 27.9999 69 29.3999V40.7999H65.1V29.4999C65.1 28.3999 65.1 27.6999 65 27.4999C64.9 27.2999 64.8 27.0999 64.5 27.0999C64.2 27.0999 64 27.1999 64 27.4999C63.9 27.7999 63.9 28.4999 63.9 29.7999V40.6999H60V24.5999H63.9Z" fill="white"/>
<path d="M79.3 30.3V34.3C79.3 35.8 79.2 36.8 79.1 37.5C79 38.2 78.7 38.8 78.3 39.4C77.9 40 77.4 40.4001 76.8 40.7001C76.2 41 75.5 41.1 74.7 41.1C73.8 41.1 73.1 41 72.5 40.7001C71.9 40.5 71.4 40.1 71.1 39.6C70.8 39.1 70.5 38.5 70.4 37.8C70.3 37.1 70.2 36.1 70.2 34.7V30.6C70.2 29.1 70.3 27.9 70.6 27.1C70.9 26.3 71.3 25.6 72 25.1C72.7 24.6 73.5 24.3 74.6 24.3C75.5 24.3 76.2 24.5 76.9 24.8C77.5 25.1 78 25.6 78.4 26.1C78.7 26.6 79 27.2 79.1 27.7C79.2 28.2 79.3 29.1 79.3 30.3ZM75.4 29C75.4 28.2 75.4 27.6 75.3 27.4C75.2 27.2 75.1 27.1 74.8 27.1C74.5 27.1 74.4 27.2 74.3 27.4C74.2 27.6 74.2 28.1 74.2 29V36.3C74.2 37.1 74.2 37.6 74.3 37.8C74.4 38 74.5 38.1 74.8 38.1C75 38.1 75.2 38 75.3 37.8C75.4 37.6 75.4 37.1 75.4 36.4V29Z" fill="white"/>
<path d="M91.1 21V25L88 36.9H91.1V40.9H83.5V38L86.7 25H83.9V21H91.1Z" fill="white"/>
<path d="M96.1 21V23.6H92V21H96.1ZM96.1 24.6V40.8H92V24.6H96.1Z" fill="white"/>
<path d="M101.6 24.5999L101.5 26.0999C101.8 25.4999 102.1 25.0999 102.5 24.7999C102.9 24.4999 103.4 24.3999 103.9 24.3999C104.6 24.3999 105.1 24.5999 105.6 24.9999C106 25.3999 106.3 25.8999 106.4 26.4999C106.5 27.0999 106.6 28.0999 106.6 29.4999V40.8999H102.7V29.4999C102.7 28.3999 102.7 27.6999 102.6 27.4999C102.5 27.2999 102.4 27.0999 102.1 27.0999C101.8 27.0999 101.6 27.1999 101.6 27.4999C101.5 27.7999 101.5 28.4999 101.5 29.7999V40.6999H97.6001V24.5999H101.6Z" fill="white"/>
<path d="M116.7 30.7H113V28.8C113 28.1 113 27.7 112.9 27.5C112.8 27.3 112.7 27.2 112.4 27.2C112.1 27.2 112 27.2 112 27.4C111.9 27.6 111.9 28.1 111.9 28.8V36.4C111.9 37 112 37.4 112.1 37.7C112.2 38 112.4 38.1 112.6 38.1C112.9 38.1 113 37.9 113.1 37.6C113.2 37.3 113.2 36.7 113.2 35.9V34H116.7C116.7 35.3 116.7 36.3 116.6 36.9C116.5 37.5 116.3 38.2 115.9 38.9C115.5 39.6 115.1 40.1 114.5 40.4C113.9 40.7 113.2 40.9 112.3 40.9C111.2 40.9 110.3 40.7001 109.7 40.2C109 39.7 108.6 39.1 108.3 38.2C108 37.3 107.9 36.1 107.9 34.5V30.1C107.9 28.7 108 27.7 108.2 27C108.4 26.3 108.9 25.7 109.6 25.1C110.3 24.6 111.2 24.3 112.2 24.3C113.2 24.3 114.1 24.6 114.8 25.1C115.5 25.6 116 26.3 116.3 27.2C116.6 28.1 116.7 29.2 116.7 30.7Z" fill="white"/>
<path d="M130.4 32.4C130.4 34.4 130.4 35.8 130.3 36.6C130.2 37.4 130 38.2 129.6 38.9C129.2 39.6 128.7 40.1 128 40.5C127.3 40.9 126.5 41 125.7 41C124.9 41 124.1 40.8 123.4 40.5C122.7 40.2001 122.2 39.6 121.8 38.9C121.4 38.2 121.1 37.5 121.1 36.6C121 35.8 121 34.4 121 32.3V28.9C121 26.9 121 25.5001 121.1 24.7001C121.2 23.9001 121.4 23.1 121.8 22.4C122.2 21.7 122.7 21.2 123.4 20.8C124.1 20.4 124.9 20.3 125.7 20.3C126.5 20.3 127.3 20.5 128 20.8C128.7 21.1 129.2 21.7 129.6 22.4C130 23.1 130.3 23.8001 130.3 24.7001C130.4 25.5001 130.4 26.9 130.4 29V32.4ZM126.3 25.9C126.3 25 126.3 24.4 126.2 24.1C126.1 23.8 126 23.7001 125.7 23.7001C125.5 23.7001 125.3 23.8 125.2 24C125.1 24.2 125 24.8 125 25.8V35C125 36.1 125 36.9 125.1 37.1C125.2 37.4 125.4 37.5 125.6 37.5C125.9 37.5 126.1 37.3 126.1 37C126.2 36.7001 126.2 36 126.2 34.8V25.9H126.3Z" fill="white"/>
<path d="M135.8 24.4001L135.6 26.5001C136.2 25.0001 137 24.2001 138.1 24.1001V29.8001C137.4 29.8001 136.8 29.9001 136.5 30.2001C136.2 30.4001 136 30.8001 135.9 31.2001C135.8 31.6001 135.8 32.6001 135.8 34.2001V40.6001H131.9V24.4001H135.8Z" fill="white"/>
<path d="M143 20.8V23.4H138.9V20.8H143ZM143 24.4V40.6H138.9V24.4H143Z" fill="white"/>
<path d="M153.4 30.1V34.1C153.4 35.6 153.3 36.6 153.2 37.3C153.1 38 152.8 38.6 152.4 39.2C152 39.8 151.5 40.2 150.9 40.5C150.3 40.8 149.6 40.9 148.8 40.9C147.9 40.9 147.2 40.8 146.6 40.5C146 40.3 145.5 39.9 145.2 39.4C144.9 38.9 144.6 38.3 144.5 37.6C144.4 36.9 144.3 35.9 144.3 34.5V30.3C144.3 28.8 144.4 27.6 144.7 26.8C145 26 145.4 25.3 146.1 24.8C146.8 24.3 147.6 24 148.7 24C149.6 24 150.3 24.2 151 24.5C151.6 24.8 152.1 25.3 152.5 25.8C152.8 26.3 153.1 26.9 153.2 27.4C153.3 27.9 153.4 28.9 153.4 30.1ZM149.4 28.8C149.4 28 149.4 27.4 149.3 27.2C149.2 27 149.1 26.9 148.8 26.9C148.5 26.9 148.4 27 148.3 27.2C148.2 27.4 148.2 27.9 148.2 28.8V36.1C148.2 36.9 148.2 37.4 148.3 37.6C148.4 37.8 148.5 37.9 148.8 37.9C149 37.9 149.2 37.8 149.3 37.6C149.4 37.4 149.4 36.9 149.4 36.2V28.8Z" fill="white"/>
<path d="M158.7 24.4002L158.6 25.9002C158.9 25.3002 159.2 24.9002 159.6 24.6002C160 24.3002 160.5 24.2002 161 24.2002C161.7 24.2002 162.2 24.4002 162.7 24.8002C163.1 25.2002 163.4 25.7002 163.5 26.3002C163.6 26.9002 163.7 27.9002 163.7 29.3002V40.7002H159.8V29.3002C159.8 28.2002 159.8 27.5002 159.7 27.3002C159.6 27.1002 159.5 26.9002 159.2 26.9002C158.9 26.9002 158.7 27.0002 158.7 27.3002C158.6 27.6002 158.6 28.3002 158.6 29.6002V40.5002H154.7V24.4002H158.7Z" fill="white"/>
</svg>
