<svg width="14" height="14" viewBox="0 0 14 14" fill="none" xmlns="http://www.w3.org/2000/svg">
<path fill-rule="evenodd" clip-rule="evenodd" d="M13.9995 11.2941V5.56302V2.70541C13.9995 1.21314 12.7859 0 11.2936 0H2.70541C1.21314 0 0 1.21314 0 2.70541V5.56302V11.2941C0 12.7869 1.21314 14 2.70541 14H11.2941C12.7859 14 13.9995 12.7869 13.9995 11.2941ZM9.46407 6.99912C9.46407 8.35803 8.35702 9.46309 6.99911 9.46309C5.64071 9.46309 4.53465 8.35753 4.53613 6.99863C4.53663 6.46221 4.71064 5.96694 5.00216 5.56239C5.45083 4.94169 6.17812 4.53516 7.0006 4.53516C7.82258 4.53516 8.55037 4.94218 8.99805 5.56288C9.28857 5.96743 9.46407 6.4627 9.46407 6.99912ZM12.3798 3.98499V1.91961V1.61224L12.071 1.61323L10.0066 1.61967L10.0145 3.99292L12.3798 3.98499ZM6.99967 10.8285C9.11115 10.8285 10.8285 9.1102 10.8285 6.99972C10.8285 6.49205 10.7259 6.00669 10.5439 5.56348H12.6346V11.2946C12.6346 12.0352 12.0322 12.6351 11.293 12.6351H2.70483C1.96465 12.6351 1.36328 12.0352 1.36328 11.2946V5.56348H3.45294C3.27248 6.00669 3.17135 6.49205 3.17135 6.99972C3.17135 9.1102 4.88819 10.8285 6.99967 10.8285Z" fill="#AF0A3D" fill-opacity="0.8"/>
</svg>
