<svg width="27" height="27" viewBox="0 0 27 27" fill="none" xmlns="http://www.w3.org/2000/svg">
<circle cx="13.5" cy="13.5" r="13.5" fill="url(#paint0_linear_1_164)"/>
<path fill-rule="evenodd" clip-rule="evenodd" d="M20.1569 9.13791L12.0651 16.8593L7.84316 12.8307C7.64963 12.6467 7.33668 12.6471 7.14397 12.8315C6.95167 13.0167 6.95208 13.3162 7.14479 13.5002L11.7159 17.8621C11.7497 17.894 11.7905 17.9133 11.83 17.9342C11.8469 17.9433 11.8613 17.9582 11.879 17.9653C11.9387 17.9886 12.0017 18 12.0651 18C12.1281 18 12.1915 17.9886 12.2508 17.9653C12.2689 17.9582 12.2829 17.9433 12.2998 17.9342C12.3398 17.9133 12.3801 17.894 12.4139 17.8621L20.8549 9.80736C21.048 9.62296 21.0484 9.32389 20.8557 9.1387C20.6634 8.95429 20.3509 8.95351 20.1569 9.13791Z" fill="white"/>
<defs>
<linearGradient id="paint0_linear_1_164" x1="13.5" y1="3.37958e-07" x2="23.236" y2="23.1809" gradientUnits="userSpaceOnUse">
<stop stop-color="#A63F43"/>
<stop offset="1" stop-color="#92232C"/>
</linearGradient>
</defs>
</svg>
