<svg width="14" height="9" viewBox="0 0 14 9" fill="none" xmlns="http://www.w3.org/2000/svg">
<path fill-rule="evenodd" clip-rule="evenodd" d="M13.1569 0.137911L5.06511 7.85929L0.843165 3.83074C0.64963 3.64673 0.336679 3.64713 0.143968 3.83153C-0.0483319 4.01672 -0.0479202 4.31619 0.144791 4.5002L4.71593 8.86209C4.74969 8.89401 4.79046 8.91331 4.82999 8.9342C4.84687 8.94326 4.86128 8.95823 4.87899 8.96533C4.9387 8.98857 5.0017 9 5.06511 9C5.12811 9 5.19153 8.98857 5.25082 8.96533C5.26894 8.95823 5.28294 8.94326 5.29983 8.9342C5.33977 8.91331 5.38012 8.89401 5.41389 8.86209L13.8549 0.807365C14.048 0.622959 14.0484 0.323892 13.8557 0.138699C13.6634 -0.0457066 13.3509 -0.0464947 13.1569 0.137911Z" fill="white"/>
</svg>
