<svg width="18" height="18" viewBox="0 0 18 18" fill="none" xmlns="http://www.w3.org/2000/svg">
<circle cx="9" cy="9" r="9" fill="url(#paint0_linear_1_272)"/>
<path fill-rule="evenodd" clip-rule="evenodd" d="M13.4378 6.09218L8.04325 11.2398L5.22861 8.55407C5.09959 8.4314 4.89096 8.43166 4.76248 8.5546C4.63428 8.67806 4.63456 8.8777 4.76303 9.00038L7.81045 11.9083C7.83296 11.9296 7.86014 11.9425 7.8865 11.9564C7.89775 11.9624 7.90736 11.9724 7.91916 11.9771C7.95897 11.9926 8.00097 12.0002 8.04325 12.0002C8.08525 12.0002 8.12752 11.9926 8.16705 11.9771C8.17913 11.9724 8.18847 11.9624 8.19972 11.9564C8.22635 11.9425 8.25325 11.9296 8.27576 11.9083L13.9031 6.53849C14.0319 6.41555 14.0321 6.21617 13.9037 6.09271C13.7755 5.96977 13.5671 5.96925 13.4378 6.09218Z" fill="white"/>
<defs>
<linearGradient id="paint0_linear_1_272" x1="9" y1="2.25306e-07" x2="15.4906" y2="15.4539" gradientUnits="userSpaceOnUse">
<stop stop-color="#A63F43"/>
<stop offset="1" stop-color="#92232C"/>
</linearGradient>
</defs>
</svg>
