<svg width="10" height="6" viewBox="0 0 10 6" fill="none" xmlns="http://www.w3.org/2000/svg">
<path fill-rule="evenodd" clip-rule="evenodd" d="M9.4378 0.0921845L4.04325 5.23977L1.22861 2.55407C1.09959 2.4314 0.890957 2.43166 0.762482 2.5546C0.634283 2.67806 0.634557 2.8777 0.763031 3.00038L3.81045 5.9083C3.83296 5.92958 3.86014 5.94245 3.8865 5.95638C3.89775 5.96242 3.90736 5.9724 3.91916 5.97713C3.95897 5.99263 4.00097 6.00025 4.04325 6.00025C4.08525 6.00025 4.12752 5.99263 4.16705 5.97713C4.17913 5.9724 4.18847 5.96242 4.19972 5.95638C4.22635 5.94245 4.25325 5.92958 4.27576 5.9083L9.9031 0.538487C10.0319 0.41555 10.0321 0.216172 9.90365 0.0927099C9.77545 -0.030227 9.56709 -0.0307523 9.4378 0.0921845Z" fill="white"/>
</svg>
