<svg width="510" height="510" viewBox="0 0 510 510" fill="none" xmlns="http://www.w3.org/2000/svg">
<circle cx="255" cy="255" r="254.5" stroke="#9D252F" stroke-opacity="0.6"/>
<circle cx="255" cy="255" r="219.416" stroke="#9D252F" stroke-opacity="0.8"/>
<g filter="url(#filter0_i_1_215)">
<circle cx="255" cy="255" r="187.399" fill="#9D252F"/>
</g>
<path d="M257.985 290.893H268.594C269.2 294.531 269.807 298.471 270.413 303.018C271.019 307.565 271.625 312.112 271.928 316.962C272.535 321.812 272.838 326.662 273.141 331.511C273.444 336.361 273.444 340.605 273.444 344.849H130.067V328.177L226.763 182.375H161.895L147.345 218.75H137.039C136.13 215.112 135.22 210.566 134.614 206.019C134.008 201.169 133.401 196.622 133.098 191.772C132.492 186.922 132.189 182.375 132.189 177.828C131.886 173.282 131.886 169.341 131.886 166.007H267.685V182.678L171.292 328.177H242.526L257.985 290.893Z" fill="white" fill-opacity="0.8"/>
<path d="M380.143 344.849H334.675V337.877C336.19 336.968 337.706 336.361 339.221 335.452C340.737 334.846 342.253 333.936 344.374 333.33V289.984C344.374 286.043 344.071 282.709 343.768 279.981C343.465 276.949 342.859 274.524 341.949 272.706C341.04 270.584 339.828 269.068 338.312 268.159C336.796 267.249 334.675 266.643 332.25 266.643C330.128 266.643 328.309 266.946 326.49 267.856C324.671 268.765 323.156 269.978 321.943 271.493C320.731 273.009 319.518 274.827 318.609 276.646C317.7 278.768 316.79 280.89 316.184 283.012V333.33C318.003 333.936 319.822 334.543 321.034 335.149C322.55 335.755 324.065 336.664 325.581 337.877V344.849H279.809V337.877C281.325 336.968 282.841 336.361 284.356 335.755C285.872 335.149 287.994 334.239 290.419 333.633V266.946L279.809 265.734V258.762C281.325 258.156 283.447 257.246 285.872 256.64C288.297 256.034 290.722 255.428 293.45 254.821C296.178 254.215 298.906 253.609 301.937 253.306C304.665 253.003 307.393 252.396 310.122 252.396H316.184V271.19C317.397 268.765 318.306 266.643 319.518 264.824C320.731 263.006 322.247 261.49 323.762 259.974C325.581 257.853 328.309 256.337 331.34 254.821C334.371 253.306 337.706 252.7 341.343 252.7C345.89 252.7 349.831 253.306 353.468 254.518C357.106 255.731 360.137 257.853 362.562 260.581C364.987 263.612 366.806 267.249 368.018 272.403C369.23 277.252 369.837 283.618 369.837 290.893V334.24C372.262 334.543 374.08 335.149 375.596 336.058C377.112 336.664 378.627 337.574 380.446 338.786V344.849H380.143Z" fill="white" fill-opacity="0.8"/>
<defs>
<filter id="filter0_i_1_215" x="67.6007" y="67.6006" width="374.799" height="374.799" filterUnits="userSpaceOnUse" color-interpolation-filters="sRGB">
<feFlood flood-opacity="0" result="BackgroundImageFix"/>
<feBlend mode="normal" in="SourceGraphic" in2="BackgroundImageFix" result="shape"/>
<feColorMatrix in="SourceAlpha" type="matrix" values="0 0 0 0 0 0 0 0 0 0 0 0 0 0 0 0 0 0 127 0" result="hardAlpha"/>
<feOffset/>
<feGaussianBlur stdDeviation="15"/>
<feComposite in2="hardAlpha" operator="arithmetic" k2="-1" k3="1"/>
<feColorMatrix type="matrix" values="0 0 0 0 1 0 0 0 0 1 0 0 0 0 1 0 0 0 1 0"/>
<feBlend mode="normal" in2="shape" result="effect1_innerShadow_1_215"/>
</filter>
</defs>
</svg>
