<svg width="251" height="179" viewBox="0 0 251 179" fill="none" xmlns="http://www.w3.org/2000/svg">
<path d="M127.985 124.893H138.594C139.2 128.531 139.807 132.471 140.413 137.018C141.019 141.565 141.625 146.112 141.928 150.962C142.535 155.812 142.838 160.662 143.141 165.511C143.444 170.361 143.444 174.605 143.444 178.849H0.0670776V162.177L96.7632 16.3752H31.8949L17.3451 52.7499H7.0389C6.12953 49.1124 5.22016 44.5656 4.61391 40.0188C4.00767 35.1688 3.40143 30.622 3.0983 25.772C2.49206 20.922 2.18894 16.3752 2.18894 11.8284C1.88581 7.28153 1.88581 3.34094 1.88581 0.0065918H137.685V16.6783L41.2917 162.177H112.526L127.985 124.893Z" fill="white" fill-opacity="0.8"/>
<path d="M250.143 178.849H204.675V171.877C206.19 170.968 207.706 170.361 209.221 169.452C210.737 168.846 212.253 167.936 214.374 167.33V123.984C214.374 120.043 214.071 116.709 213.768 113.981C213.465 110.949 212.859 108.524 211.949 106.706C211.04 104.584 209.828 103.068 208.312 102.159C206.796 101.249 204.675 100.643 202.25 100.643C200.128 100.643 198.309 100.946 196.49 101.856C194.671 102.765 193.156 103.978 191.943 105.493C190.731 107.009 189.518 108.827 188.609 110.646C187.7 112.768 186.79 114.89 186.184 117.012V167.33C188.003 167.936 189.822 168.543 191.034 169.149C192.55 169.755 194.065 170.664 195.581 171.877V178.849H149.809V171.877C151.325 170.968 152.841 170.361 154.356 169.755C155.872 169.149 157.994 168.239 160.419 167.633V100.946L149.809 99.7338V92.762C151.325 92.1558 153.447 91.2464 155.872 90.6401C158.297 90.0339 160.722 89.4276 163.45 88.8214C166.178 88.2152 168.906 87.6089 171.937 87.3058C174.665 87.0027 177.393 86.3964 180.122 86.3964H186.184V105.19C187.397 102.765 188.306 100.643 189.518 98.8245C190.731 97.0057 192.247 95.4901 193.762 93.9745C195.581 91.8526 198.309 90.337 201.34 88.8214C204.371 87.3058 207.706 86.6996 211.343 86.6996C215.89 86.6996 219.831 87.3058 223.468 88.5183C227.106 89.7308 230.137 91.8526 232.562 94.5807C234.987 97.612 236.806 101.249 238.018 106.403C239.23 111.252 239.837 117.618 239.837 124.893V168.24C242.262 168.543 244.08 169.149 245.596 170.058C247.112 170.664 248.627 171.574 250.446 172.786V178.849H250.143Z" fill="white" fill-opacity="0.8"/>
</svg>
